<svg xmlns="http://www.w3.org/2000/svg" width="148.159" height="47.258" viewBox="0 0 148.159 47.258"><g transform="translate(0 -17.213)"><g transform="translate(35.159 26.213)"><text transform="translate(0 23)" fill="#fff" font-size="30" font-family="SegoeUI, Segoe UI" letter-spacing="0.03em"><tspan x="0" y="0">iscovery</tspan></text></g><g transform="translate(75.349 22.34)"><text transform="translate(0 10)" fill="#fff" font-size="13" font-family="SegoeUI, Segoe UI" letter-spacing="0.08em"><tspan x="0" y="0">Armenia</tspan></text></g><g transform="translate(8.697 24.751)"><path d="M225.059,66.247q0-2.873-1.953-2.872a4.948,4.948,0,0,0-.8.076,6.968,6.968,0,0,1-1.034.115,1.066,1.066,0,0,1-1.186-1.225q0-1.34,1.722-1.34a4.288,4.288,0,0,1,.5.04l2.029.268a18.554,18.554,0,0,0,2.45.153,20.161,20.161,0,0,0,2.148-.114l2.487-.268A18.8,18.8,0,0,1,233.33,61a14.9,14.9,0,0,1,5.821,1A9.934,9.934,0,0,1,244,66.515a15.166,15.166,0,0,1,1.781,7.469,15.645,15.645,0,0,1-1.417,6.758,9.691,9.691,0,0,1-3.868,4.423,13.888,13.888,0,0,1-7.123,1.723q-.843,0-1.723-.077l-2.65-.23q-1.341-.115-2.8-.115a15.109,15.109,0,0,0-2.068.115l-1.838.268a1.616,1.616,0,0,0-.268.04h-.306q-1.647,0-1.647-1.34a1.259,1.259,0,0,1,.345-.9,1.116,1.116,0,0,1,.843-.364,5.786,5.786,0,0,1,1.034.115,3,3,0,0,0,.8.077q1.953,0,1.953-2.872Zm3.216-.391V81.994A1.985,1.985,0,0,0,230,84.131a18.582,18.582,0,0,0,3.217.153q4.6,0,6.664-2.48a11.843,11.843,0,0,0,2.49-7.86,12.868,12.868,0,0,0-1.512-6.467,6.909,6.909,0,0,0-4.156-3.415,14.557,14.557,0,0,0-4.059-.5,11.2,11.2,0,0,0-3.7.343q-.67.343-.672,1.946Z" transform="translate(-220.08 -61)" fill="#fff"/></g><g transform="translate(0 25.025)"><circle cx="0.555" cy="0.555" r="0.555" transform="translate(0 3.16)" fill="#fff"/><circle cx="0.555" cy="0.555" r="0.555" transform="translate(2.143 3.473)" fill="#fff"/><circle cx="0.681" cy="0.681" r="0.681" transform="translate(2.705 5.584)" fill="#fff"/><circle cx="0.571" cy="0.571" r="0.571" transform="translate(4.285 3.707)" fill="#fff"/><circle cx="0.555" cy="0.555" r="0.555" transform="translate(6.021 2.925)" fill="#fff"/><circle cx="1.103" cy="1.103" r="1.103" transform="translate(8.164 2.941)" fill="#fff"/><circle cx="1.337" cy="1.337" r="1.337" transform="translate(5.693 6.256)" fill="#fff"/><circle cx="1.15" cy="1.15" r="1.15" transform="translate(6.381 10.292)" fill="#fff"/><circle cx="0.962" cy="0.962" r="0.962" transform="translate(2.941 12.591)" fill="#fff"/><circle cx="1.197" cy="1.197" r="1.197" transform="translate(1.673 16.626)" fill="#fff"/><circle cx="0.805" cy="0.805" r="0.805" transform="translate(1.767 20.129)" fill="#fff"/><circle cx="0.727" cy="0.727" r="0.727" transform="translate(5.036 19.035)" fill="#fff"/><circle cx="0.978" cy="0.978" r="0.978" transform="translate(8.962 20.129)" fill="#fff"/><circle cx="0.852" cy="0.852" r="0.852" transform="translate(11.949 19.754)" fill="#fff"/><circle cx="0.727" cy="0.727" r="0.727" transform="translate(15.844 19.488)" fill="#fff"/><circle cx="1.087" cy="1.087" r="1.087" transform="translate(18.862 17.736)" fill="#fff"/><circle cx="0.727" cy="0.727" r="0.727" transform="translate(21.928 18.253)" fill="#fff"/><circle cx="0.665" cy="0.665" r="0.665" transform="translate(25.509 18.159)" fill="#fff"/><circle cx="0.837" cy="0.837" r="0.837" transform="translate(25.338 17.924)" fill="#fff"/><circle cx="0.837" cy="0.837" r="0.837" transform="translate(28.153 15.203)" fill="#fff"/><circle cx="1.009" cy="1.009" r="1.009" transform="translate(27.981 15.031)" fill="#fff"/><circle cx="0.758" cy="0.758" r="0.758" transform="translate(31.281 16.188)" fill="#fff"/><circle cx="0.633" cy="0.633" r="0.633" transform="translate(32.704 18.487)" fill="#fff"/><circle cx="0.727" cy="0.727" r="0.727" transform="translate(30.984 19.989)" fill="#fff"/><circle cx="0.602" cy="0.602" r="0.602" transform="translate(28.105 19.816)" fill="#fff"/><circle cx="0.696" cy="0.696" r="0.696" transform="translate(28.294 17.924)" fill="#fff"/><circle cx="0.696" cy="0.696" r="0.696" transform="translate(28.325 17.924)" fill="#fff"/><circle cx="0.649" cy="0.649" r="0.649" transform="translate(5.85 21.115)" fill="#fff"/><circle cx="1.369" cy="1.369" r="1.369" transform="translate(10.448 15.64)" fill="#fff"/><circle cx="0.837" cy="0.837" r="0.837" transform="translate(6.944 16.83)" fill="#fff"/><circle cx="1.04" cy="1.04" r="1.04" transform="translate(14.999 16.626)" fill="#fff"/><circle cx="0.758" cy="0.758" r="0.758" transform="translate(18.19 15.312)" fill="#fff"/><circle cx="0.524" cy="0.524" r="0.524" transform="translate(20.802 15.719)" fill="#fff"/><circle cx="0.524" cy="0.524" r="0.524" transform="translate(4.504 15.797)" fill="#fff"/><circle cx="0.493" cy="0.493" r="0.493" transform="translate(0.907 14.373)" fill="#fff"/><circle cx="0.539" cy="0.539" r="0.539" transform="translate(13.998 14.327)" fill="#fff"/><circle cx="0.962" cy="0.962" r="0.962" transform="translate(6.663 13.561)" fill="#fff"/><circle cx="0.962" cy="0.962" r="0.962" transform="translate(10.385 12.903)" fill="#fff"/><circle cx="1.275" cy="1.275" r="1.275" transform="translate(15.484 11.981)" fill="#fff"/><circle cx="1.009" cy="1.009" r="1.009" transform="translate(19.55 12.497)" fill="#fff"/><circle cx="1.322" cy="1.322" r="1.322" transform="translate(22.741 14.514)" fill="#fff"/><circle cx="1.15" cy="1.15" r="1.15" transform="translate(23.007 20.067)" fill="#fff"/><circle cx="1.353" cy="1.353" r="1.353" transform="translate(25.4 22.585)" fill="#fff"/><circle cx="0.837" cy="0.837" r="0.837" transform="translate(23.727 25.51)" fill="#fff"/><circle cx="0.837" cy="0.837" r="0.837" transform="translate(21.787 23.68)" fill="#fff"/><circle cx="1.165" cy="1.165" r="1.165" transform="translate(18.752 21.349)" fill="#fff"/><circle cx="1.337" cy="1.337" r="1.337" transform="translate(14.514 22.147)" fill="#fff"/><circle cx="0.727" cy="0.727" r="0.727" transform="translate(16.845 25.432)" fill="#fff"/><circle cx="0.602" cy="0.602" r="0.602" transform="translate(19.065 25.29)" fill="#fff"/><circle cx="0.696" cy="0.696" r="0.696" transform="translate(21.928 27.308)" fill="#fff"/><circle cx="0.539" cy="0.539" r="0.539" transform="translate(24.086 27.778)" fill="#fff"/><circle cx="0.649" cy="0.649" r="0.649" transform="translate(26.104 28.591)" fill="#fff"/><circle cx="0.493" cy="0.493" r="0.493" transform="translate(27.214 27.183)" fill="#fff"/><circle cx="0.493" cy="0.493" r="0.493" transform="translate(29.263 26.698)" fill="#fff"/><circle cx="0.805" cy="0.805" r="0.805" transform="translate(27.699 21.349)" fill="#fff"/><circle cx="0.665" cy="0.665" r="0.665" transform="translate(30.327 22.303)" fill="#fff"/><circle cx="0.665" cy="0.665" r="0.665" transform="translate(29.936 24.837)" fill="#fff"/><circle cx="0.79" cy="0.79" r="0.79" transform="translate(34.111 25.838)" fill="#fff"/><circle cx="0.539" cy="0.539" r="0.539" transform="translate(32.798 27.199)" fill="#fff"/><circle cx="0.477" cy="0.477" r="0.477" transform="translate(31.265 27.324)" fill="#fff"/><circle cx="0.712" cy="0.712" r="0.712" transform="translate(31.609 28.903)" fill="#fff"/><circle cx="0.571" cy="0.571" r="0.571" transform="translate(34.049 29.419)" fill="#fff"/><circle cx="0.79" cy="0.79" r="0.79" transform="translate(35.988 29.076)" fill="#fff"/><circle cx="0.649" cy="0.649" r="0.649" transform="translate(38.069 29.263)" fill="#fff"/><circle cx="0.821" cy="0.821" r="0.821" transform="translate(38.444 26.151)" fill="#fff"/><circle cx="0.571" cy="0.571" r="0.571" transform="translate(34.049 29.341)" fill="#fff"/><circle cx="0.665" cy="0.665" r="0.665" transform="translate(36.301 27.011)" fill="#fff"/><circle cx="0.915" cy="0.915" r="0.915" transform="translate(31.015 30.655)" fill="#fff"/><circle cx="0.524" cy="0.524" r="0.524" transform="translate(34.049 31.609)" fill="#fff"/><circle cx="0.462" cy="0.462" r="0.462" transform="translate(35.801 32.125)" fill="#fff"/><circle cx="0.524" cy="0.524" r="0.524" transform="translate(37.552 31.547)" fill="#fff"/><circle cx="0.649" cy="0.649" r="0.649" transform="translate(39.43 30.968)" fill="#fff"/><circle cx="0.446" cy="0.446" r="0.446" transform="translate(41.025 31.86)" fill="#fff"/><circle cx="0.399" cy="0.399" r="0.399" transform="translate(42.292 32.688)" fill="#fff"/><circle cx="0.399" cy="0.399" r="0.399" transform="translate(41.009 33.455)" fill="#fff"/><circle cx="0.649" cy="0.649" r="0.649" transform="translate(38.726 33.048)" fill="#fff"/><circle cx="0.649" cy="0.649" r="0.649" transform="translate(36.771 33.94)" fill="#fff"/><circle cx="0.649" cy="0.649" r="0.649" transform="translate(34.331 33.048)" fill="#fff"/><circle cx="0.821" cy="0.821" r="0.821" transform="translate(37.678 35.566)" fill="#fff"/><circle cx="0.649" cy="0.649" r="0.649" transform="translate(35.942 36.223)" fill="#fff"/><circle cx="0.539" cy="0.539" r="0.539" transform="translate(34.988 34.847)" fill="#fff"/><circle cx="0.571" cy="0.571" r="0.571" transform="translate(39.758 35.003)" fill="#fff"/><circle cx="0.571" cy="0.571" r="0.571" transform="translate(40.899 35.316)" fill="#fff"/><circle cx="0.758" cy="0.758" r="0.758" transform="translate(40.384 37.35)" fill="#fff"/><circle cx="0.665" cy="0.665" r="0.665" transform="translate(36.911 38.116)" fill="#fff"/><circle cx="0.43" cy="0.43" r="0.43" transform="translate(38.788 37.256)" fill="#fff"/><circle cx="0.602" cy="0.602" r="0.602" transform="translate(39.445 28.059)" fill="#fff"/><circle cx="0.602" cy="0.602" r="0.602" transform="translate(40.806 27.324)" fill="#fff"/><circle cx="0.602" cy="0.602" r="0.602" transform="translate(41.306 29.263)" fill="#fff"/><circle cx="0.618" cy="0.618" r="0.618" transform="translate(32.094 24.274)" fill="#fff"/><circle cx="0.712" cy="0.712" r="0.712" transform="translate(25.509 13.263)" fill="#fff"/><circle cx="0.555" cy="0.555" r="0.555" transform="translate(25.9 11.387)" fill="#fff"/><circle cx="1.337" cy="1.337" r="1.337" transform="translate(14.295 6.944)" fill="#fff"/><circle cx="0.758" cy="0.758" r="0.758" transform="translate(9.181 8.806)" fill="#fff"/><circle cx="0.978" cy="0.978" r="0.978" transform="translate(18.033 6.569)" fill="#fff"/><circle cx="0.571" cy="0.571" r="0.571" transform="translate(23.882 7.523)" fill="#fff"/><circle cx="0.712" cy="0.712" r="0.712" transform="translate(12.637 10.026)" fill="#fff"/><circle cx="0.712" cy="0.712" r="0.712" transform="translate(21.13 8.086)" fill="#fff"/><circle cx="0.962" cy="0.962" r="0.962" transform="translate(19.284 9.509)" fill="#fff"/><circle cx="0.79" cy="0.79" r="0.79" transform="translate(23.711 5.115)" fill="#fff"/><circle cx="0.805" cy="0.805" r="0.805" transform="translate(20.943 4.958)" fill="#fff"/><circle cx="0.962" cy="0.962" r="0.962" transform="translate(22.913 9.259)" fill="#fff"/><circle cx="0.602" cy="0.602" r="0.602" transform="translate(2.862 7.695)" fill="#fff"/><circle cx="0.602" cy="0.602" r="0.602" transform="translate(4.207 10.26)" fill="#fff"/><circle cx="0.946" cy="0.946" r="0.946" transform="translate(12.638 2.8)" fill="#fff"/><circle cx="0.586" cy="0.586" r="0.586" transform="translate(10.37 1.408)" fill="#fff"/><circle cx="0.493" cy="0.493" r="0.493" transform="translate(15.437 1.721)" fill="#fff"/><circle cx="0.743" cy="0.743" r="0.743" transform="translate(17.173 0)" fill="#fff"/><circle cx="0.852" cy="0.852" r="0.852" transform="translate(17.955 2.503)" fill="#fff"/><circle cx="0.633" cy="0.633" r="0.633" transform="translate(19.613 0.735)" fill="#fff"/><circle cx="0.539" cy="0.539" r="0.539" transform="translate(21.13 2.472)" fill="#fff"/><circle cx="0.539" cy="0.539" r="0.539" transform="translate(15.891 4.849)" fill="#fff"/><circle cx="0.884" cy="0.884" r="0.884" transform="translate(10.542 5.928)" fill="#fff"/><circle cx="0.681" cy="0.681" r="0.681" transform="translate(2.705 5.584)" fill="#fff"/><circle cx="0.524" cy="0.524" r="0.524" transform="translate(0.25 4.849)" fill="#fff"/></g></g></svg>