<svg xmlns="http://www.w3.org/2000/svg" width="90.273" height="41.401" viewBox="0 0 90.273 41.401">
  <g id="download" transform="translate(284 -231.707)">
    <g id="Layer_2" transform="translate(-281.218 250.439)">
      <path id="Path_7796" data-name="Path 7796" d="M-245.281,291.744a17.825,17.825,0,0,1-15.232,11.349c-8.736-.971-15.68-10.043-15.979-16.427a14.923,14.923,0,0,1,.149-3.883c.261.261,1.045-1.008,1.419-.9a8.387,8.387,0,0,0,2.427,0c1.568.336,4.443.6,4.443.6h.448a5.7,5.7,0,0,0,1.344-.261,5.613,5.613,0,0,1,1.307-.336l2.651.485a28,28,0,0,1,2.837.224c1.493.336,2.464.075,3.472.3a3.15,3.15,0,0,1,.635.187c.747.261,1.456.672,2.2.9l1.717.448c.635.187,1.9.523,2.091.6.224.112,1.045.224,1.157.523a13.413,13.413,0,0,0,1.232,2.128,7.175,7.175,0,0,1,.672,1.307c.187.3.448.3.709.635.187.187.56.635.747.821A4.649,4.649,0,0,1-245.281,291.744Z" transform="translate(276.547 -281.881)" fill="#fff"/>
    </g>
    <g id="Layer_1_1_" transform="translate(-284 237.192)">
      <path id="Path_7797" data-name="Path 7797" d="M-275.077,283.03A17.25,17.25,0,0,1-284,267.91a17.169,17.169,0,0,1,8.251-14.71,18.831,18.831,0,0,0-5.712,7.579c-.037.112-.112.224-.149.336a18.43,18.43,0,0,0-1.269,6.757A18.907,18.907,0,0,0-275.077,283.03Z" transform="translate(284 -250.661)" fill="#fff"/>
      <path id="Path_7798" data-name="Path 7798" d="M-193.179,287.1a18.31,18.31,0,0,1,.149,2.016c0,.56,0,.672-.037,1.195-.187-.373-.037-.3-.261-.6l-.187-.3c-.149-.336-.112-1.12-.224-1.531a2.73,2.73,0,0,0-.261-.709.728.728,0,0,0,.3.037C-193.4,287.249-193.515,287.175-193.179,287.1Z" transform="translate(227.6 -271.905)" fill="#fff"/>
      <path id="Path_7799" data-name="Path 7799" d="M-203.413,260.8a16.692,16.692,0,0,1,3.248,4.891,1.534,1.534,0,0,0-.485.3c0-.112-.037-.261-.037-.373a2.937,2.937,0,0,0-1.605-1.979c-.3-.187-.485-.859-.859-1.307a3.3,3.3,0,0,1-.448-.635A7.65,7.65,0,0,1-203.413,260.8Z" transform="translate(233.616 -255.424)" fill="#fff"/>
      <path id="Path_7800" data-name="Path 7800" d="M-217.537,253c.485.3,1.195.747,1.68,1.083a12.391,12.391,0,0,0-1.157,2.837c.224.635.523,1.419.672,1.717a5.657,5.657,0,0,1,.523,1.157c-.037.261-2.016.261-3.136-.224-1.195-.485-.859-.747-.3-1.68l.523-.933c.261-.747.261-1.568.56-2.315A4.443,4.443,0,0,0-217.537,253Z" transform="translate(243.745 -250.536)" fill="#fff"/>
      <path id="Path_7801" data-name="Path 7801" d="M-259.037,246.4a17.364,17.364,0,0,1,6.235,1.493.53.53,0,0,1-.075.224,2.821,2.821,0,0,1-.6,1.307,11.509,11.509,0,0,0-.9,1.008c-.261.336-.523.784-.784,1.12-.261.373-.448.821-.709,1.195a6.011,6.011,0,0,0-.784,1.12c-.112.224-.3.635-.485.933-.373.709-.187.933-.933,1.045-.224.037-.523.037-.933.075-.56.037-1.68.373-2.352.448a18.166,18.166,0,0,0-2.053.411,8.266,8.266,0,0,1-1.717.261,24.8,24.8,0,0,0-2.651.411,9.2,9.2,0,0,1-2.315.224,5.064,5.064,0,0,1-1.755-.485c-.3-.112-1.045-.448-1.157-.485A16.94,16.94,0,0,1-259.037,246.4Z" transform="translate(277.107 -246.4)" fill="#fff"/>
    </g>
    <g id="Layer_4" transform="translate(-281.461 235.662)">
      <path id="Path_7802" data-name="Path 7802" d="M-275.109,260.173a16.988,16.988,0,0,0-.672,4.779A17.3,17.3,0,0,0-258.5,282.238a17.3,17.3,0,0,0,17.286-17.286,17.412,17.412,0,0,0-8.885-15.12,2.712,2.712,0,0,1,.6-1.232,18.621,18.621,0,0,1,9.707,16.39,18.69,18.69,0,0,1-18.7,18.7,18.69,18.69,0,0,1-18.7-18.7,18.665,18.665,0,0,1,.672-5.04c.037,0,.075.037.112.037A4.927,4.927,0,0,0-275.109,260.173Z" transform="translate(277.2 -246.248)" fill="#fff"/>
      <path id="Path_7803" data-name="Path 7803" d="M-256.2,242.3a17.47,17.47,0,0,1,3.995.448c-.224.261-.448.56-.672.821l-.224.448a17.18,17.18,0,0,0-3.136-.3,17.308,17.308,0,0,0-16.054,10.864c-.224-.075-1.307-.523-1.307-.523A18.727,18.727,0,0,1-256.2,242.3Z" transform="translate(274.944 -242.3)" fill="#fff"/>
      <path id="Path_7804" data-name="Path 7804" d="M-212.352,244.7a20.247,20.247,0,0,1,2.091.821,4.188,4.188,0,0,0-.3.9,2.3,2.3,0,0,0-.037.485,22.658,22.658,0,0,0-2.2-.9C-212.651,245.6-212.5,245.148-212.352,244.7Z" transform="translate(236.843 -243.804)" fill="#fff"/>
    </g>
    <g id="Layer_3" transform="translate(-280.869 231.707)">
      <path id="Path_7805" data-name="Path 7805" d="M-199.9,249.8" transform="translate(228.167 -243.045)" fill="#fff"/>
      <path id="Path_7806" data-name="Path 7806" d="M-200.6,249.2" transform="translate(228.606 -242.669)" fill="#fff"/>
      <path id="Path_7807" data-name="Path 7807" d="M-201.5,248.7" transform="translate(229.17 -242.356)" fill="#fff"/>
      <path id="Path_7808" data-name="Path 7808" d="M-246.862,239.134c.149.3-.56.635-.859.747a.991.991,0,0,0-.56.336c-.3.523-.635,1.157-.821,1.568a14.7,14.7,0,0,0-.485,1.829,3.009,3.009,0,0,0,.56.859c.373.485.411,1.12.933,1.456,1.605.971,1.344,1.68,1.493,2.651.075.485.149.747.784.411a2.814,2.814,0,0,1,2.389-.747c.933.037,1.419,1.083,1.381,2.016a1.39,1.39,0,0,1-1.008,1.307,4.631,4.631,0,0,1-1.381.411,7.342,7.342,0,0,1-.9.112,4.469,4.469,0,0,1-.9-.224c-.149-.037-.149.037-.149.187,0,.112.261.448.336.635a2.477,2.477,0,0,1,.224.747,7.207,7.207,0,0,0,.261,1.643l.224.336a7.032,7.032,0,0,1,.9,1.717c.149.485.747.747,1.045,1.232a8.515,8.515,0,0,0,1.755,1.867,2.358,2.358,0,0,0,.336.149c.3.112.448-.149.6-.3.112-.112.112-.373.187-.485.149-.187.149-.3.224-.336.523-.149.075.747-.149,1.232-.149.411-.821.3-.448.3h.448a.206.206,0,0,1,.224.187c-.037.336-.261.261-.224.373.037.075.075.224-.149.261a1.616,1.616,0,0,1-.037.187c-.075.075-.149.037-.149.075-.037.075.075.224-.224.261-.485,0,.373-.112-.187-.075-.485-.037-.971-.672-1.344-.9a10.385,10.385,0,0,1-1.232-1.008,10.873,10.873,0,0,1-1.157-1.12,7.185,7.185,0,0,1-.485-.635c-.261-.261-.224-.411-.411-.709a6.849,6.849,0,0,0-.933-1.307,4.7,4.7,0,0,1-.9-1.344c-.075-.224-.149-.709-.3-.821a4.61,4.61,0,0,0-.747-.373c-.709-.261-1.307-.3-1.979-.523l-1.68-.448c-.635-.187-1.344-.6-2.165-.859a3.938,3.938,0,0,0-.709-.187c-1.643-.112-3.061-.448-3.845-.523-.672-.075-2.651-.112-2.651-.112l-2.651-.336c-.709,0-1.792.6-2.613.6h-.411s-2.8-.224-4.517-.523a15.812,15.812,0,0,1-2.613-.075c-.448-.149-1.157-.373-1.083-.784a3.952,3.952,0,0,1,.523-1.531c.224-.261.448-.075.784.149a3.559,3.559,0,0,0,.635.448,11.3,11.3,0,0,0,1.195.448,12.958,12.958,0,0,0,1.493.112,11.876,11.876,0,0,0,2.352-.149,9.691,9.691,0,0,1,2.5-.373,10.923,10.923,0,0,0,1.979-.411c.411-.075,1.381-.3,1.829-.336,1.195-.037,1.941-.373,3.36-.448.9-.075.523-.336.9-1.045.149-.3.336-.709.448-.933a6.012,6.012,0,0,1,.784-1.12,12.588,12.588,0,0,0,.709-1.195,11.671,11.671,0,0,1,.747-1.12c.224-.3.635-.709.9-1.008a2.822,2.822,0,0,0,.6-1.307c.149-.523.224-1.045.373-1.531a5.928,5.928,0,0,1,.3-.672c.56-.784,1.269-1.456,1.755-2.277.112-.224.261-.373.373-.56.261-.411.635-.784.6-1.157-.037-.187-.3-1.195.336-1.307a16.447,16.447,0,0,0,2.763-.971c.523-.149.635-.075.635.3-.037.149-.784.635-1.12,1.008-.3.336-.821.9-1.083,1.232a35.6,35.6,0,0,0-1.717,3.285c-.336.709-.373.784-.747,1.493a3.791,3.791,0,0,0-.523,1.717,5,5,0,0,1-.6,1.867c-.3.709-.261,1.531-.523,2.277l-.485.933c-.523.933-.933,1.344.3,1.643a3.966,3.966,0,0,0,1.456.112c.224.037.933-.112,1.568-.149s.971-.112.448-.784c-.261-.3-.6-1.12-.821-1.456-.149-.224-.709-1.531-.709-1.531a11.167,11.167,0,0,1,1.083-2.352,4.793,4.793,0,0,1,.747-.971c.448-.448.3-.709.373-1.083.112-.448.485-1.157.747-1.195A7.234,7.234,0,0,1-246.862,239.134Z" transform="translate(275.615 -231.707)" fill="#fff"/>
      <g id="Group_7681" data-name="Group 7681" transform="translate(39.318 3.805)">
        <path id="Path_7809" data-name="Path 7809" d="M-167.836,242.7c2.389,0,3.1.224,4.107,1.195A4.982,4.982,0,0,1-162.5,247.7c0,2.5-.411,3.547-1.792,4.405,1.605.635,2.165,1.755,2.165,4.629,0,2.389-.261,3.509-1.045,4.405-.859,1.008-2.165,1.419-4.368,1.419H-170.3V242.7Zm.635,8.288c1.605,0,1.941-.523,1.941-3.024,0-2.128-.373-2.651-1.941-2.651h-.373v5.675Zm-.112,9.035c1.941,0,2.352-.6,2.352-3.211s-.411-3.211-2.352-3.211h-.261v6.459h.261Z" transform="translate(170.3 -242.401)" fill="#fff"/>
        <path id="Path_7810" data-name="Path 7810" d="M-137.385,257.058c0,2.389-.075,2.875-.635,3.733a3.934,3.934,0,0,1-3.323,1.643,3.934,3.934,0,0,1-3.323-1.643c-.523-.859-.635-1.381-.635-3.733v-9.819c0-2.352.075-2.875.635-3.733a4,4,0,0,1,3.323-1.605,4,4,0,0,1,3.323,1.605c.523.859.635,1.381.635,3.733Zm-2.763-10.939c0-1.12-.336-1.605-1.157-1.605s-1.157.485-1.157,1.605v12.1c0,1.12.336,1.605,1.157,1.605s1.157-.485,1.157-1.605Z" transform="translate(154.633 -241.9)" fill="#fff"/>
        <path id="Path_7811" data-name="Path 7811" d="M-117.651,242.7c1.941,0,2.837.261,3.659,1.12a4.8,4.8,0,0,1,1.269,3.509v10.715a4.656,4.656,0,0,1-1.269,3.509c-.821.821-1.717,1.12-3.659,1.12H-120.6V242.7Zm.149,17.323c1.531,0,1.979-.448,1.979-2.016V247.292c0-1.531-.485-2.016-1.979-2.016h-.373v14.747Z" transform="translate(139.155 -242.401)" fill="#fff"/>
        <path id="Path_7812" data-name="Path 7812" d="M-93.237,262.636H-96V242.7h2.763Z" transform="translate(123.739 -242.401)" fill="#fff"/>
        <path id="Path_7813" data-name="Path 7813" d="M-78.28,242.7v2.613h-3.957v5.6h2.763v2.613h-2.763v6.533h4.181v2.613H-85V242.7Z" transform="translate(116.846 -242.401)" fill="#fff"/>
        <path id="Path_7814" data-name="Path 7814" d="M-61.575,256.236v.859c0,2.053.373,2.725,1.419,2.725.821,0,1.269-.672,1.269-1.979s-.336-2.091-1.717-3.92l-1.381-2.016c-1.717-2.576-2.277-3.957-2.277-5.712,0-2.613,1.568-4.293,4.107-4.293a3.556,3.556,0,0,1,3.659,2.912,9.314,9.314,0,0,1,.149,2.464l-2.725.261a16.192,16.192,0,0,0-.075-1.792c-.075-.821-.523-1.269-1.157-1.269-.747,0-1.157.672-1.157,1.867,0,1.232.112,1.493,1.979,4.256l1.419,2.016a10.594,10.594,0,0,1,2.016,5.6c0,2.651-1.456,4.144-4.069,4.144a3.808,3.808,0,0,1-3.323-1.531,5.036,5.036,0,0,1-.859-3.472c0-.411,0-.6.037-1.083Z" transform="translate(103.874 -241.9)" fill="#fff"/>
      </g>
      <g id="Group_7682" data-name="Group 7682" transform="translate(46.897 25.422)">
        <path id="Path_7815" data-name="Path 7815" d="M-144.437,300.3h2.576v15.382h-1.829V304.817l-1.792,10.864h-.933l-1.792-10.864v10.864H-150V300.3h2.539l1.531,7.653Z" transform="translate(150 -300.113)" fill="#fff"/>
        <path id="Path_7816" data-name="Path 7816" d="M-119.277,311.486c0,1.829-.075,2.2-.485,2.875a3.065,3.065,0,0,1-2.576,1.269,3.065,3.065,0,0,1-2.576-1.269c-.411-.672-.485-1.045-.485-2.875v-7.579c0-1.829.075-2.2.485-2.875a3.135,3.135,0,0,1,2.576-1.232,3.135,3.135,0,0,1,2.576,1.232c.411.672.485,1.045.485,2.875Zm-2.128-8.475c0-.859-.261-1.232-.9-1.232s-.9.373-.9,1.232v9.333c0,.859.261,1.232.9,1.232s.9-.373.9-1.232Z" transform="translate(134.584 -299.8)" fill="#fff"/>
        <path id="Path_7817" data-name="Path 7817" d="M-106.484,302.316H-108.5V300.3h6.272v2.016h-2.091v13.4h-2.165Z" transform="translate(123.994 -300.113)" fill="#fff"/>
        <path id="Path_7818" data-name="Path 7818" d="M-87.735,315.719H-89.9V300.3h2.165Z" transform="translate(112.338 -300.113)" fill="#fff"/>
        <path id="Path_7819" data-name="Path 7819" d="M-75.277,311.486c0,1.829-.075,2.2-.485,2.875a3.065,3.065,0,0,1-2.576,1.269,3.065,3.065,0,0,1-2.576-1.269c-.411-.672-.485-1.045-.485-2.875v-7.579c0-1.829.075-2.2.485-2.875a3.135,3.135,0,0,1,2.576-1.232,3.135,3.135,0,0,1,2.576,1.232c.411.672.485,1.045.485,2.875Zm-2.165-8.475c0-.859-.261-1.232-.9-1.232s-.9.373-.9,1.232v9.333c0,.859.261,1.232.9,1.232s.9-.373.9-1.232Z" transform="translate(107.011 -299.8)" fill="#fff"/>
        <path id="Path_7820" data-name="Path 7820" d="M-55.931,315.719H-58.1l-2.539-8.1v8.064H-62.8V300.3h1.829l2.837,9.072V300.3h2.165v15.419h.037Z" transform="translate(95.355 -300.113)" fill="#fff"/>
      </g>
      <g id="Group_7683" data-name="Group 7683" transform="translate(39.281 25.683)">
        <path id="Path_7821" data-name="Path 7821" d="M-169.243,308.751H-170.4V300.5h1.157Z" transform="translate(170.4 -300.5)" fill="#fff"/>
        <path id="Path_7822" data-name="Path 7822" d="M-160.941,308.751H-162.1l-1.344-4.331v4.331H-164.6V300.5h1.008l1.531,4.853V300.5h1.157v8.251Z" transform="translate(166.765 -300.5)" fill="#fff"/>
      </g>
    </g>
  </g>
</svg>
