<svg id="Layer_x0020_1" xmlns="http://www.w3.org/2000/svg" width="148" height="53" viewBox="0 0 11780.192 4258.313">
  <path id="Path_30052" data-name="Path 30052" d="M8299.909,2306.845H6755.8c-221.917,0-422.883,96.215-568.758,251.4-145.1,155.186-235.107,369.343-235.107,606H5086c0-491.941,187-936.549,488.837-1258.561C5877.45,1583.676,6294.9,1384.262,6755.8,1384.262H8732.879ZM10754.957,0H9791.25L9358.279,922.583h865.94l1051.387,2241.666h963.707Q11496.748,1581.349,10754.957,0Z" transform="translate(-1139.612)" fill="#fff"/>
  <path id="Path_30053" data-name="Path 30053" d="M10071.9,1784h963.707l-834.9,1779.987H9237Z" transform="translate(-2069.72 -399.738)" fill="#fff" fill-rule="evenodd"/>
  <path id="Path_30054" data-name="Path 30054" d="M14243.756,922.583H13359.97L12927,0h1749.726Z" transform="translate(-2896.532)" fill="#fff" fill-rule="evenodd"/>
  <path id="Path_30055" data-name="Path 30055" d="M9160.727,922.583H6967.943c-318.907,0-629.28,76.817-910.943,221.141,84.576-235.883,214.934-446.937,379.431-622.3C6738.268,199.414,7155.719,0,7617.4,0H9593.7Z" transform="translate(-1357.182)" fill="#fff" fill-rule="evenodd"/>
  <path id="Path_30056" data-name="Path 30056" d="M834.9,3563.987c-221.916,0-433.746-93.888-590.484-260.713C87.68,3135.673,0,2910.653,0,2673.994s87.68-462.455,244.418-629.281C401.157,1877.112,612.986,1784,834.9,1784H4338.233a2240.062,2240.062,0,0,0-208.726,194.759c-395.725,421.331-616.09,989.313-616.09,1585.228Zm269.248-226.572,622.3-1326.843H1924.31l622.3,1326.843H2187.351l-362.36-772.052-361.584,772.052ZM2901.984,2354.31h-661.87l-161.394-343.738h823.263c216.485,0,391.845,187,391.845,417.451,0,175.361-100.871,325.115-244.418,387.19l244.418,522.2H2934.573L2704.122,2846.25H2472.894L2311.5,2501.737h590.484c38.021,0,69.058-32.589,69.058-73.714C2971.042,2387.675,2940,2354.31,2901.984,2354.31Zm-1491.34,0H834.9c-83.025,0-157.514,35.693-211.829,93.888-54.315,57.419-87.68,137.34-87.68,225.8s33.365,167.6,87.68,225.8c54.315,57.419,128.8,93.888,211.829,93.888h275.456L948.964,3337.415H834.9c-172.257,0-327.443-74.49-439.953-194.759-112.51-119.493-182.344-285.543-182.344-468.663s69.834-349.169,182.344-469.439c112.51-119.493,267.7-193.983,439.953-193.983h737.135Z" transform="translate(0 -399.738)" fill="#fff" fill-rule="evenodd"/>
  <g id="Group_14135" data-name="Group 14135" transform="translate(952.068 3447.464)">
    <path id="Path_30057" data-name="Path 30057" d="M1533.493,5018.741h325.115v58.971H1533.493l-28.709-43.452Zm0,58.971c-17.846,0-32.589-13.19-32.589-29.485s14.743-29.485,32.589-29.485ZM1406.24,5197.206l98.543-162.946,58.2,27.934-99.319,162.946-28.709,15.519Zm57.419,27.934c-8.535,14.743-28.709,19.4-45,11.639-15.519-7.759-21.726-25.606-12.415-39.573Zm-203.294-43.452H1434.95v58.971H1260.365l-28.709-44.228Zm0,58.971c-18.622,0-33.365-13.19-33.365-29.485s14.743-29.485,33.365-29.485Zm490.389-753.43-461.679,738.687-57.419-29.485,462.455-737.911L1722.044,4443Zm-56.643-28.709c8.535-14.743,28.709-19.4,44.228-11.639,16.295,8.535,21.726,26.381,12.415,40.348Zm218.813,44.229H1722.044V4443h190.879l32.589,24.83Zm0-59.747c17.846,0,32.589,13.191,32.589,29.485s-14.743,30.262-32.589,30.262Zm100.1,772.828-132.684-737.911,65.178-10.087,131.908,738.687-32.589,34.141Zm64.4-9.311c3.1,16.294-9.311,31.037-27.158,34.141-17.846,2.328-34.917-8.535-37.245-24.83Zm-192.431-24.83h159.842v58.971H1884.99l-31.813-24.83Zm0,58.971c-17.846,0-32.589-13.19-32.589-29.485s14.743-29.485,32.589-29.485Zm6.208-197.086,26.382,162.946-64.4,9.311-27.157-162.946,32.589-34.141Zm-65.178,9.311c-2.328-16.294,10.087-31.813,27.933-34.141s34.141,9.312,37.245,24.83Zm-3.88-429.866,48.884,297.182-65.178,8.535-48.108-297.182,3.1-17.846Zm-64.4,8.535c-3.1-15.519,9.311-31.037,27.157-33.365s34.917,8.535,37.245,24.83Zm-177.688,278.56,180.792-296.406,57.419,27.934L1638.244,4938.82l-28.709,15.519Zm58.195,28.709c-9.311,13.967-28.709,19.4-45,11.639-15.519-7.759-21.726-25.606-13.191-40.349Zm200.19,15.519h-228.9v-59.747h228.9l32.589,25.606Zm0-59.747c17.846,0,32.589,13.967,32.589,30.261s-14.743,29.485-32.589,29.485Zm517.546-415.9L2183.724,5217.38l-63.626-12.415,171.481-737.911L2323.391,4443Zm-64.4-11.639c3.88-16.295,20.95-26.382,38.8-23.278s28.709,19.4,25.606,34.917Zm200.19,35.693H2323.391V4443h168.377l31.813,35.693Zm0-59.747c17.846,0,32.589,13.191,32.589,29.485s-14.743,30.262-32.589,30.262Zm-175.361,638.592,142.771-614.538,64.4,11.639L2380.81,5093.231,2349,5117.285Zm64.4,11.639c-3.88,16.294-20.95,26.382-38.8,23.278-17.846-3.879-28.709-19.4-25.606-34.917Zm384.862,24.054H2349v-59.747h416.675l32.589,35.693Zm0-59.747c18.622,0,33.365,13.19,33.365,29.485,0,17.07-14.743,30.261-33.365,30.261Zm-60.523,147.427,28.709-123.373,64.4,11.639-28.709,124.149-31.813,23.278Zm64.4,12.415c-3.88,15.519-20.95,26.382-38.8,22.5-17.846-3.1-29.485-18.622-25.606-34.917Zm-617.642-35.693h585.828v58.971H2151.91l-31.813-35.693Zm0,58.971c-17.846,0-32.589-13.19-32.589-29.485s14.743-29.485,32.589-29.485Zm902.408-761.965L2882.838,5217.38l-64.4-12.415,171.481-737.911L3021.73,4443Zm-64.4-11.639c3.88-16.295,20.95-26.382,38.8-23.278s29.485,19.4,25.606,34.917Zm200.19,35.693H3021.73V4443h168.377l31.813,35.693Zm0-59.747c17.846,0,32.589,13.191,32.589,29.485s-14.743,30.262-32.589,30.262Zm-174.585,638.592,142.771-614.538,63.626,11.639-142.771,614.538-31.813,24.054Zm63.626,11.639c-3.1,16.294-20.95,26.382-38.8,23.278-17.071-3.879-28.709-19.4-24.83-34.917Zm385.638,24.054H3047.335v-59.747h417.451l31.813,35.693Zm0-59.747c17.846,0,32.589,13.19,32.589,29.485,0,17.07-14.743,30.261-32.589,30.261Zm-61.3,147.427,28.709-123.373,64.4,11.639L3467.89,5217.38l-31.813,23.278Zm64.4,12.415c-3.1,15.519-20.95,26.382-38.8,22.5-17.846-3.1-28.709-18.622-25.606-34.917Zm-617.642-35.693h585.828v58.971H2850.249l-31.813-35.693Zm0,58.971c-17.846,0-32.589-13.19-32.589-29.485s14.743-29.485,32.589-29.485Z" transform="translate(-1227 -4443)" fill="#fff"/>
    <path id="_1" data-name="1" d="M1868.243,5056.741H1543.128l-98.543,162.946H1270L1731.679,4481h190.879l131.908,738.687H1894.625Zm-20.174-123.373-48.884-297.182-180.016,297.182Zm313.476,286.319L2333.026,4481H2501.4l-142.771,614.538h416.675l-27.934,124.149Zm698.338,0L3031.365,4481h168.377L3056.97,5095.538h417.451l-28.709,124.149Z" transform="translate(-1236.635 -4451.515)" fill="#fff"/>
  </g>
  <g id="Group_14136" data-name="Group 14136" transform="translate(3429.618 3434.273)">
    <path id="Path_30058" data-name="Path 30058" d="M4726.493,5014.932h325.115V5073.9H4726.493l-28.709-43.452Zm0,58.971c-17.847,0-32.589-13.191-32.589-29.485s14.743-29.485,32.589-29.485ZM4599.24,5193.4l98.543-162.946,58.195,27.934-99.319,162.946-28.709,15.519Zm57.419,27.934c-8.535,14.742-28.709,19.4-45,11.639-15.519-7.759-21.726-25.605-12.415-39.572Zm-203.294-43.452H4627.95v58.971H4453.365l-28.709-44.229Zm0,58.971c-18.623,0-33.365-13.19-33.365-29.485s14.743-29.485,33.365-29.485Zm490.389-753.43-461.679,738.687-57.419-29.485,462.455-737.911,27.934-15.519Zm-56.643-28.709c8.535-14.743,28.709-19.4,44.228-11.639,15.519,8.535,21.726,26.382,12.415,40.349Zm218.813,44.228H4915.044v-59.747h190.879l32.589,24.83Zm0-59.747c17.847,0,32.589,13.191,32.589,29.485s-14.743,30.261-32.589,30.261Zm99.319,772.828-131.908-737.911,65.178-10.087,131.908,738.688-32.589,34.141Zm65.178-9.311c3.1,16.294-9.311,31.037-27.158,34.141-17.846,2.328-34.917-8.535-38.021-24.83Zm-192.431-24.83h159.842v58.971H5077.99l-31.813-24.83Zm0,58.971c-17.847,0-32.589-13.19-32.589-29.485s14.743-29.485,32.589-29.485Zm6.208-197.087,26.381,162.946-64.4,9.311-27.157-162.945,32.589-34.141Zm-65.178,9.312c-2.328-16.295,10.087-31.813,27.933-34.141s34.141,9.311,37.245,24.83Zm-3.88-429.866,48.884,297.182-65.178,8.535-48.884-297.182,3.879-17.847Zm-65.178,8.535c-2.328-15.519,10.087-31.037,27.934-33.365s34.917,8.535,37.245,24.83ZM4773.049,4906.3,4953.841,4609.9l57.419,27.934-180.016,297.182-29.485,15.519Zm58.195,28.709c-9.311,13.967-28.709,19.4-45,11.639-15.519-7.76-21.726-25.606-13.191-40.349Zm200.19,15.519H4801.758v-59.747h229.676l32.589,25.605Zm0-59.747c17.847,0,32.589,13.967,32.589,30.261s-14.743,29.485-32.589,29.485Zm656.438-391.846h-167.6v-59.747h167.6l31.813,36.469Zm0-59.747c17.847,0,32.589,13.191,32.589,29.485s-14.743,30.261-32.589,30.261ZM5558.292,4864.4l96.992-401.933,64.4,13.191-96.992,401.157h0Zm64.4,12.415c-3.879,16.294-21.726,26.382-39.572,22.5-17.071-3.1-28.709-18.622-24.83-34.917Zm-89.232,85.353,24.83-97.768,64.4,12.415-24.83,98.543-64.4-10.863Zm64.4,13.19c-3.88,16.295-21.726,26.382-39.573,22.5-17.07-3.879-28.709-19.4-24.83-35.692Zm-4.656,25.606H5528.03v-5.431l.776-1.552v-3.1l.776-1.552v-3.1l.776-.776v-4.656l.776-.776v-3.1l.776-.775v-4.656l.776-.776v-3.1l.776-1.552V4964.5l65.178,8.535-.776.776v4.656l-.776.776v3.88l-.776.775v3.88l-.776.776v3.1l-.776,1.552v3.1l-.776,1.552v3.1l-.776,1.552v-1.552Zm0,4.656c-3.1,16.294-20.174,27.157-38.021,24.83s-30.261-17.846-27.158-34.141Zm25.606,38.8-39.573,47.332v-.775l-3.1-1.552-3.1-2.328-2.328-2.328-3.1-2.327-2.328-2.328-3.1-2.328-2.328-2.328-2.328-2.328-2.328-2.328-2.328-2.328-2.328-3.1-2.328-2.328-1.552-3.1-2.328-2.328-1.552-3.1-1.552-3.1-1.552-2.328-1.552-3.1-1.552-3.1-1.552-3.1-.776-3.1-1.552-3.1-.776-3.1-.776-3.1-.776-3.1-.776-3.1-.776-3.1v-3.88l-.776-3.1v-10.087h65.178v5.432l.776,1.552v3.1l.776,1.552v.776l.776,1.552v1.552l.776,1.552v1.552l.776.776.776,1.552.776,1.552.776.776.776,1.552.776.776.776,1.552.776,1.552.776.776,1.552,1.552.776.775,1.552,1.552.776,1.552,1.552.776,1.552,1.552.776.776,1.552,1.552,2.328,1.552,1.552.776,1.552,1.552Zm0,0c14.743,9.311,17.07,27.934,6.208,41.125s-31.038,15.519-45.78,5.432Zm92.336,20.174v58.971h-14.743l-4.655-.775h-9.311l-4.656-.776-4.656-.776h-4.655l-4.656-.775-4.656-.776-3.879-.775h-4.656l-3.879-.776-4.656-1.552-3.88-.775-3.879-.776-4.656-.776-3.879-1.552-3.88-.775-3.879-1.552-3.88-1.552-3.88-1.553-3.879-1.552-3.1-1.552-3.88-1.552-3.1-1.552-3.88-1.552-3.1-2.328-3.88-1.552-3.1-2.328-3.1-1.552,39.573-47.332,1.552.776,1.552,1.552,2.328.776,1.552.775,2.328,1.552,1.552.776,2.328.776,2.328.776,2.328.776,2.328,1.552,2.328.775,2.328.776,2.328.776,3.1.776,2.328.776,3.1.776h3.1l3.1.776,3.1.775,3.1.776h3.1l3.1.775h3.88l3.1.776h3.88l3.1.776h11.639l3.879.776h8.536Zm93.888-17.847,30.261,52.764h.776l-3.88,1.552-3.1.776-3.1,1.552-3.879,1.552-3.1,1.552-3.88,1.552-3.1.776-3.88,1.552-3.88.775-3.1.776-3.879,1.552-3.88.775-3.88.776-3.879.776-3.88.775-3.879.776-3.88.775-3.879.776-3.88.775-3.879.776h-3.88l-4.656.775-3.879.776h-8.535l-3.88.776H5729l-4.656.775h-13.19v-58.971h10.863l3.88-.776h10.087l3.88-.776h3.1l3.1-.776h3.1l3.1-.775h3.1l3.1-.776h3.1l3.1-.775,3.1-.776,2.328-.776h3.1l2.328-.776,3.1-.776,2.328-.776,3.1-.776,2.328-.775,2.328-.776,2.328-.775,2.328-.776,2.328-1.552,2.328-.776,2.328-.776,2.328-.776,2.328-1.552Zm0,0c15.519-6.983,35.693-2.328,44.228,12.415,8.535,13.967,2.328,32.589-13.191,40.349Zm52.763-48.884L5916,5025.02h0l-1.552,3.1-1.552,3.1-2.328,3.1-1.552,2.328-2.328,3.1-1.552,3.1-2.328,2.328-2.328,3.1-1.552,2.328-2.328,2.328-2.328,3.1-2.328,2.328-2.328,2.328-2.328,2.328-3.1,2.328-2.328,2.328-2.328,2.328-2.328,2.328-3.1,2.328-2.328,2.328-3.1,2.328-2.328,1.552-3.1,2.328-3.1,2.328-3.1,1.552-2.328,1.552-3.1,2.328-3.1,1.552-3.1,1.552-3.1,1.552-3.1,2.328-3.879,1.552-30.261-52.764,2.328-.775,1.552-.776,2.328-1.552,2.328-.776,1.552-1.552,2.328-.775,1.552-1.552,2.328-.776,1.552-1.552,1.552-1.552,2.328-1.552,1.552-.776,1.552-1.552,1.552-1.552,2.328-1.552,1.552-1.552,1.552-1.552,1.552-1.552,1.552-1.552,1.552-1.552,1.552-1.552,1.552-1.552,1.552-2.328,1.552-1.552.776-1.552,1.552-2.327,1.552-1.552,1.552-2.328,1.552-1.552.776-2.328,1.552-1.552.776-2.328Zm0,0c8.535-14.742,28.709-20.174,44.228-12.415,16.294,7.759,22.5,25.606,13.967,39.573Zm45-131.132,64.4,11.639v.776l-1.552,6.208-1.552,6.208-1.552,5.431L5961,4903.2l-1.552,5.431-1.552,5.432-1.552,6.208-1.552,5.432-1.552,4.655-1.552,5.432-1.552,5.432-1.552,4.655-1.552,5.432-1.552,4.656-1.552,4.656-1.552,4.655-1.552,4.656-1.552,3.879-1.552,4.656-1.552,3.879-1.552,3.88-1.552,3.88-1.552,4.655-1.552,3.1-2.328,3.88-1.552,3.88-1.552,3.1-1.552,3.88-1.552,3.1-1.552,3.1-1.552,3.1-2.328,3.1-58.195-27.158,1.552-2.327.776-2.328,1.552-2.328,1.552-2.327.776-3.1,1.552-2.328,1.552-3.1,1.552-3.1.776-3.1,1.552-3.879,1.552-3.1,1.552-3.879,1.552-3.1.776-3.879,1.552-4.656,1.552-3.88,1.552-3.879,1.552-4.656,1.552-4.655.776-3.88,1.552-4.655,1.552-5.432,1.552-4.656,1.552-4.656,1.552-5.431,1.552-5.432,1.552-5.431,1.552-5.432.776-5.432,1.552-6.208,1.552-5.432,1.552-6.208Zm0-.776c3.88-15.519,21.726-25.605,39.573-22.5,17.846,3.88,28.709,19.4,24.83,35.693Zm158.29-391.069-93.888,403.484-64.4-11.639,93.888-403.484,31.813-24.054Zm-64.4-11.639c3.88-16.295,20.95-26.382,38.8-23.278s29.485,19.4,25.605,34.917Zm200.19,35.692H6028.506v-59.747h168.377l31.813,35.693Zm0-59.747c17.847,0,32.589,13.191,32.589,29.485s-14.743,30.261-32.589,30.261Zm-128.8,442.281,96.992-418.227,63.626,11.639-96.992,418.227v.776Zm63.626,11.639c-3.1,16.294-20.95,26.381-38.8,23.278-17.847-3.879-28.709-19.4-24.83-34.917Zm-73.713,195.535-57.419-28.709h0l2.328-3.1,2.328-3.879,2.328-4.656,2.328-3.879,2.328-3.879,1.552-4.656,2.328-4.656,2.328-4.655,2.328-4.656,2.328-4.656,2.328-4.655,1.552-5.432,2.328-5.432,2.328-4.655,2.328-5.432,1.552-6.208,2.328-5.432,2.328-5.431,2.328-6.208,1.552-6.207,2.328-6.208,2.328-6.208,1.552-6.208,2.328-6.208,1.552-6.983,2.328-6.983,1.552-6.983,2.328-6.983,1.552-6.983,2.328-6.983,1.552-6.983,2.328-7.759,63.626,13.19-1.552,7.76-2.328,7.759-1.552,6.983-2.328,7.76-2.328,6.983-1.552,7.759-2.328,6.983-2.328,6.983-1.552,6.983-2.328,6.208-2.328,6.983-2.328,6.208-2.328,6.983-2.328,6.208-2.328,6.208-1.552,6.207-2.328,6.208-2.328,5.431-2.328,6.208-3.1,5.432-2.328,5.432-2.328,5.432-2.328,5.431-2.328,5.432-2.328,5.431-3.1,4.656-2.328,5.431-2.328,4.656-3.1,4.655-2.328,4.656-2.328,4.656-3.1,4.655Zm0,0c-8.535,14.743-28.709,19.4-44.228,11.639-16.295-7.759-21.726-25.605-13.191-40.348Zm-133.46,117.166-32.589-51.212h0l4.655-2.327,4.656-3.1,4.656-2.327,4.655-2.328,3.88-2.328,3.879-2.327,4.656-3.1,3.88-2.327,3.879-3.1,3.88-2.328,3.879-3.1,3.88-2.328,3.1-3.1,3.88-2.328,3.1-3.1,3.88-3.1,3.1-3.1,3.1-2.328,3.1-3.1,3.1-3.1,3.1-3.1,3.1-3.1,3.1-3.1,2.328-3.88,3.1-3.1,2.328-3.1,3.1-3.1,2.328-3.88,2.328-3.1,2.328-3.88,2.328-3.1,2.328-3.879,57.419,28.709-3.1,4.655-2.328,4.656-3.1,3.88-3.1,4.655-3.1,4.655-3.88,3.88-3.1,4.655-3.1,3.88-3.879,3.88-3.88,3.88-3.879,3.879-3.88,3.88-3.879,3.88-3.88,3.88L6006,5150.72l-3.88,3.88-4.656,3.88-3.879,3.1-4.656,3.88-4.655,3.1-4.656,3.88-4.656,3.1-4.655,3.1-4.656,3.1-4.656,3.1-5.431,3.1-4.656,3.1-5.432,3.1-5.432,3.1-4.655,3.1-5.432,2.328-5.432,3.1Zm-221.141,44.228v-58.971h21.726l6.983-.775h6.983l6.983-.776h6.983l6.208-.775,6.983-.776,6.208-.776,6.208-.775,6.208-.776,6.208-.775,6.208-.776,6.207-1.552,6.208-.775,5.432-1.553,6.208-.775,5.432-1.552,5.431-1.552,5.432-1.552,5.432-1.552,5.432-1.553,5.431-1.552,4.656-1.552,5.432-2.327,4.655-1.553,5.432-2.327,4.656-1.552,4.655-2.328,4.656-2.328,3.88-1.552,32.589,51.212-6.208,3.1-5.431,2.328-6.208,2.327-5.432,3.1-6.208,2.327-6.208,2.328-6.208,2.328-6.207,1.552-6.208,2.327-6.208,2.328-6.983,1.552-6.208,1.552-6.983,1.552-6.208,2.328-6.983.775-6.983,1.553-6.983,1.552-6.983,1.552-6.983.775-6.983.776-7.759,1.552-6.983.776-7.759.775-6.983.776-7.759.775h-7.759l-7.759.776H5735.2l-7.759.775h-24.054Zm-248.3-70.609,43.452-44.229h0l3.879,3.1,4.656,3.879,4.656,3.1,4.655,3.1,4.656,2.327,4.656,3.1,5.431,3.1,4.656,2.328,5.432,2.327,5.432,2.328,5.431,2.328,6.208,2.327,5.432,2.328,6.208,2.328,6.208,1.552,6.208,1.552,6.207,2.327,6.983,1.552,6.983,1.553,6.208,1.552,6.983.775,7.759,1.552,6.983.776,7.759.775,7.759,1.553h7.76l7.759.775,7.759.776,8.535.775h25.605v58.971h-28.709l-9.311-.775-9.311-.776-8.535-.775-9.312-.776-8.535-.775-9.311-1.553-8.535-.775-8.535-1.552-7.76-1.552-8.535-1.552-8.535-2.328-7.759-1.552-7.759-2.328-7.759-2.327-7.759-2.328-6.983-2.328-7.759-3.1-6.983-2.328-7.759-3.1-6.983-3.1-6.208-3.1-6.983-3.88-6.208-3.1-6.983-3.88-6.208-3.88-6.208-3.88-6.208-4.655-5.431-3.88-5.432-4.655Zm0,0c-13.967-10.863-14.743-29.485-3.1-41.9,12.415-12.415,33.365-13.19,46.556-2.328Zm-90.008-186.224,65.955,2.328v15.519l.776,4.655.776,5.432.776,5.432.776,4.655.776,4.656,1.552,5.431.776,4.656,1.552,4.655,1.552,4.655,1.552,4.656,1.552,4.655,2.328,3.88,1.552,4.655,2.328,4.656,2.328,3.879,2.328,3.88,3.1,4.655,2.328,3.88,3.1,3.88,2.328,3.88,3.1,3.879,3.879,3.88,3.1,3.88,3.1,3.88,3.88,3.879,3.879,3.1,3.88,3.879,3.879,3.88,4.656,3.1-43.452,44.229-5.432-4.655-5.432-4.656-5.431-4.655-4.656-4.655-4.656-4.656-4.655-5.432-4.656-4.655-4.656-5.432-3.879-4.655-3.88-5.432-3.879-5.432-3.88-5.432-3.1-6.207-3.1-5.432-3.1-5.432-3.1-6.207-3.1-5.432-2.328-6.208-2.328-6.207-2.328-6.208-1.552-6.208-2.328-6.207-1.552-6.208-1.552-6.207-1.552-6.208-.776-6.983-.776-6.207-.776-6.983-.776-6.208-.776-6.983v-14.743Zm0,1.552c0-16.294,14.743-30.261,32.589-30.261,18.623,0,33.365,13.967,33.365,30.261Zm6.208-48.884,64.4,8.535h0v3.1l-.776,1.552v2.328l-.776,1.552v3.879l-.776,1.552v3.88l-.776,1.552v3.88l-.776,1.552v6.208l-.776.776v9.312l-65.955-2.328v-4.655l.776-1.552v-6.983l.776-1.552v-5.432l.776-1.552v-4.656l.776-1.552v-4.655l.776-1.552v-3.1l.776-1.552v-3.1l.776-1.552v-3.1l.776-1.552Zm0-.775c2.328-16.295,19.4-27.158,37.245-24.054,17.847,2.328,30.262,17.071,27.158,33.365Zm20.174-93.112,64.4,12.415h0l-1.552,4.655-.776,4.656-.776,4.655-1.552,3.88-.776,3.879-.776,4.656-.776,3.88-.776,3.879-.776,3.1-.776,3.879-.776,3.879-.776,3.1-.776,3.1-.776,3.1-.776,3.1-.776,3.1-.776,2.328v3.1l-.776,2.328-.776,2.328v2.328l-.776,2.328-.776,1.552v2.328l-.776,1.552v3.1l-.776,1.552v2.328l-.776,1.552v.775l-64.4-8.535v-3.1l.776-1.552v-3.1l.776-1.552v-1.552l.776-2.328v-1.552l.776-2.328v-2.328l.776-2.327.776-2.328.776-3.1v-2.328l.776-3.1.776-3.1.776-3.1.776-3.1.776-3.1.776-3.88.776-3.1.776-3.88.776-3.879.776-3.879.776-3.88.776-3.88,1.552-4.655.776-3.88.776-4.655,1.552-4.656.776-4.656Zm0,0c3.88-15.519,20.95-25.605,38.8-22.5s29.486,18.623,25.606,34.917Zm160.618-376.327L5455.869,4864.4l-64.4-12.415,96.215-389.518,32.589-23.278Zm-64.4-13.191c3.88-15.519,21.726-25.605,39.573-22.5,17.846,3.88,28.709,19.4,24.83,35.693ZM6354.4,5177.878h168.377v58.971H6354.4l-32.589-35.693Zm0,58.971c-18.623,0-33.365-13.19-33.365-29.485s14.743-29.485,33.365-29.485Zm174.584-637.816L6386.21,5213.57l-64.4-12.415,142.771-614.537,32.589-23.278Zm-64.4-12.415c3.88-15.519,20.95-26.382,38.8-22.5,17.846,3.1,29.485,18.622,25.605,34.917Zm-207.95-23.278h240.539v58.971H6256.63l-32.589-35.692Zm0,58.971c-17.846,0-32.589-13.19-32.589-29.485s14.743-29.485,32.589-29.485Zm59.747-147.427-27.934,123.373-64.4-11.639,27.934-123.373,31.813-24.054Zm-64.4-11.639c3.1-16.295,20.95-26.382,38.8-23.278,17.071,3.1,28.709,18.622,25.606,34.917Zm676.612,35.692h-644.8v-59.747h644.8l32.589,35.693Zm0-59.747c18.622,0,33.365,13.191,33.365,29.485s-14.743,30.261-33.365,30.261Zm-58.971,147.427,27.157-123.373,64.4,11.639-27.157,123.373-32.589,24.054Zm64.4,11.639c-3.88,16.295-20.95,26.382-38.8,23.278s-29.485-18.623-25.605-34.917Zm-268.473-34.917h235.883v58.971H6665.546l-32.589-35.692Zm0,58.971c-18.622,0-33.365-13.19-33.365-29.485s14.743-29.485,33.365-29.485Zm-175.36,578.845,142.771-614.537,64.4,12.415L6554.588,5213.57l-31.813,23.278Zm64.4,12.415c-3.88,15.519-20.95,26.382-38.8,22.5-17.846-3.1-29.485-18.622-25.605-34.917Zm332.1-441.5,63.626,14.743h0l-1.552,4.655-.776,3.88-1.552,4.655-.776,4.656-1.552,3.879-.776,4.656-1.552,3.879-.776,3.88-.776,4.655-.776,3.88-.776,4.656-.776,3.879-.776,3.88-.776,4.655-.776,3.88-.776,3.88-.776,3.879-.776,4.656v3.88l-.776,3.879-.776,3.879v3.88l-.776,3.88v8.535l-.776,3.88v7.759l-.776,3.88v11.639h-65.178v-22.5l.776-4.655v-3.88l.776-4.655v-4.656l.776-4.656v-3.88l.776-4.655.776-4.655v-4.656l.776-4.656.776-4.655.776-3.88.776-4.655.776-4.656.776-4.655.776-4.655,1.552-4.656.776-4.655.776-4.655,1.552-4.656.776-4.656,1.552-4.655.776-4.656,1.552-4.656,1.552-4.655.776-4.656,1.552-4.656Zm0,0c4.656-16.294,22.5-25.605,40.349-20.95,17.846,3.88,27.934,20.174,23.278,35.693Zm92.336-179.24,52.763,34.917h0l-3.1,4.656-3.88,3.879-3.1,4.656-3.1,3.879-3.1,4.656-3.1,4.656-3.1,3.88-3.1,4.655-3.1,4.655-2.328,4.656-3.1,4.655-3.1,4.655-2.328,4.656-3.1,5.431-2.328,4.656-2.328,4.655-2.328,5.432-3.1,4.655-2.328,5.432-2.328,4.656-2.328,5.432-2.328,5.431-2.328,5.432-1.552,5.432-2.328,5.432-2.328,5.432-1.552,5.432-2.328,5.431-1.552,5.432-2.328,5.431-1.552,6.208-1.552,5.432-63.626-14.743,2.328-6.207,1.552-6.983,2.328-6.208,1.552-6.207,2.328-6.208,2.328-5.432,2.328-6.208,2.328-6.207,2.328-6.208,2.328-5.432,2.328-6.207,3.1-5.432,2.328-6.208,3.1-5.431,2.328-5.432,3.1-6.208,3.1-5.432,3.1-5.431,3.1-5.432,3.1-5.432,3.1-5.432,3.1-5.432,3.1-5.432,3.1-4.655,3.879-5.432,3.1-5.432,3.879-4.655,3.1-5.432,3.879-4.655,3.88-4.656,3.879-5.431,3.88-4.656ZM7137.313,4471l30.261,52.764v-.776l-4.656,3.1-5.431,2.328-4.656,2.328-5.432,3.1-4.655,2.328-4.656,2.328-4.656,3.1-4.655,3.1-5.432,2.328-3.88,3.1-4.655,3.1-4.656,3.1-4.656,3.1-3.879,3.1-4.656,3.1-4.655,3.1-3.88,3.1-3.879,3.88-4.656,3.1-3.88,3.1-3.879,3.879-3.88,3.1-3.879,3.879-3.88,3.88-3.879,3.88-3.88,3.879-3.1,3.1-3.88,3.879-3.879,4.656-3.1,3.879-3.879,3.879-3.1,3.88-52.763-34.917,3.879-4.655,3.88-4.656,3.879-4.656,4.656-4.655,3.88-4.656,4.655-4.656,3.88-3.879,4.655-4.656,4.656-3.88,4.656-4.655,4.655-3.88,4.656-4.655,4.656-3.88,4.655-3.879,4.656-3.88,5.432-3.879,4.655-3.88,5.432-3.1,4.656-3.88,5.432-3.88,5.431-3.1,4.656-3.88,5.432-3.1,5.431-3.88,5.432-3.1,6.208-3.1,5.432-3.1,5.432-3.1,5.431-3.1,6.208-3.1,5.432-2.328,6.208-3.1Zm0,0c16.294-7.759,35.693-2.328,44.228,12.415s2.328,32.589-13.967,39.572Zm217.261-45v58.971h-13.191l-6.208.776h-13.19l-6.208.775-6.208.776h-6.208l-6.208.775-6.208.776-6.208.776-6.207.776-6.208.776-5.432,1.552-6.208.775-6.208,1.552-5.432.776-5.431,1.552-6.208,1.552-5.432,1.552-5.432,1.552-6.208,1.552-5.431,1.552-5.432,1.552-5.432,1.552-5.432,2.328-4.655,1.552-5.432,2.328-5.432,2.328-5.432,2.328-4.655,2.328-5.432,2.328L7137.313,4471l6.208-3.1,6.208-2.328,6.207-2.327,6.208-3.1,6.208-2.328,6.208-2.328,6.208-2.328,6.208-1.552,6.983-2.327,6.208-2.328,6.207-1.552,6.983-1.552,6.983-2.328,6.208-1.552,6.983-1.552,6.983-1.552,6.208-.776,6.983-1.552,6.983-.776,6.983-1.552,6.983-.776,6.983-.776,6.983-.776,7.759-.776,6.983-.775,6.983-.776h7.759l6.983-.776h6.983l7.759-.776h14.743Zm269.249,93.888-47.332,41.9h0l-4.656-4.655-5.431-4.656-5.432-4.655-6.208-3.88-5.432-4.655-5.432-3.88-6.207-3.879-6.208-3.1-5.432-3.879-6.208-3.1-6.208-3.1-6.983-3.1-6.208-3.1-6.983-2.328-6.207-3.1-6.983-2.328-6.983-2.328-6.983-2.327-6.983-1.552-7.759-2.328-6.983-1.552-7.759-1.552-7.76-1.552-7.759-.776-7.759-1.552-7.759-.776-8.535-.775-7.759-.776-8.535-.775h-8.535l-8.536-.776h-9.311V4426h10.087l10.087.776h10.087l9.312.776,10.087.776,9.311.775,10.087,1.552,9.311,1.552,9.311.776,8.535,2.328,9.312,1.552,9.311,2.328,8.535,2.328,8.535,2.328,9.312,2.328,8.535,3.1,7.759,3.1,8.535,3.1,8.535,3.88,7.759,3.1,7.76,3.88,7.759,3.88,7.759,4.655,7.759,3.88,6.983,4.655,7.759,4.655,6.983,4.656,6.983,5.431,6.983,5.432,6.983,5.431,6.208,5.432,6.983,5.432Zm102.423,246.746h-65.178v-7.759l-.776-8.536v-7.759l-.776-7.759-.776-7.759-.776-7.759-.776-6.983-1.552-7.759-1.552-6.983-1.552-6.983-1.552-6.983-2.328-6.983-1.552-6.983-2.328-6.208-2.328-6.983-3.1-6.208-2.328-6.207-3.1-6.208-3.1-6.207-3.1-6.208-3.1-5.432-3.88-6.208-3.1-5.432-3.88-5.432-3.879-5.431-4.656-5.432-3.88-5.431-4.655-5.432-4.656-4.656-4.656-5.431-5.431-4.656-5.432-4.655,47.332-41.9,6.207,6.208,6.208,6.208,5.432,6.208,6.208,6.208,5.432,6.207,5.431,6.983,5.432,6.208,4.656,6.983,4.655,6.983,4.656,6.983,4.656,6.983,3.879,7.759,3.88,6.983,3.879,7.76,3.1,7.759,3.879,6.983,3.1,8.535,2.328,7.76,3.1,7.759,2.328,8.536,2.328,7.759,2.328,8.535,1.552,8.535,1.552,8.535,1.552,8.535,1.552,8.536.776,9.311.776,8.535.776,9.312.776,8.535v18.622ZM7662.618,5006.4l-58.971-26.382h0l3.879-6.208,3.1-6.983,3.1-6.207,3.1-6.983,3.1-6.208,3.1-6.207,3.1-6.983,2.328-6.208,3.1-6.983,2.328-6.208,2.328-6.983,2.328-6.207,2.328-6.983,2.328-6.208,1.552-6.983,2.328-6.207,1.552-6.983,1.552-6.208,1.552-6.983,1.552-6.983.776-6.208,1.552-6.983.776-6.983.776-6.208.776-6.983.776-6.983.776-6.983.776-6.208v-6.983l.776-6.983v-13.967h65.178v23.278l-.776,7.759-.776,7.759v7.759l-.776,7.759-1.552,7.759-.776,6.983-1.552,7.759-.776,7.759-1.552,7.759-1.552,6.983-1.552,7.76-2.328,7.759-1.552,7.76-2.328,6.983-2.328,7.759-2.328,6.983-2.328,7.76-2.328,7.759-3.1,6.983-2.328,7.76-3.1,6.983-3.1,7.759-3.1,6.983-3.88,6.983-3.1,7.759-3.88,6.983-3.1,6.983-3.88,7.759-3.879,6.983Zm0,0c-8.535,14.743-27.934,20.174-44.228,13.191s-22.5-24.83-14.743-39.573ZM7484.93,5187.188l-34.917-50.436h0l6.208-3.1,5.432-3.88,6.208-3.879,5.432-3.1,6.207-3.88,5.432-3.88,5.432-4.655,5.432-3.88,5.431-3.88,5.432-4.655,4.656-3.88,5.432-4.655,5.431-4.656,4.656-4.655,4.656-4.655,5.431-4.656,4.656-5.432,4.656-4.656,4.655-5.432,3.88-4.655,4.656-5.432,4.655-5.432,3.88-5.432,4.655-6.207,3.88-5.432,4.656-5.432,3.879-6.207,3.88-6.208,3.879-6.207,3.88-6.208,3.1-6.208,3.88-6.208,58.971,26.382-4.656,6.983-3.879,6.983-3.88,6.983-4.655,6.983-4.656,6.983-4.656,6.983-4.655,6.208-4.656,6.983-4.656,6.207-4.655,6.208-5.432,6.208-4.656,6.208-5.431,6.208-5.432,5.432-5.432,6.207-5.432,5.432-5.432,5.432-6.207,5.432-5.432,5.432-6.208,5.432-5.432,5.431-6.208,4.656-6.207,5.432-6.208,4.655-6.208,4.655-6.983,4.656-6.208,4.655-6.983,4.655-6.208,4.656-6.983,3.879-6.983,3.88-6.983,4.655ZM7231.2,5250.039v-58.971h23.278l6.983-.775,7.759-.776h7.759l6.983-.775,6.983-.776,7.759-.776,6.983-1.552,6.983-.775,6.983-1.552,6.983-.776,6.983-1.552,6.983-1.552,6.983-1.552,6.983-2.328,6.208-1.552,6.983-2.328,6.983-1.552,6.208-2.327,6.208-2.328,6.983-2.328,6.207-2.327,6.208-3.1,6.208-2.327,6.983-3.1,6.208-2.328,6.208-3.1,5.432-3.1,6.207-3.879,6.208-3.1,34.917,50.436-6.983,3.88-6.983,3.1-6.983,3.88-7.759,3.88-6.983,3.1-7.759,3.1-6.983,3.1-7.759,3.1-6.983,3.1-7.759,3.1-7.759,2.328-7.759,2.328-7.759,3.1-7.759,2.328-7.759,1.552-7.759,2.327-8.536,1.552-7.759,2.328-7.759,1.552-8.535,1.552-8.535,1.552-7.759.776-8.535,1.552-8.536.776-7.759.775-8.535.776-8.535.775-8.535.776-8.535.775H7231.2Zm-210.277-51.987,36.469-48.884h0l4.655,2.328,3.88,3.1,4.656,2.328,4.655,2.328,4.656,2.327,4.656,1.552,4.655,2.328,4.656,2.328,4.655,1.552,4.656,1.552,5.432,2.328,4.656,1.552,5.431,1.552,5.432,1.552,5.432,1.552,5.432.775,5.431,1.553,5.432,1.552,5.432.775,5.432.776,6.207,1.552,5.432.775,6.208.776,6.208.776,5.432.775h6.208l6.207.776h6.208l6.983.775h19.4v58.971h-22.5l-7.759-.775h-6.983l-6.983-.776-7.759-.775-6.983-.776-6.983-.775-6.983-.776-6.983-.776-6.983-1.552-6.983-1.552-6.208-.775-6.983-1.552-6.983-1.553-6.208-1.552-6.208-2.327-6.983-1.552-6.208-2.328-6.207-1.552-6.208-2.328-6.208-2.327-6.208-2.328L7060.5,5219l-5.432-3.1-6.207-2.328-5.432-3.1-6.208-3.1-5.432-2.328-5.432-3.1-5.431-3.88Zm0,0c-14.743-8.535-19.4-27.157-9.312-40.349,10.087-13.967,31.038-17.846,45.78-8.535Zm-121.821-128.8,60.522-23.277h0l1.552,3.879,1.552,3.879,2.328,3.88,2.328,3.88,1.552,3.1,2.328,3.88,2.328,3.1,2.328,3.88,2.328,3.1,3.1,3.88,2.328,3.1,2.328,3.88,3.1,3.1,3.1,3.1,2.328,3.1,3.1,3.1,3.1,3.879,3.1,3.1,3.1,3.1,3.879,3.1,3.1,3.1,3.879,2.328,3.1,3.1,3.879,3.1,3.88,3.1,3.879,3.1,3.88,2.327,3.879,3.1,3.88,3.1,4.656,2.327,3.879,3.1,4.656,2.327-36.469,48.884-5.432-3.1-4.656-3.1-5.431-3.1-4.656-3.88-5.432-3.1-4.656-3.1-4.655-3.879-4.656-3.88-4.655-3.1-3.88-3.88-4.656-3.88-3.879-3.88-4.656-3.879-3.879-3.88-3.88-3.88-3.879-3.88-3.88-3.88-3.88-4.655-3.1-3.88-3.88-4.655-3.1-3.88-3.879-4.655-3.1-3.88-3.1-4.655-3.1-4.655-2.328-4.656-3.1-4.655-3.1-4.655-2.328-4.656-2.328-4.655-2.328-4.656-2.328-4.656Zm-34.917-151.307h65.178v7.76l.776,3.879v7.759l.776,4.656v3.879l.776,3.88v3.88l.776,3.879.776,4.656.776,3.879.776,3.88.776,3.879.776,3.88.776,3.88.776,4.655.776,3.88,1.552,3.879.776,3.879,1.552,3.88.776,4.656,1.552,3.879,1.552,3.88,1.552,3.88,1.552,3.879,1.552,3.879,1.552,4.656,1.552,3.879,1.552,3.88,1.552,3.88,2.328,3.88-60.522,23.277-2.328-4.655-2.328-4.655-1.552-4.656-2.328-4.655-1.552-4.655-1.552-4.656-2.328-4.655-1.552-4.655-1.552-4.656-1.552-4.655-1.552-5.432-1.552-4.655-.776-4.656-1.552-4.656-1.552-4.655-.776-4.656-.776-4.656-1.552-4.655-.776-4.656-.776-5.431-.776-4.656-.776-4.656-.776-4.655v-4.656l-.776-4.656-.776-4.655v-5.432l-.776-4.656V4917.94Zm275.456,104.751-48.884,39.572h0l-3.879-3.879L7083,5054.5l-3.1-3.88-3.1-3.88-3.1-3.879-3.1-3.879-3.1-4.656-3.1-3.879-2.328-4.656-3.1-3.879-2.328-4.656-2.328-3.879-2.328-4.656-2.328-4.655-2.328-4.656-1.552-4.656-1.552-4.655-2.328-4.656-1.552-4.656-.776-4.655-1.552-5.432-1.552-4.656-.776-4.656-.776-5.431-1.552-4.656-.776-5.432v-4.655l-.776-5.432v-5.432l-.776-5.432v-10.087h65.178v3.88l.776,3.879v8.536l.776,3.879v3.879l.776,3.88.776,3.88.776,3.879.776,3.1.776,3.879.776,3.879,1.552,3.1.776,3.1,1.552,3.879.776,3.1,1.552,3.1,1.552,3.88,1.552,3.1,1.552,3.1,1.552,3.1,2.328,3.1,1.552,3.1,2.328,3.1,1.552,2.328,2.328,3.1,2.328,3.1,2.328,3.1,2.328,2.328,2.328,3.1,2.328,2.328,3.1,3.1Zm0,0c11.639,12.415,10.863,31.037-3.1,41.9-13.191,10.863-34.141,9.311-45.78-2.328Zm110.183,41.9v58.971h-11.639l-5.432-.775h-6.208l-5.431-.776-5.432-.776-6.208-.775-5.432-.776-5.432-.775-5.431-1.552-5.432-.776-5.432-1.552-5.432-1.552-4.655-1.552-5.432-1.552-5.432-2.328-4.655-1.552-4.656-2.328-5.432-2.327-4.655-2.328-4.656-2.328-4.656-3.1-4.655-2.328-4.656-3.1-3.88-3.1-4.655-2.328-4.656-3.879-3.879-3.1-3.88-3.1-3.88-3.88-3.879-3.1-3.88-3.88,48.884-39.572,2.328,2.328,3.1,3.1,2.328,2.328,3.1,2.328,2.328,2.328,3.1,1.552,3.1,2.328,3.1,2.327,3.1,1.552,3.1,1.552,2.328,2.328,3.879,1.552,3.1,1.552,3.1,1.552,3.1.776,3.1,1.552,3.879,1.552,3.1.776,3.879,1.552,3.1.776,3.879.776,3.88.776,3.879.775,3.88.776,3.879.775,3.88.776h3.879l4.656.776h3.88l4.655.776h8.536Zm111.734-34.917,38.8,47.332h0l-4.655,3.1-4.656,2.328-3.879,3.1-4.656,2.328-4.656,2.327-4.655,2.328-3.88,2.328-4.656,2.327-4.655,2.328-4.656,1.552-4.655,2.328-4.656,1.552-4.656,2.327-4.655,1.553-4.656,1.552-4.656,1.552-4.655.775-4.656,1.552-4.656,1.553-4.655.775-4.656,1.552-5.432.776-4.655.775-4.656.776-4.656.775-5.431.776h-4.656l-4.656.776h-5.431l-4.656.775h-10.087v-58.971h7.759l3.1-.776h6.983l3.88-.776h3.1l3.88-.776,3.1-.775,3.879-.776h3.1l3.879-.775,3.1-1.552,3.879-.776,3.1-.776,3.879-.776,3.1-1.552,3.879-.776,3.1-1.552,3.1-1.552,3.88-.776,3.1-1.552,3.88-1.552,3.1-1.552,3.88-1.552,3.1-2.328,3.88-1.552,3.1-2.328,3.88-1.552,3.1-2.328,3.88-2.328,3.1-1.552Zm0,0c14.743-10.087,35.693-6.983,45.78,6.208,10.863,13.191,7.759,31.813-6.983,41.125Zm93.112-111.734,59.747,24.054h0l-2.328,5.431-3.1,5.432-3.1,5.432-2.328,5.432-3.1,4.655-3.1,5.432-3.1,4.656-3.1,5.431-3.1,4.656-3.1,4.655-3.1,4.655-3.88,4.656-3.1,4.655-3.1,3.88-3.879,4.655-3.1,4.656-3.879,3.879-3.88,3.88-3.879,3.88-3.1,4.655-3.879,3.88-3.88,3.1-3.879,3.88-4.656,3.879-3.879,3.879-3.88,3.1-3.88,3.1-4.655,3.879-3.88,3.1-4.655,3.1-4.656,3.1-3.88,2.328-38.8-47.332,3.88-2.328,3.1-2.327,3.1-2.328,3.1-2.328,3.879-3.1,3.1-2.328,3.1-3.1,3.1-2.327,3.1-3.1,3.1-3.1,3.1-2.328,3.1-3.1,3.1-3.879,3.1-3.1,2.328-3.1,3.1-3.1,3.1-3.88,3.1-3.88,2.328-3.1,3.1-3.879,2.328-3.88,3.1-3.879,2.328-3.88,3.1-4.655,2.328-3.88,3.1-4.655,2.328-3.88,2.328-4.656,3.1-4.656,2.328-4.655,2.328-4.656,2.328-4.656Zm0,0c7.759-14.742,27.158-21.726,43.452-14.742s24.054,24.054,16.294,38.8Zm38.021-148.979h65.954v10.863l-.776,5.431v5.432l-.776,5.431v5.432l-.776,5.432-.776,5.432-.776,5.432-.776,4.655-.776,5.432-.776,5.432-1.552,5.432-.776,5.432-1.552,5.431-.776,5.432-1.552,5.431-1.552,5.432-1.552,5.432-1.552,5.432-2.328,5.432-1.552,5.432-2.328,5.431-1.552,5.432-2.328,5.431-2.328,5.432-2.328,5.432-2.328,5.432-2.328,5.432-2.328,5.432-2.328,5.431-3.1,5.432-59.747-24.054,2.328-4.655,2.328-4.656,2.328-5.431,2.328-4.656,1.552-4.656,2.328-4.655,1.552-4.656,2.328-4.656,1.552-5.432,1.552-4.655,1.552-4.656,1.552-4.656,1.552-4.655,1.552-4.656,1.552-4.656.776-4.655,1.552-4.655.776-4.656.776-4.655.776-4.655,1.552-4.656.776-3.879v-4.656l.776-4.655.776-4.656.776-4.656v-4.655l.776-4.655v-17.847Zm-42.676-116.39,48.108-40.349h0l3.88,3.1,3.1,3.88,3.88,3.88,3.1,4.655,3.1,3.88,3.88,3.879,3.1,4.656,2.328,3.88,3.1,4.655,2.328,4.655,3.1,4.656,2.328,4.655,2.328,4.655,2.328,4.656,1.552,4.655,2.328,5.432,1.552,4.655,1.552,5.432,1.552,4.656,1.552,5.431,1.552,5.432,1.552,5.432.776,4.655.776,5.432.776,6.208.776,5.431.776,5.432.776,5.431v6.208l.776,5.431v11.639h-65.954V4755l-.776-4.656v-4.656l-.776-4.655-.776-4.655v-3.88l-.776-4.656-1.552-3.879-.776-3.88-.776-3.88-.776-3.879-1.552-3.879-1.552-3.88-.776-3.88-1.552-3.1-1.552-3.88-1.552-3.1-1.552-3.88-1.552-3.1-2.328-3.1-1.552-3.1-1.552-3.1-2.328-3.1-2.328-2.328-2.328-3.1-1.552-3.1-2.328-2.328-3.1-3.1-2.328-2.328-2.328-2.328Zm0,0c-12.415-12.415-11.639-31.037,1.552-41.9,13.19-11.639,34.141-10.863,46.556,1.552Zm-108.63-40.349v-58.971h17.071l5.431.776h5.432l6.208.776,5.432.776,5.432.776,4.655.776,5.432,1.552,5.432.775,5.431,1.552,4.656,1.552,5.432,1.552,4.655,1.552,5.432,1.552,4.656,2.328,5.432,2.328,4.655,1.552,4.656,2.328,4.656,2.328,4.655,3.1,4.656,2.328,3.879,2.328,4.656,3.1,3.88,3.1,4.655,3.1,3.88,3.1,3.879,3.1,4.656,3.1,3.88,3.879,3.879,3.88-48.108,40.349-3.1-3.1-2.328-2.328-3.1-2.328-2.328-2.328-3.1-1.552-3.1-2.328-3.1-2.328-2.328-1.552-3.1-2.328-3.1-1.552-3.1-1.552-3.1-1.552-3.1-1.552-3.1-1.552-3.1-1.552-3.879-.776-3.1-1.552-3.1-.776-3.88-1.552-3.1-.776-3.88-.776-3.879-.775-3.1-.776-3.879-.775-3.88-.776h-3.879l-3.88-.776h-3.879l-3.88-.776h-13.191Zm-173.033,90.784-55.091-32.589.776-.776,4.655-6.983,5.432-6.208,6.208-6.983,5.432-6.208,5.431-6.207,6.208-6.208,6.208-5.431,6.208-5.432,6.208-5.431,6.208-5.432,6.983-4.656,6.208-4.656,6.983-4.655,6.983-4.656,6.983-3.879,6.983-3.88,6.983-3.1,7.759-3.88,7.76-3.1,6.983-3.1,7.759-2.328,7.759-2.328,8.535-2.328,7.759-2.328,7.759-1.552,8.535-1.552,8.535-1.552,7.759-.776,8.536-.776,8.535-.776h17.07v58.971h-13.191l-6.207.776-6.208.776-6.208.776-6.208.775-6.208.776-6.208,1.552-5.432,1.552-6.207,1.552-5.432,1.552-6.208,2.328-5.432,1.552-5.432,2.328-5.431,3.1-5.432,2.328-5.432,3.1-4.655,3.1-5.432,3.1-5.432,3.1-4.656,3.879-5.431,3.88-4.656,3.88-4.656,3.879-5.431,4.656-4.656,4.655-4.656,4.656-4.655,4.656-4.656,5.432-4.656,5.431-4.655,5.432-3.88,6.208Zm0,0c-10.087,13.19-31.037,17.07-45.78,7.759-14.743-8.535-19.4-27.157-8.535-41.124Zm-72.162,211.829H7031.01v-16.294l.776-8.536.776-8.535v-7.759l1.552-7.76.776-8.535,1.552-7.759.776-7.759,1.552-8.535,1.552-7.76,2.328-7.759,1.552-7.76,2.328-7.759,2.328-7.76,3.1-7.759,2.328-7.76,3.1-7.759,3.1-6.983,3.1-7.759,3.1-7.759,3.1-6.983,3.88-7.759,3.88-6.983,3.879-6.983,3.88-7.759,4.655-6.983,4.656-6.983,3.879-6.983,5.432-7.759,4.656-6.983,4.656-6.208,55.091,32.589-4.655,6.207-3.88,6.208-4.656,5.431-3.879,6.208-3.88,6.208-3.879,6.983-3.1,6.208-3.879,6.207-3.1,6.208-3.1,6.207-3.1,6.208-3.1,6.983-2.328,6.208-2.328,6.208-3.1,6.983-2.328,6.208-1.552,6.983-2.328,6.207-1.552,6.983-2.328,6.983-1.552,6.208-1.552,6.983-.776,6.983-1.552,6.983-.776,6.983-.776,6.983-.776,6.983-.776,6.983-.776,6.983v13.967l-.776,7.759Zm955.172,263.041h168.377v58.971H8051.36l-31.813-35.693Zm0,58.971c-17.846,0-32.589-13.19-32.589-29.485s14.743-29.485,32.589-29.485Zm203.294-761.965L8083.173,5213.57l-63.626-12.415,171.48-737.91,31.813-24.054Zm-63.627-11.639c3.1-16.295,20.95-26.382,38.8-23.278s28.71,19.4,24.83,34.917Zm363.912,35.692h-332.1v-59.747h332.1Zm152.858-38.021-24.829,54.315h0l-2.328-.776-3.1-.775-3.1-1.552-2.328-.776-3.1-.776-3.1-.776-3.879-.776-3.1-.775-3.1-.776-3.879-.775-3.1-.776-3.879-.776-3.88-.776h-3.88l-3.1-.776-4.656-.776h-3.879l-3.88-.776-4.655-.775h-3.88l-4.656-.776h-4.655l-3.88-.775h-9.311l-5.432-.776h-30.262v-59.747h11.64l5.431.776h17.071l4.655.776H8604.6l5.432.776h4.655l5.432.776,4.655.775h5.432l4.655.776,4.656.775,4.655.776,4.655.776,4.656.776,4.655.776,4.655.776,3.88.776,4.655.775,3.88.776,4.655,1.552,3.88.776,4.656.776,3.879,1.552,3.88.776,3.88,1.552,3.88,1.552,3.879,1.552Zm0,0c17.071,5.432,24.83,23.278,17.847,38.021-6.983,15.519-25.605,22.5-42.676,16.295Zm96.992,73.713-55.867,31.038h0l-1.552-2.328-1.552-1.552-1.553-2.328-1.552-2.327-1.552-2.328-1.552-1.552-2.328-2.328-1.552-1.552-1.552-2.328-2.327-1.552-1.553-1.552-1.552-1.552-2.327-2.328-1.552-1.552-2.328-1.552-2.328-1.552-1.552-1.552-2.328-1.552-2.327-1.552-2.328-1.552-1.552-.776-2.328-1.552-2.327-1.552-2.328-.776-2.328-1.552-2.327-1.552-2.328-.775-3.1-1.552-2.328-.776-2.327-.776-2.328-1.552-3.1-.775,24.829-54.315,3.88.776,3.88,1.552,3.1,1.552,3.88,1.552,3.88,1.552,3.1,2.328,3.88,1.552,3.1,1.552,3.88,2.328,3.1,1.552,3.1,2.328,3.88,2.328,3.1,1.552,3.1,2.328,3.1,2.327,3.1,2.328,3.1,2.328,3.1,2.327,3.1,2.328,2.328,3.1,3.1,2.328,2.328,2.328,3.1,3.1,2.328,2.328,3.1,3.1,2.328,3.1,2.327,2.328,2.328,3.1,3.1,3.1,2.328,3.1,1.552,3.1,2.328,3.1Zm34.917,119.494h-65.179v-10.087l-.776-3.1v-6.208l-.775-3.1v-3.1l-.776-3.1v-2.328l-.775-3.1-.776-3.1-.775-3.1-.776-2.328v-3.1l-.775-3.1-1.553-2.328-.775-3.1-.776-2.328-.775-2.328-.776-3.1-1.552-2.328-.775-2.328-1.552-2.328-.776-3.1-1.552-2.328-.776-2.328-1.552-2.328-1.552-2.328-1.552-2.328-1.552-2.328-1.552-2.328,55.867-31.038,2.327,3.1,2.328,3.879,1.552,3.1,2.328,3.1,1.552,3.1,2.327,3.88,1.553,3.1,1.552,3.88,1.552,3.1,1.552,3.88,1.552,3.1,1.552,3.88,1.552,3.88.776,3.879,1.552,3.1.775,3.879,1.553,3.879.775,3.88.776,3.88.775,3.879.776,3.879.775,3.88.776,3.88.775,3.88v3.879l.776,3.879v4.656l.776,3.879v16.295Zm-26.382,120.27-60.522-22.5h0l1.552-3.1.775-3.1,1.552-3.1,1.552-2.328.776-3.1,1.552-3.1.776-3.1.775-3.1,1.552-3.1.776-3.1.775-3.1.776-2.328.775-3.1.776-3.1.776-3.1.775-3.1.776-3.1.775-3.1v-3.1l.776-3.1.775-3.1v-3.1l.776-3.1v-3.1l.775-3.1v-9.311l.776-3.1v-9.311h65.179v19.4l-.776,3.879v3.879l-.776,3.88v3.88l-.775,3.879-.776,3.1v3.879l-.775,3.879-.776,3.88-.775,3.88-.776,3.88-.775,3.879-.776,3.1-1.552,3.879-.776,3.879-.775,3.88-1.552,3.88-.776,3.1-1.552,3.88-.776,3.879-1.552,3.879-1.552,3.1-1.552,3.879-1.552,3.88-1.552,3.1-1.552,3.88-1.552,3.88Zm0,0c-6.208,14.742-25.606,22.5-42.677,16.294-16.294-6.208-24.829-24.054-17.846-38.8Zm-65.954,93.888-46.557-41.125h0l2.328-1.552,1.552-2.327,1.552-1.552,2.328-1.552,1.552-2.328,1.552-1.552,1.552-1.552,2.328-2.328,1.552-2.328,1.552-1.552,1.552-2.328,1.552-2.328,2.328-1.552,1.552-2.328,1.552-2.328,1.552-2.328,1.552-2.328,1.553-2.328,1.552-3.1,1.552-2.328,1.552-2.328,1.552-2.328,1.552-3.1,1.552-2.328,1.552-3.1,1.552-2.328,1.553-3.1,1.552-3.1,1.552-2.328.775-3.1,1.552-3.1,1.553-3.1,60.522,22.5-1.552,3.1-1.552,3.88-1.553,3.1-1.552,3.88-1.552,3.1-2.327,3.88-1.553,3.1-1.552,3.1-2.327,3.1-1.552,3.1-2.328,3.1-1.552,3.1-2.328,3.1-1.552,3.1-2.328,3.1-1.552,3.1-2.327,3.1-2.328,3.1-1.552,2.328-2.328,3.1-2.328,3.1-2.327,2.328-2.328,3.1-2.328,2.328-2.327,2.328-2.328,3.1-2.327,2.328-2.328,2.328-2.328,2.328-2.327,2.328-2.328,2.328-3.1,2.328Zm-84.577,54.315-27.157-53.54h0l2.328-.775,2.327-.776,1.552-1.552,2.328-.776,2.328-.776,2.327-.776,1.552-1.552,2.328-.776,2.328-1.552,1.552-.776,2.327-1.552,2.328-.776,1.552-1.552,2.328-.776,2.328-1.552,1.552-.776,2.327-1.552,1.552-1.552,2.328-1.552,2.328-1.552,1.552-.776,2.328-1.552,1.552-1.552,2.327-1.552,2.328-1.552,1.552-1.552,2.328-1.552,1.552-1.552,2.328-1.552,1.552-2.327,2.327-1.552,1.552-1.552,46.557,41.125-2.328,2.328-2.328,2.328-2.327,2.328-2.328,1.552-2.328,2.328-3.1,2.328-2.328,1.552-2.327,2.328-2.328,1.552-3.1,2.328-2.328,1.552-2.327,1.552-3.1,2.328-2.327,1.552-2.328,1.552-3.1,2.328-2.328,1.552-3.1,1.552-2.328,1.552-3.1,1.552-2.328,1.552-3.1,1.552-2.327,1.552-3.1,1.552-2.327,1.552-3.1.776-3.1,1.552-2.327,1.552-3.1,1.552-3.1.776-2.328,1.552-3.1.776Zm0,0c-16.294,6.983-35.692.776-43.452-14.743-7.759-14.743,0-31.813,16.295-38.8Zm-117.165,27.158-9.312-58.195h0l3.88-.776h3.88l4.655-.776,3.88-.775,3.1-.776h3.88l3.879-.775,3.88-.776,3.1-.776,3.88-.776h3.1l3.88-.776,3.1-.776,3.1-.776,3.1-.775,3.1-.776,3.1-.775,3.1-.776,3.1-.776,3.1-.776,2.327-.776,3.1-.776,3.1-.776,2.328-.775,2.327-.776,2.328-.775,3.1-.776,2.328-.776,2.327-.776,2.328-.776,1.552-.776,2.328-.776,27.157,53.54-3.1,1.552-3.1.775-3.1,1.552-3.1.776-3.1,1.552-3.1.776-3.1.776-3.1,1.552-3.1.776-3.879.775-3.1.776-3.1.776-3.88,1.552-3.1.776-3.88.776-3.879.775-3.1.776-3.879.775-3.88.776-3.88.776-3.88.776-3.879.776-3.88.776-3.88.776-3.88.775-4.655.776h-3.88l-4.655.775-3.88.776-4.655.776-3.88.776Zm0,0c-17.847,2.328-34.917-8.535-37.245-24.83s10.087-31.037,27.934-33.365Zm-152.859,5.432v-58.971h55.092l5.432-.776h29.485l4.655-.775h12.415l3.88-.776h10.862l3.1-.776h6.207l3.1-.776h4.656l2.327-.776h2.328l9.312,58.195-3.1.776h-3.1l-3.1.776h-6.207l-3.88.776h-6.983l-3.88.775h-7.76l-3.879.776h-13.967l-4.656.775h-24.829l-5.432.776H8392.77Zm-107.854-58.971H8392.77v58.971H8284.915l-31.812-35.693Zm0,58.971c-17.846,0-32.589-13.191-32.589-29.485s14.743-29.485,32.589-29.485Zm-96.991,245.97,65.179-281.663,64.4,12.415-65.954,281.663-31.813,23.278Zm63.627,12.415c-3.1,15.519-20.95,26.382-38.8,22.5-17.847-3.1-28.71-18.622-24.83-34.917Zm114.062-381.758h-51.987v-58.971h51.987Zm166.05-72.162,23.277,55.091h0l-3.88,1.552-3.879.775-3.88.776-3.88,1.552-4.655.776-3.88.776-4.655.776-4.656.776-4.655.776-4.655.775-5.432.776-5.432.775-4.655.776h-5.432l-6.208.776-5.431.776h-6.208l-6.207.776h-6.208l-6.207.776h-6.208l-6.983.776h-6.983l-6.983.775H8398.2l-7.759.776h-24.83v-58.971h15.519l7.76-.776h29.485l6.983-.776h13.19l6.208-.776h12.414l5.432-.776h5.432l5.432-.776,5.432-.776h4.655l4.656-.775,4.655-.776h4.655l3.88-.775,3.88-.776,3.88-.776h3.879l3.1-.776,3.1-.776,3.1-.776,3.1-.776,2.328-.775h2.328l1.552-.776Zm55.091-37.244,53.539,33.365h0l-1.552,3.1-2.328,2.327-2.327,2.328-1.552,2.328-2.328,2.327-2.328,2.328-2.327,2.328-2.328,2.327-2.328,2.328-2.327,1.552-2.328,2.328-3.1,2.328-2.328,1.552-2.328,2.328-3.1,1.552-2.327,2.328-3.1,1.552-2.327,1.552-3.1,2.328-2.328,1.552-3.1,1.552-3.1,1.552-3.1,1.552-3.1,1.552-3.1,1.552-3.1.776-3.1,1.552-3.1,1.552-3.1,1.552-3.1.776-3.1,1.552-3.1.776-23.277-55.091,2.327-.775,2.328-.776,2.328-.776,2.327-.776,1.552-1.552,2.328-.776,1.552-.776,2.328-.776,2.327-.775,1.553-1.552,1.552-.776,2.327-.776,1.552-1.552,1.553-.776,2.327-1.552,1.552-.776,1.552-.776,1.553-1.552,1.552-1.552,1.552-.776,1.552-1.552,1.552-1.552,1.552-.776,1.552-1.552,1.552-1.552,1.552-1.552,1.553-.776.775-1.552,1.552-1.552,1.552-1.552.776-1.552,1.552-1.552Zm0,0c10.087-13.191,31.037-17.071,45.78-7.76,14.742,10.087,18.622,27.934,7.759,41.125Zm19.4-55.867h65.954v6.207l-.776,3.1v5.431l-.775,3.1v3.1l-.776,3.1v3.1l-.775,2.328-.776,3.1-.775,3.1-.776,3.1-.776,2.328-.775,3.1-.776,2.328-1.552,3.1-.775,3.1-1.552,2.328-.776,3.1-1.552,2.328-1.552,3.1-.776,2.328-1.552,3.1-1.552,2.328-1.552,3.1-1.552,2.328-1.552,2.328-2.328,3.1-1.552,2.328-1.552,2.328-2.328,2.328-53.539-33.365.776-1.552,1.552-1.552,1.552-1.552.775-2.327.776-1.552,1.552-1.552.776-1.552.775-1.552.776-1.552.775-1.552.776-2.328.775-1.552.776-1.552.775-1.552.776-1.552.775-2.328.776-1.552v-1.552l.776-1.552.775-1.552v-2.328l.776-1.552v-1.552l.775-2.328v-3.1l.776-2.328v-9.311Zm-6.983-26.382,53.539-34.141h0l1.552,1.552.776,2.327,1.552,1.552.775,1.552,1.552,1.552.776,1.552.776,2.328.775,1.552,1.552,1.552.776,2.327.775,1.552.776,1.552.775,2.328.776,1.552v2.328l.776,1.552.775,2.328v1.552l.776,2.328.775,1.552v2.328l.776,1.552v3.879l.775,2.328v6.207l.776,1.552v6.208h-65.954v-9.312l-.776-.776v-3.1l-.775-.775v-1.552l-.776-.776v-1.552l-.775-.776v-1.552l-.776-.776h0v-.776l-.776-.775v-.776l-.775-.776h0l-.776-.776v-.776h-.775v-.776Zm-20.95-13.967,22.5-55.867h0l1.552.776,2.328.775,1.552.776,2.327.775,1.553.776,2.327.776,1.552.776,1.552.776,2.328,1.552,1.552.775,1.552.776,2.328.775,1.552,1.552,1.552.776,1.552.776,2.328,1.552,1.552.776,1.552,1.552,1.552.776,1.552,1.552,1.553.776,1.552,1.552,1.552,1.552,1.552.775,1.552,1.552.776,1.552,1.552,1.552,1.552,1.552,1.552,1.552.775.775,1.553,1.552.775,1.552-53.539,34.141-.776-.776v-.776h-.775l-.776-.776v-.775h-.775v-.776l-.776-.776h-.775l-.776-.776v-.776h-.776l-.775-.776h0l-.776-.776h-.775l-.776-.776h-.775l-.776-.776h0l-.775-.775h-.776l-.776-.776h-.775l-.776-.775h-.775l-.776-.776h-.775l-1.552-.776h-.776l-.776-.776Zm-94.664-6.208v-58.971h24.83l4.655.776h21.727l3.88.776h11.639l3.1.776h3.88l3.1.776h6.983l3.1.775h3.1l2.327.776h3.1l3.1.775,2.327.776h3.1l2.327.776,3.1.776,2.328.776h2.328l3.1.776-22.5,55.867h-1.552l-.776-.776h-2.327l-1.553-.776h-1.552l-2.327-.776h-3.88l-2.328-.775h-5.432l-2.327-.776h-6.208l-3.1-.775h-10.087l-3.1-.776h-24.83l-4.655-.776h-18.623Zm-121.045-58.971h121.045v58.971H8362.509L8330.7,4584.29Zm0,58.971c-17.847,0-32.589-13.191-32.589-29.485s14.742-29.485,32.589-29.485Zm-80.7,176.136L8330.7,4584.29l64.4,12.415-49.659,211.053-31.813,24.054Zm63.627,11.639c-3.1,16.294-20.95,26.382-38.8,23.278s-28.71-19.4-24.83-34.917Zm595.915,207.174h325.115V5073.9H8941.354l-28.709-43.452Zm0,58.971c-17.847,0-32.589-13.191-32.589-29.485s14.742-29.485,32.589-29.485ZM8814.1,5193.4l98.544-162.946,57.419,27.934L8871.52,5221.33l-28.709,15.519Zm57.419,27.934c-8.535,14.742-28.709,19.4-45,11.639-15.519-7.759-21.726-25.605-12.415-39.572Zm-203.294-43.452h174.585v58.971H8668.226l-28.709-44.229Zm0,58.971c-18.622,0-33.365-13.19-33.365-29.485s14.743-29.485,33.365-29.485Zm490.389-753.43-462.455,738.687-56.643-29.485L9101.2,4454.709l28.71-15.519Zm-57.419-28.709c9.312-14.743,29.485-19.4,45-11.639,15.519,8.535,21.727,26.382,12.415,40.349Zm219.589,44.228H9129.905v-59.747h190.879l31.813,24.83Zm0-59.747c17.847,0,32.59,13.191,32.59,29.485s-14.743,30.261-32.59,30.261Zm99.319,772.828L9288.2,4474.108l64.4-10.087,132.685,738.688-32.59,34.141Zm65.179-9.311c3.1,16.294-9.312,31.037-27.158,34.141-17.846,2.328-34.917-8.535-38.021-24.83Zm-192.432-24.83h159.842v58.971H9292.851l-32.589-24.83Zm0,58.971c-17.846,0-32.589-13.19-32.589-29.485s14.743-29.485,32.589-29.485Zm6.208-197.087,26.382,162.946-65.179,9.311-26.382-162.945,32.589-34.141Zm-65.179,9.312c-2.327-16.295,10.087-31.813,27.934-34.141s34.142,9.311,37.245,24.83ZM9230,4619.207l48.884,297.182-65.178,8.535-48.884-297.182,3.879-17.847Zm-65.178,8.535c-2.328-15.519,10.087-31.037,27.934-33.365s34.917,8.535,37.244,24.83ZM8987.909,4906.3,9168.7,4609.9l57.42,27.934-180.793,297.182-28.709,15.519Zm57.419,28.709c-8.535,13.967-27.934,19.4-44.228,11.639-15.519-7.76-21.727-25.606-13.191-40.349Zm200.967,15.519H9016.619v-59.747h229.676l32.589,25.605Zm0-59.747c17.847,0,32.589,13.967,32.589,30.261s-14.742,29.485-32.589,29.485Zm311.925,287.095H9726.6v58.971H9558.22l-31.813-35.693Zm0,58.971c-17.847,0-32.589-13.19-32.589-29.485s14.742-29.485,32.589-29.485Zm204.069-761.965-171.48,738.687-64.4-12.415,171.48-737.91,32.59-24.054Zm-64.4-11.639c3.88-16.295,20.95-26.382,38.8-23.278s29.485,19.4,25.605,34.917Zm395.726,35.692H9730.477v-59.747h363.136Zm157.514-40.349-23.277,55.092v.775l-2.328-1.552-3.1-.776-3.1-.776-3.1-.776-3.1-.776-3.1-.776-3.1-.775-3.88-.776-3.1-.775-3.88-.776-3.88-.776h-3.879l-3.88-.776-3.88-.776-3.88-.776h-3.879l-4.656-.776h-4.655l-3.88-.775h-4.655l-4.656-.776h-4.655l-4.655-.775h-10.087l-5.432-.776h-31.813v-59.747h11.639l6.208.776h17.07l5.432.776h10.863l5.431.776h5.432l5.432.776h4.656l5.431.775,4.656.776h5.432l4.655.775,4.655.776,4.656.776,4.655.776,4.655.776,4.656.776,4.655.776,3.88.775,4.655.776,3.88.775,4.655,1.552,3.88.776,3.88.776,3.879,1.552,3.88.775,3.88,1.552Zm-.775,0c17.07,5.432,26.382,22.5,20.174,38.021s-25.605,23.278-42.676,17.846Zm100.871,76.042-55.091,31.038h0l-2.328-2.328-1.552-2.328-1.552-2.328-2.328-2.328-1.552-2.328-1.552-1.552-2.328-2.327-1.552-2.328-2.328-1.552-1.552-2.328-2.327-1.552-1.552-2.328-2.328-1.552-1.552-1.552-2.328-1.552-2.328-1.552-1.552-1.552-2.327-1.552-2.328-1.552-2.328-1.552-2.327-1.552-2.328-.776-2.328-1.552-1.552-1.552-3.1-.776-2.328-1.552-2.327-.776-2.328-1.552-2.328-.776-2.327-.776-3.1-.775-2.327-1.552,23.277-55.092,3.88,1.552,3.88,1.552,3.1,1.552,3.88,1.552,3.88,1.552,3.88,1.552,3.1,1.552,3.88,2.328,3.879,1.552,3.1,1.552,3.88,2.328,3.1,2.328,3.1,2.328,3.1,1.552,3.88,2.328,3.1,2.327,3.1,3.1,3.1,2.328,3.1,2.328,2.327,2.328,3.1,3.1,3.1,2.328,3.1,3.1,2.328,3.1,3.1,2.328,2.327,3.1,2.328,3.1,3.1,3.1,2.328,3.1,2.328,3.1,2.327,3.88,2.328,3.1Zm0,0c10.087,13.967,5.432,31.813-10.087,40.349s-35.693,4.656-45-9.311Zm37.245,128.029h-65.955v-18.622l-.775-3.1v-3.1l-.776-3.879v-3.1l-.775-3.1-.776-3.88-.775-3.1-.776-3.1-.775-3.1-.776-3.1-.776-3.1-.775-2.328-.776-3.1-.775-3.1-1.552-3.1-.776-2.328-.775-3.1-1.553-2.328-.775-3.1-1.552-2.328-1.552-3.1-1.552-2.327-.776-2.328-1.552-2.328-1.552-3.1-1.552-2.328-1.552-2.328,55.091-31.038,2.328,3.1,2.327,3.879,2.328,3.1,2.328,3.879,1.552,3.1,2.327,3.879,1.552,3.879,1.553,3.88,2.327,3.1,1.552,3.88,1.552,3.88,1.553,3.88.775,3.879,1.552,3.879,1.552,3.88.776,4.655,1.552,3.88.776,3.88.775,3.879.776,4.656,1.552,3.88v3.879l.775,4.656.776,3.879.775,4.656v3.879l.776,4.656v4.655l.776,3.88v13.967Zm-71.386,175.36-48.108-40.348h0l3.1-3.1,3.1-3.879,3.1-3.1,3.1-3.1,3.1-3.88,3.1-3.879,2.328-3.1,2.328-3.879,2.327-3.879,2.328-3.88,2.328-3.88,2.327-3.879,2.328-3.88,1.552-3.879,2.328-3.88,1.552-4.655,1.552-3.88,1.552-3.88,1.552-4.655.776-4.656,1.552-4.656.776-3.879,1.552-4.656.775-4.655.776-5.432.775-4.656.776-4.656v-5.431l.775-4.656v-15.519h65.955v12.415l-.776,6.207v6.208l-.776,6.207-.775,6.208-.776,6.208-1.552,6.208-.775,6.208-1.552,5.432-1.553,6.207-1.552,5.432-1.552,6.208-1.552,5.432-2.328,5.431-2.327,5.432-2.328,5.432-2.328,5.432-2.327,5.432-3.1,5.432-2.328,5.431-3.1,5.432-3.1,4.656-3.1,5.431-3.88,4.656-3.1,4.655-3.88,4.656-3.879,4.656-3.88,4.655-4.655,4.656-3.88,4.656-4.655,4.655Zm0,0c-12.415,11.639-32.59,12.415-46.557,1.552a27.679,27.679,0,0,1-1.552-41.9Zm-190.88,33.365-44.228,44.228,17.846-51.211,7.76-.776,6.983-1.552,6.983-.776,6.983-.776,6.983-1.552,6.207-1.552,6.983-.776,6.208-1.552,6.207-1.552,6.208-1.552,6.207-2.328,5.432-1.552,6.207-1.552,5.432-2.327,5.432-1.552,5.432-2.328,4.655-2.328,5.432-2.328,4.656-1.552,4.655-3.1,4.655-2.328,4.655-2.328,4.656-2.328,3.88-3.1,4.655-2.328,3.88-3.1,3.879-2.328,3.88-3.1,3.88-3.1,3.1-3.1,3.88-3.1,3.1-3.1,48.108,40.348-4.656,3.88-4.655,4.655-4.655,3.88-4.656,3.88-5.432,3.879-5.432,3.88-5.431,3.879-5.432,3.88-5.432,3.1-6.208,3.88-5.431,3.1-6.208,3.1-6.207,3.1-6.208,2.328-6.207,3.1-6.983,3.1-6.208,2.327-6.983,2.328-6.983,2.328-6.983,2.327-6.983,2.328-6.983,1.552-7.759,2.328-6.983,1.552-7.76,1.552-7.759,2.328-7.76,1.552-7.759.775-7.76,1.552-8.535,1.552-7.759.776-8.535.776Zm-17.846,51.211c-17.847,2.328-34.917-9.311-36.47-25.606-2.327-16.294,10.088-31.037,27.934-32.589Zm84.576,24.83-56.644,30.262h.776l-2.328-2.328-1.552-2.328-1.552-2.328-1.552-2.328-1.552-2.328-1.552-2.328-2.328-2.328-1.552-2.328-1.552-2.328-1.552-2.328-1.552-2.327-2.328-1.552-1.552-2.328-1.552-2.328-1.552-1.552-1.552-2.328-2.328-1.552-1.552-2.327-1.552-1.552-1.552-1.552-1.552-2.328-2.328-1.552-1.552-1.552-1.552-1.552-1.552-1.552-2.328-2.327-1.552-1.552-1.552-1.552-1.552-1.552-1.553-1.552-2.327-.775-1.552-1.552,44.228-44.228,2.328,2.328,2.328,1.552,2.327,2.328,2.328,1.552,1.552,2.328,2.328,2.328,2.327,1.552,2.328,2.328,2.328,2.327,2.327,1.552,1.552,2.328,2.328,2.328,2.328,2.328,2.327,2.328,1.553,2.328,2.327,2.328,2.328,2.328,1.552,2.328,2.328,2.328,2.327,3.1,1.552,2.328,2.328,2.328,1.552,2.328,2.328,3.1,2.327,2.328,1.553,3.1,2.327,2.327,1.552,3.1,2.328,2.328,1.552,3.1,2.328,2.328,1.552,3.1Zm0,0c9.312,13.967,4.655,31.813-10.863,40.349s-35.692,3.88-45-10.087Zm97.768,289.423v-58.971l-31.037,40.349-3.88-10.088-4.656-9.311-3.879-9.312-4.656-9.312-3.879-9.311-3.88-9.312-4.656-8.535-3.879-8.535-3.88-8.535-3.88-8.535-3.88-8.535-4.655-7.76-3.88-8.535-3.879-7.759-3.88-7.76-3.88-7.759-3.88-6.983-3.88-7.759-3.879-6.983-3.1-6.983-3.879-6.983-3.88-6.983-3.88-6.208-3.1-6.208-3.88-6.983-3.88-6.207-3.1-5.432-3.88-6.208-3.1-5.432-3.88-5.431-3.1-5.432-3.88-5.432,56.644-30.262,3.88,6.208,3.879,5.431,3.88,6.208,3.1,6.208,3.88,6.208,3.88,6.207,3.88,6.208,3.88,6.983,3.879,6.207,3.88,6.983,3.88,6.983,3.88,7.76,3.879,6.983,3.88,7.759,3.88,6.983,3.88,7.76,3.879,7.759,3.88,8.536,4.656,7.759,3.879,8.535,3.88,8.535,3.88,8.535,4.655,8.535,3.88,8.535,3.88,9.312,4.655,8.535,3.88,9.312,4.655,9.311,3.88,9.312,4.655,10.087,3.88,9.312,4.655,10.087Zm30.261-40.349c6.983,15.519-1.552,32.589-18.622,38.021-17.07,6.208-35.692-1.552-42.676-16.294Zm-211.053-18.622H10290.7v58.971h-180.792l-31.813-20.95Zm0,58.971c-18.623,0-32.59-13.19-32.59-29.485s13.967-29.485,32.59-29.485Zm-115.614-212.605,59.747-23.278h0l3.88,8.536,3.879,7.759,3.88,7.76,3.88,8.535,3.88,6.983,3.1,7.759,3.88,7.76,3.1,6.983,3.88,6.983,3.1,6.983,3.1,6.983,3.1,6.983,3.1,6.983,2.328,6.207,3.1,6.208,3.1,6.207,2.327,6.208,2.328,6.207,3.1,5.432,2.328,5.432,2.327,6.207,2.328,5.432,1.552,4.655,2.328,5.432,2.327,5.432,1.553,4.655,2.327,4.656,1.552,4.655,1.552,4.655,1.553,4.656,1.552,3.879,1.552,4.656-62.851,17.07-.776-3.1-1.552-4.656-1.552-3.879-1.552-3.88-1.552-4.655-1.552-4.656-2.328-4.655-1.552-4.655-2.328-4.656-2.327-5.432-1.552-4.655-2.328-5.432-2.328-5.432-2.327-6.207-3.1-5.432-2.327-6.207-3.1-6.208-2.328-6.207-3.1-6.208-3.1-6.207-2.327-6.983-3.1-6.983-3.88-6.208-3.1-6.983-3.1-7.759-3.1-6.983-3.88-7.759-3.879-7.759-3.1-7.76-3.879-7.759-3.88-7.76-3.88-8.535Zm0,0c-7.759-14.742,0-31.813,17.07-38.8,16.295-6.208,35.693.776,42.677,15.519Zm-62.074-83.024,36.469-48.884h.775l3.1,2.328,3.1,2.327,3.1,2.328,3.1,2.328,3.1,2.327,3.1,2.328,2.327,2.328,3.1,3.1,3.1,3.1,2.327,2.328,3.1,3.1,3.1,3.1,2.328,3.1,3.1,3.1,2.327,3.1,2.328,3.879,3.1,3.1,2.328,3.879,2.328,3.1,2.327,3.879,3.1,3.879,2.328,3.88,2.328,3.88,2.327,3.879,2.328,3.88,2.328,4.656,2.327,3.879,2.328,4.656,2.328,3.879,2.327,4.656,2.328,4.655,2.328,4.656-59.747,23.278-2.328-3.879-1.552-3.88-2.327-3.879-2.328-3.88-1.552-3.88-2.328-3.879-2.327-3.879-1.553-3.1-2.327-3.1-2.328-3.879-1.552-3.1-2.328-3.1-2.327-2.328-1.552-3.1-2.328-3.1-1.552-2.328-2.328-2.328-1.552-3.1-2.328-2.328-2.327-2.328-1.552-1.552-2.328-2.328-1.552-1.552-1.552-2.327-2.328-1.552-1.552-1.552-2.328-1.552-1.552-1.552-1.552-1.552-1.552-.776-2.328-1.552-1.552-.776Zm-.776,0c-14.742-9.312-18.622-27.934-7.759-41.125,10.087-13.967,30.261-17.071,45.779-7.759Zm-65.178-9.312v-58.971h23.277l3.88.776h6.983l3.1.775h6.983l3.1.776,3.88.775h3.1l3.1.776,3.1.776h3.1l3.1.776,3.1.776,3.1.776,2.327.776,3.1.775,3.1.776,2.328,1.552,3.1.776,2.327.776,3.1,1.552,2.327,1.552,3.1.776,2.328,1.552,2.328,1.552-36.469,48.884-.776-.776h-1.552l-.775-.775h-.776l-.776-.776-1.552-.775h-1.552l-.775-.776h-1.552l-1.553-.776h-1.552l-2.327-.776h-1.552l-1.553-.776h-2.327l-2.328-.776h-2.328l-2.327-.776h-4.655l-2.328-.775h-5.432l-3.1-.776h-22.5Zm-68.282-58.971h68.282v58.971h-68.282l-32.589-35.692Zm0,58.971c-18.622,0-33.365-13.19-33.365-29.485s14.743-29.485,33.365-29.485Zm-103.2,269.248,70.61-304.94,64.4,11.639-70.61,305.717-32.589,23.278Zm64.4,12.415c-3.88,15.519-20.95,26.382-38.8,22.5-17.847-3.1-29.486-18.622-25.606-34.917Zm153.635-392.621h-89.232v-58.971h89.232Zm168.377-71.386,23.278,55.091h0l-3.88,1.552-3.88.776-3.88,1.552-4.655.776-3.88.775-4.655.776-3.88.775-4.655.776-5.432.776-4.655.776-4.656.776-5.431.776-5.432.776h-5.432l-5.432.775-6.208.776h-6.207l-5.432.775h-6.983l-6.207.776h-6.983l-6.208.776h-14.742l-6.983.776H9912.82v-58.971h46.556l6.983-.776h20.95l6.208-.775h6.207l6.207-.776h5.432l6.208-.775H10023l4.655-.776h5.432l4.655-.776,4.655-.776h4.656l3.88-.776,4.655-.776,3.88-.776h3.1l3.88-.776,3.1-.776,2.327-.775,3.1-.776,2.327-.776h2.328l1.552-.776Zm0,0c17.07-5.432,36.469,2.328,42.677,17.07,6.207,15.519-2.328,32.589-19.4,38.021Zm54.315-35.693,53.539,34.917v-.776l-2.328,3.1-1.552,2.328-2.327,2.328-2.328,2.328-1.552,1.552-2.328,2.328-2.327,2.328-2.328,2.328-2.328,2.328-2.327,1.552-2.328,2.328-3.1,1.552-2.328,2.328-2.328,1.552-2.327,2.328-3.1,1.552-2.328,1.552-3.1,1.552-2.328,2.328-3.1,1.552-3.1,1.552-3.1,1.552-2.327,1.552-3.1.775-3.1,1.552-3.1,1.552-3.1,1.552-3.1.776-3.1,1.552-3.1.776-3.1,1.552-3.1.776-23.278-55.091,2.328-.776,2.327-.776,2.328-.776,2.328-.776,2.327-.776,1.553-1.552,2.327-.776,1.552-.776,2.328-.776,1.552-.776,2.328-1.552,1.552-.776,1.552-.775,2.328-1.552,1.552-.776,1.552-.776,1.552-1.552,1.552-.776,1.552-1.552,1.552-.776,1.552-1.552,1.552-.776,1.553-1.552,1.552-1.552,1.552-.775.775-1.552,1.552-1.552,1.553-1.552,1.552-.776.775-1.552,1.552-1.552.776-1.552Zm0,0c10.863-13.191,31.037-16.294,45.78-6.983,14.742,10.087,18.622,27.934,7.759,41.125Zm19.4-48.108h65.178v10.863l-.775,2.328v3.1l-.776,2.328v3.1l-.775,2.328-.776,3.1-.775,2.328-.776,3.1-.776,2.328-.775,3.1-.776,2.328-.775,2.328-.776,3.1-1.552,2.328-.775,2.328-1.553,3.1-.775,2.328-1.552,2.328-1.552,2.328-1.552,3.1-1.553,2.327-1.552,2.328-1.552,2.328-1.552,2.327-1.552,2.328-1.552,2.328-2.328,3.1-1.552,2.328-53.539-34.917,1.552-1.552,1.552-1.552.776-1.552.775-1.552,1.552-1.552.776-1.552.775-1.552.776-1.552,1.552-1.552.776-1.552.775-1.552.776-1.552.775-1.552v-1.552l.776-1.552.775-.776.776-1.552v-1.552l.776-1.552.775-1.552v-1.552l.776-1.552v-3.1l.775-1.552v-4.656l.776-1.552v-3.88Zm-20.175-35.692,33.365-50.436h.776l3.1,1.552,2.328,2.328,3.1,1.552,3.1,2.328,2.328,1.552,3.1,2.328,2.328,2.328,2.327,2.327,2.328,2.328,2.328,2.328,2.327,2.327,2.328,2.328,2.328,3.1,1.552,2.328,1.552,2.328,2.327,3.1,1.553,3.1,1.552,2.328.775,3.1,1.552,3.1,1.552,3.1.776,3.1.776,3.1.775,3.1.776,3.1.775,3.1.776,3.1v3.1l.775,3.1v10.087h-65.178v-3.879l-.776-1.552v-4.655l-.775-1.552v-.776l-.776-1.552v-1.552l-.775-.776v-1.552l-.776-.776v-.776l-.776-1.552-.775-.775-.776-.776v-.776l-.775-1.552-.776-.776-.775-.776-.776-.776-.775-.776-1.553-.775-.775-1.552-.776-.776-1.552-.776-.775-.776-1.552-.776-.776-.776-1.552-.776-1.552-.775Zm-.775,0c-15.519-8.535-20.175-27.158-10.863-41.125,10.087-13.967,30.262-17.846,45.78-9.311Zm-79.146-7.76V4563.34h27.158l3.879.776h12.415l3.88.775h3.88l3.88.776h3.879l3.1.775h3.879l3.1.776h3.1l3.88.776,3.1.776h3.1l3.1.776,3.1.776,2.328.776,3.1.775,3.1.776,3.1.775,2.327,1.552,3.1.776,2.327.776,3.1,1.552,2.327,1.552-33.365,50.436h-.775l-.776-.776h-1.552l-.775-.775h-1.553l-1.552-.776h-1.552l-1.552-.776h-1.552l-2.328-.776h-2.327l-2.328-.776h-2.328l-2.327-.776h-5.432l-3.1-.776h-6.208l-3.1-.775h-10.087l-3.88-.776h-24.83Zm-185.447-58.971h185.447v58.971H9869.368l-31.813-35.692Zm0,58.971c-17.847,0-32.589-13.19-32.589-29.485s14.742-29.485,32.589-29.485ZM9791,4786.032l46.556-199.414,63.627,12.415-45.78,198.639-31.813,23.278Zm64.4,11.639c-3.88,16.294-20.95,26.381-38.8,23.278-17.847-3.88-29.485-19.4-25.605-34.917Zm692.907,380.207h168.377v58.971h-168.377l-31.813-35.693Zm0,58.971c-17.847,0-32.59-13.19-32.59-29.485s14.743-29.485,32.59-29.485Zm174.584-637.816-142.771,614.538-63.626-12.415,142.771-614.537,31.813-23.278Zm-63.626-12.415c3.1-15.519,20.95-26.382,38.8-22.5,17.846,3.1,28.709,18.622,24.829,34.917Zm-208.726-23.278h240.539v58.971h-240.539l-31.813-35.692Zm0,58.971c-17.847,0-32.589-13.19-32.589-29.485s14.742-29.485,32.589-29.485Zm59.746-147.427-27.157,123.373-64.4-11.639,27.157-123.373,32.59-24.054Zm-64.4-11.639c3.88-16.295,20.95-26.382,38.8-23.278s29.485,18.622,25.605,34.917Zm677.389,35.692h-644.8v-59.747h644.8l31.813,35.693Zm0-59.747c17.847,0,32.589,13.191,32.589,29.485s-14.742,30.261-32.589,30.261Zm-59.747,147.427,27.158-123.373,64.4,11.639-27.158,123.373-32.589,24.054Zm64.4,11.639c-3.879,16.295-20.95,26.382-38.8,23.278s-29.485-18.623-25.606-34.917Zm-268.472-34.917h235.883v58.971h-235.883l-31.813-35.692Zm0,58.971c-17.847,0-32.59-13.19-32.59-29.485s14.743-29.485,32.59-29.485Zm-174.585,578.845,142.771-614.537,63.626,12.415L10748.5,5213.57l-31.813,23.278Zm63.627,12.415c-3.1,15.519-20.95,26.382-38.8,22.5-17.847-3.1-28.71-18.622-24.83-34.917Zm497.372-221.916-159.842,6.983-3.88-58.971,160.617-6.983,34.142,27.934Zm-3.1-58.971c17.847-.776,33.365,11.639,34.142,27.934s-13.191,30.261-31.037,31.037Zm52.764,103.2-50.436,38.021h.776l-2.328-2.328-2.328-2.328-2.327-3.1-1.552-2.328-2.328-3.1-1.552-2.328-1.552-3.1-1.552-3.1-1.553-3.1-1.552-3.1-.775-3.1-1.552-3.1-.776-3.1-1.552-3.1-.776-3.1-.775-3.879-1.552-3.1-.776-3.879-.775-3.1-.776-3.879-.775-3.88-.776-3.88-.776-3.879v-3.879l-.775-3.88-.776-3.88v-3.879l-.775-4.656v-3.88l-.776-4.655v-9.311l65.179-2.328v3.879l.775,3.879v7.76l.776,3.1v3.88l.775,3.1.776,3.88v3.1l.776,3.1.775,2.328v3.1l.776,3.1.775,2.328.776,2.328v3.1l.775,2.328.776,1.552.775,2.328.776,2.328.776,1.552.775,1.552.776,1.552.775,1.552.776,1.552.775,1.552.776.776.775,1.552.776.776v.775l.776.776h.775Zm0-.776c11.639,12.415,10.087,31.037-3.88,41.9-13.19,10.863-34.141,9.311-45.779-3.1Zm110.958,29.485v58.971h-13.19l-6.208-.775h-12.414l-6.208-.776-6.207-.776-5.432-.775-6.208-.776-5.431-.775-5.432-.776-5.432-.775-5.432-1.552-5.432-.776-5.432-1.552-5.432-1.552-4.655-1.552-4.655-1.552-5.432-1.553-4.656-1.552-4.655-2.327-4.655-1.552-3.88-2.328-4.655-2.328-3.88-2.327-4.655-3.1-3.88-2.327-3.88-3.1-3.1-3.1-3.88-3.1-3.1-3.1-3.88-3.1,50.436-38.021,1.552,1.552,1.552,1.552,1.552.775,1.553,1.552,2.327,1.552,1.552,1.552,2.328.776,2.328,1.552,2.327,1.552,2.328.776,3.1,1.552,2.328.776,3.1,1.552,3.1.775,3.1,1.552,3.1.776,3.879.776,3.1.776,3.879.776,3.88.776,4.656.776,3.879.775,4.656.776,4.655.775,4.655.776h4.656l4.655.776h10.863l5.432.776h10.862Zm99.319-20.174,41.125,45.78h0l-3.1,2.328-3.1,2.328-3.88,1.552-3.1,2.327-3.88,1.552-3.1,2.328-3.88,1.552-3.879,1.552-3.88,1.552-3.88,1.553-3.88,1.552-4.655.775-3.88,1.552-3.88.776-4.655,1.552-4.655.776-3.88.775-4.655.776-4.656.775-4.655.776-4.655.775-4.656.776-4.655.775h-5.432l-4.655.776-5.432.776h-10.087l-5.432.775h-16.295v-58.971h9.312l4.655-.776h13.191l3.879-.776h4.656l3.88-.776h3.879l3.1-.775,3.879-.776h3.1l3.879-.775,3.1-.776,3.1-.776,3.1-.776,3.1-.776,2.328-.776,3.1-.776,2.328-.775,2.327-.776,2.328-.775,2.328-.776,2.327-.776,2.328-1.552,1.552-.776,2.328-.776,1.552-.775,1.552-1.552,1.552-.776,1.552-.776Zm24.83-41.9h65.178v9.311l-.775,3.1v3.1l-.776,3.1-.775,3.1-.776,3.1-.775,3.1-.776,3.1-.775,3.1-1.553,3.1-1.552,2.328-.775,3.1-1.552,3.1-1.552,3.1-1.553,2.328-1.552,3.1-2.327,2.328-1.552,3.1-2.328,2.328-2.328,2.328-1.552,2.328-2.327,3.1-2.328,2.328-2.328,2.328-3.1,2.328-2.328,2.328-2.327,2.328-3.1,1.552-2.327,2.328-3.1,2.327-41.125-45.78,1.552-1.552,1.552-1.552,1.553-.775,1.552-1.552,1.552-1.552,1.552-.776.775-1.552,1.553-.776.775-1.552,1.552-1.552.776-.776.775-1.552,1.552-.776.776-1.552.775-1.552.776-.776v-1.552l.776-.776.775-1.552.776-1.552v-.775l.775-1.552v-1.552l.776-.776V5012.6l.775-1.552v-3.88l.776-1.552v-3.1Zm-19.4-33.365,43.452-44.229-.775-.775,3.1,2.327,2.327,1.552,1.553,2.328,2.327,1.552,2.328,2.328,2.328,1.552,2.327,2.328,1.552,2.327,2.328,2.328,1.552,2.328,1.552,2.327,1.552,2.328,2.328,2.328,1.552,2.327.776,2.328,1.552,2.328,1.552,2.328,1.552,3.1.775,2.328.776,2.328,1.552,3.1.776,2.328.775,3.1.776,2.328.775,3.1v2.328l.776,3.1v3.1l.775,2.328v8.536h-65.178v-3.88l-.776-.776v-3.879l-.775-.776v-2.328l-.776-.775v-.776l-.775-1.552V4987l-.776-.776-.775-.776v-1.552l-.776-.775-.776-.776-.775-.775-.776-1.552-.775-.776-.776-.776-.775-.776-.776-1.552-.775-.776-.776-.775-1.552-.776-.776-1.552-1.552-.776-.775-.776-1.552-.776Zm.776.776c-13.967-10.863-15.519-29.486-3.88-41.9s32.589-13.967,45.78-3.879Zm-108.631-49.66,26.382-54.315h0l6.207,2.328,5.432,2.328,5.432,2.328,6.208,2.328,5.431,1.552,4.656,2.328,5.432,2.328,4.655,2.328,5.432,1.552,4.655,2.328,4.655,1.552,3.88,2.328,4.656,1.552,3.879,2.328,3.88,1.552,3.88,1.552,3.88,2.328,3.879,1.552,3.1,1.552,3.879,1.552,3.1,1.552,3.1,1.552,3.1,1.552,3.1,2.328,2.328,1.552,3.1,1.552,2.328,1.552,2.327,1.552,2.328,1.552,2.328,1.552,2.327,1.552,2.328,1.552-43.452,44.229v-.776h-1.552l-.776-.775-.775-.776-1.552-.776-1.552-1.552-2.328-.776-1.552-1.552-2.328-.776-2.327-1.552-3.1-.776-2.327-1.552-3.1-1.552-3.1-1.552-3.1-1.552-3.1-1.552-3.88-1.552-3.88-1.552-3.879-1.552-3.88-2.328-3.88-1.552-4.655-1.552-3.88-2.328-4.655-1.552-4.656-2.328-5.432-1.552-4.655-2.327-5.432-2.328-5.432-2.328-5.432-1.552-5.431-2.328-6.208-2.328Zm0,0c-16.295-6.983-24.054-24.054-17.07-38.8,7.759-15.519,27.157-21.726,43.452-15.519Zm-143.547-64.4,35.692-50.436h0l2.328,1.552,2.327,1.552,3.1,1.552,3.1,1.552,2.327,1.552,3.1,1.552,3.879,1.552,3.1,1.552,3.1,1.552,3.88,2.328,3.1,1.552,3.88,1.552,3.879,1.552,3.88,2.328,4.656,1.552,3.879,2.327,3.88,1.552,4.655,2.328,4.656,1.552,4.655,2.328,4.655,1.552,4.656,2.328,4.655,2.327,5.432,1.552,4.655,2.328,5.432,2.328,5.432,2.328,5.432,1.552,5.432,2.328,5.432,2.328,6.207,2.328,5.432,2.328-26.382,54.315-5.432-2.328-6.207-2.328-5.432-2.328-6.208-2.328-5.431-2.328-5.432-2.328-5.432-2.328-5.432-2.327-5.432-1.552-4.655-2.328-5.432-2.328-4.655-2.328-4.656-1.552-4.655-2.328-4.655-2.328-4.656-1.552-4.655-2.328-3.88-1.552-4.655-2.328-3.88-1.552-3.88-2.328-3.879-1.552-3.88-2.328-3.88-1.552-3.88-1.552-3.1-2.328-3.88-1.552-3.1-1.552-3.88-2.328-3.1-1.552-3.1-1.552-3.1-1.552Zm0,0c-14.743-9.312-19.4-27.158-10.088-41.125,10.088-13.967,30.262-17.846,45.78-9.311Zm-79.921-75.266,57.419-29.485h0l1.552,2.328.775,1.552,1.552,2.328,1.552,2.328,1.553,1.552,1.552,2.328,1.552,1.552,1.552,2.328,1.552,1.552,1.552,1.552,1.552,2.328,1.552,1.552,1.552,1.552,2.328,2.328,1.552,1.552,1.552,1.552,1.552,1.552,2.328,1.552,1.552,2.328,2.328,1.552,1.552,1.552,2.328,1.552,1.552,1.552,2.327,1.552,2.328,1.552,1.552.776,2.328,1.552,2.327,1.552,2.328,1.552,2.328,1.552,2.327,1.552,2.328.776-35.692,50.436-3.1-2.328-3.1-1.552-2.327-1.552-3.1-2.328-3.1-1.552-3.1-2.327-3.1-2.328-2.328-1.552-3.1-2.328-3.1-2.328-2.328-2.328-3.1-1.552-2.328-2.328-2.328-2.328-3.1-2.328-2.328-2.328-2.327-2.328-2.328-2.328-3.1-3.1-2.328-2.328-2.327-2.328-1.553-2.328-2.327-3.1-2.328-2.328-2.327-2.328-2.328-3.1-1.552-2.328-2.328-3.1-1.552-3.1-2.328-2.328-1.552-3.1-2.327-2.328Zm-29.486-108.63h65.955v11.639l.775,3.1v5.432l.776,2.328v3.1l.775,2.328v3.1l.776,2.328.775,2.328v3.1l.776,2.328.775,2.328.776,2.327.776,2.328.775,2.328.776,2.327.775,2.328.776,2.328.775,2.327.776,2.328,1.552,2.328.776,2.327.775,1.552,1.552,2.328.776,2.328,1.552,2.328.775,1.552,1.553,2.328-57.419,29.485-1.553-3.1-1.552-3.1-2.327-3.1-1.552-3.1-1.553-3.1-1.552-3.1-1.552-3.1-.775-3.1-1.552-3.1-1.553-3.1-.775-3.88-1.552-3.1-.776-3.1-1.552-3.1-.775-3.88-.776-3.1-.776-3.1-.775-3.879-.776-3.1-.775-3.879-.776-3.1-.775-3.879-.776-3.1v-3.879l-.775-3.88v-3.1l-.776-3.88v-10.863l-.776-3.879v-3.879Zm86.129-176.913,44.229,44.229h0l-3.88,3.1-3.88,3.1-3.88,3.88-3.88,3.1-3.1,3.88-3.88,3.88-3.1,3.1-3.1,3.88-3.1,3.88-2.328,3.879-3.1,3.879-2.328,3.88-2.327,3.88-2.328,3.879-2.328,3.879-1.552,3.88-2.327,4.655-1.553,3.88-1.552,4.656-1.552,3.879-1.552,4.656-1.552,3.879-.776,4.656-1.552,4.655-.775,4.655-.776,4.656-.775,4.656-.776,5.432v4.655l-.775,4.656v10.087h-65.955l.776-6.208v-12.415l.776-6.983.775-6.208.776-6.208,1.552-6.208.775-6.207,1.552-5.432,1.553-6.208,1.552-6.207,2.327-5.432,2.328-6.208,2.328-5.431,2.327-6.208,2.328-5.431,3.1-5.432,2.328-5.431,3.1-5.432,3.88-5.432,3.1-5.432,3.88-5.432,3.88-4.655,3.879-5.432,3.88-4.656,4.655-4.656,3.88-4.655,4.656-4.655,4.655-4.656,5.432-4.655,4.655-4.655,5.432-4.656Zm0,0c13.19-10.863,34.141-10.087,45.78,2.328,12.415,11.639,11.639,30.261-1.552,41.9ZM11475.547,4426v58.971h-8.535l-8.536.776h-15.519l-7.759.775-7.76.776-6.983.775-7.759.776-6.983.776-6.983.776-6.983,1.552-6.983.776-6.208,1.552-6.207,1.552-6.208,1.552-6.207,1.552-6.207,2.328-5.432,1.552-6.208,1.552-5.432,2.328-5.431,2.327-5.432,2.328-4.656,2.328-5.432,2.327-4.655,2.328-4.655,3.1-4.655,2.328-4.656,3.1-3.88,2.328-4.655,3.1-3.88,3.1-3.879,3.88-44.229-44.229,5.432-3.879,5.432-4.656,5.432-3.879,6.207-3.879,6.207-3.88,6.208-3.88,6.207-3.1,6.208-3.1,6.983-3.88,6.207-3.1,6.983-2.328,6.983-3.1,6.983-2.328,6.983-2.328,7.76-2.328,6.983-2.328,7.759-2.328,7.76-1.552,7.759-2.328,7.76-1.552,8.535-1.552,7.759-1.552,8.536-.776,8.535-1.552,8.535-.776,8.535-.775,8.535-.776,8.535-.776h9.312l9.311-.776h18.623Zm243.643,68.282-42.677,45h0l-3.88-3.88-4.655-3.1-4.655-2.328-4.656-3.1-4.655-3.1-4.655-2.328-4.656-3.1-5.432-2.328-5.431-2.327-5.432-2.328-5.432-2.328-5.432-2.327-6.207-2.328-5.432-1.552-6.208-2.328-6.207-1.552-6.208-1.552-6.983-1.552-6.207-1.552-6.983-1.552-6.983-.776-6.983-1.552-6.983-.776-6.983-.776-7.76-.776-7.759-.775-7.76-.776-7.759-.775h-16.295l-8.535-.776h-7.759V4426h18.622l9.312.776h8.535l9.311.776,8.535.776,9.312.775,8.535.776,8.535,1.552,8.535.776,7.76,1.552,8.535,1.552,7.759,1.552,7.76,1.552,8.535,2.328,7.76,1.552,6.983,2.327,7.759,2.328,7.76,2.328,6.983,3.1,6.983,2.328,6.983,3.1,6.983,3.1,6.983,3.1,6.207,3.1,6.983,3.1,6.207,3.879,6.208,3.879,6.207,3.88,6.208,3.88,5.432,3.879,6.207,4.656Zm.775,0c13.191,10.863,14.743,29.485,3.1,41.9s-32.589,13.19-46.556,3.1Zm66.73,214.157-3.1-58.971-31.038,31.813-.775-6.207-.776-5.432-.775-5.432-.776-5.432-.775-5.432-.776-4.655-1.552-5.432-1.552-5.432-1.552-4.655-1.552-4.655-1.553-5.432-1.552-4.656-2.327-4.656-1.552-4.655-2.328-3.88-2.328-4.655-2.327-4.656-2.328-3.879-3.1-4.656-2.328-3.879-3.1-3.879-3.1-3.88-3.1-3.88-3.1-3.879-3.88-3.879-3.1-3.88-3.88-3.88-3.879-3.1-3.88-3.88-3.88-3.88-3.88-3.1-4.655-3.1,42.677-45,6.207,3.879,4.655,4.656,5.432,4.655,5.432,4.656,4.655,4.656,4.656,4.655,4.655,5.432,4.655,4.656,3.88,5.431,3.88,4.656,4.655,5.432,3.1,5.431,3.88,5.432,3.88,5.432,3.1,6.208,3.1,5.432,3.1,5.431,3.1,6.208,2.327,6.207,2.328,6.208,2.328,5.432,2.327,6.208,2.328,6.983,1.552,6.207,1.552,6.208,1.552,6.207,1.553,6.983,1.552,6.208.775,6.983.776,6.983.775,6.983.776,6.983Zm31.037-31.038c1.552,15.519-12.415,30.261-30.262,31.038-17.846,1.552-34.141-10.863-34.917-27.158Zm-195.535-20.95,161.395-6.983,3.1,58.971-161.394,6.983-34.142-27.158Zm3.1,58.971c-17.847,0-33.365-12.415-34.142-28.71s13.191-30.261,31.037-30.261Zm-65.179-88.457,42.676-45h0l3.1,2.328,2.327,2.328,3.1,2.328,2.327,3.1,3.1,2.328,2.328,2.328,2.328,3.1,2.327,2.328,2.328,3.1,2.328,3.1,2.327,2.328,1.552,3.1,2.328,3.1,1.552,3.1,2.328,3.1,1.552,3.1,1.552,3.1,1.552,3.1,1.552,3.879,1.552,3.1.776,3.1,1.552,3.88.776,3.1,1.552,3.879.775,3.1.776,3.879.775,3.88.776,3.1.776,3.88.775,3.88.776,3.88v3.879l-65.179,5.431v-2.327l-.775-3.1v-2.328l-.776-2.328-.776-3.1v-2.328l-.775-2.328-.776-2.328-.775-2.328-.776-2.328-.775-1.552-.776-2.328-.775-2.328-.776-1.552-.776-2.328-1.552-1.552-.775-2.328-.776-1.552-1.552-1.552-.775-2.328-1.552-1.552-.776-1.552-1.552-1.552-.776-1.552-1.552-1.552-1.552-1.552-1.552-1.552-.776-.776-1.552-1.552-1.552-1.552-1.552-1.552-1.552-.776Zm0,0c-13.967-10.863-15.519-29.485-3.88-41.9,12.415-12.415,32.589-13.966,46.556-3.1Zm-86.129-20.95v-58.971h19.4l4.656.776h4.655l4.655.776h4.656l3.879.776,4.656.776,3.879.775h4.656l3.88,1.552,4.655.776,3.88.776,3.879.776,4.656,1.552,3.88.776,3.879,1.552,3.88,1.552,3.88.776,3.1,1.552,3.88,1.552,3.88,1.552,3.1,2.328,3.88,1.552,3.1,1.552,3.88,2.327,3.1,2.328,3.1,1.552,3.1,2.328,3.1,2.328-42.676,45-1.552-1.552-1.552-.776-1.552-1.552-2.328-.776-1.552-.775-1.552-1.552-2.328-.776-1.552-.776-2.328-.776-2.327-1.552-2.328-.776-1.552-.775-3.1-.776-2.328-.776-2.328-.776-2.327-.776-3.1-.776h-2.327l-3.1-.776-3.1-.775-3.1-.776h-3.1l-3.1-.775h-3.1l-3.1-.776h-6.983l-3.879-.776h-15.52Zm-78.368,15.519-41.9-45.78h0l3.1-2.328,2.328-1.552,3.1-2.328,3.1-1.552,3.1-1.552,3.1-1.552,3.1-1.552,3.879-1.552,3.1-1.552,3.1-.776,3.88-1.552,3.1-.775,3.88-1.552,3.879-.776,3.1-.776,3.879-.776,3.88-.776,3.88-.775,3.88-.776,3.879-.775,3.88-.776h4.655l3.88-.776h3.88l4.655-.776h3.88l4.655-.776h22.5v58.971h-18.622l-3.1.776h-6.983l-3.1.776h-3.1l-3.1.775h-3.1l-2.328.776h-3.1l-2.327.775-3.1.776h-2.327l-2.328.776-1.552.776-2.328.776-2.327.776h-1.552l-2.328.776-1.552.775-1.552.776-1.552.775-1.553.776-.775.776-1.552.776-.776.776-1.552.776-.775.776Zm0,0c-13.967,10.087-34.917,8.535-45.78-3.88-11.639-13.191-10.087-31.813,3.88-41.9Zm-17.847,32.589h-65.954v-5.432l.775-3.1v-2.328l.776-3.1v-2.328l.775-3.1.776-2.328.775-3.1.776-3.1.776-2.328.775-2.327.776-3.1,1.552-2.328.775-3.1,1.552-2.328,1.553-2.328,1.552-2.328,1.552-2.328,1.552-3.1,1.552-2.328,1.552-2.328,2.328-2.327,1.552-1.552,2.328-2.328,2.327-2.328,1.552-2.328,2.328-1.552,2.328-2.328,2.327-1.552,2.328-2.328,2.328-1.552,41.9,45.78-1.553.775-.775.776-1.552.775-.776,1.552-.775.776-1.552.776-.776.776-.776.776-.775,1.552-.776.775-.775.776-.776.776-.775.776v1.552l-.776.776-.775.776v.776l-.776,1.552-.776.776v.776l-.775.776v2.328l-.776,1.552v2.328l-.775.776v6.208Zm15.519,30.261-42.677,45h0l-2.327-1.552-2.328-1.552-1.552-2.328-2.328-1.552-2.327-2.328-1.552-1.552-2.328-2.328-1.552-2.328-1.552-1.552-2.328-2.328-1.552-2.328-1.552-2.328-1.552-2.328-1.552-2.328-.776-2.328-1.552-2.328-1.552-2.328-.776-2.328-.775-2.328-1.552-3.1-.776-2.328-.776-2.328-.775-3.1-.776-2.328v-2.328l-.775-3.1-.776-2.328v-5.432l-.775-3.1v-5.432h65.954v6.207l.775,1.552v2.328l.776,1.552v.776l.775.775v.776l.776.776v1.552l.776.776v.776l.775.775.776.776v.775l.775.776.776.776.775.776.776.776.775,1.552.776.775.776.776.775.775.776.776.775.776,1.552.776.776.776Zm0,0c13.967,10.863,15.519,29.485,3.88,41.9s-32.59,13.967-46.557,3.1Zm112.51,53.54-25.605,54.315h0l-6.208-2.328-5.431-2.328-6.208-2.328-5.432-2.328-5.432-2.328-4.655-2.328-5.432-1.552-4.655-2.328-5.432-2.328-4.655-2.328-4.656-1.552-4.655-2.327-3.88-1.552-4.655-2.328-3.88-1.552-3.88-2.328-4.655-1.552-3.1-2.328-3.88-1.552-3.88-2.328-3.1-1.552-3.88-1.552-3.1-1.552-3.1-2.328-3.1-1.552-3.1-1.552-2.327-1.552-3.1-2.327-2.328-1.552-3.1-1.552-2.328-2.328-2.328-1.552,42.677-45,1.552.776.776,1.552,1.552.776,1.552.775,2.327,1.552,1.553,1.552,2.327.776,2.328,1.552,2.328,1.552,3.1,1.552,2.327.776,3.1,1.552,3.1,1.552,3.1,2.328,3.88,1.552,3.1,1.552,3.88,1.552,3.88,1.552,3.879,2.328,3.88,1.552,3.88,1.552,4.655,2.328,4.656,1.552,4.655,2.328,4.655,2.328,4.655,1.552,5.432,2.328,4.656,2.328,5.432,1.552,5.431,2.328,5.432,2.328,6.208,2.328Zm.776,0c16.294,6.207,24.054,24.054,16.294,38.8-6.983,14.743-26.381,21.726-42.676,15.519Zm189.327,95.439-45.78,41.9h0l-2.327-1.552-1.553-1.552-2.327-1.552-3.1-2.328-2.328-1.552-3.1-2.328-3.1-1.552-3.879-2.328-3.1-2.328-4.656-2.328-3.88-2.328-4.655-2.328-3.88-3.1-5.432-2.328-4.655-2.328-5.432-3.1-5.432-2.328-5.432-3.1-6.207-2.328-6.207-3.1-6.208-2.328-6.207-3.1-6.983-3.1-6.983-3.1-6.983-3.1-7.76-3.1-6.983-3.1-7.759-3.1-8.535-3.1-7.76-3.88-8.535-3.1-8.535-3.1,25.605-54.315,9.312,3.1,8.535,3.88,8.535,3.1,8.535,3.88,7.76,3.1,7.759,3.1,7.76,3.1,7.759,3.1,6.983,3.1,6.983,3.879,6.983,3.1,6.983,2.328,6.208,3.1,6.207,3.1,6.208,3.1,6.207,3.1,5.432,3.1,6.207,2.328,5.432,3.1,4.655,3.1,5.432,2.328,4.656,3.1,4.655,2.328,4.655,3.1,4.656,2.328,3.879,3.1,3.88,2.328,3.88,3.1,3.88,2.328,3.1,3.1,3.88,2.328,3.1,3.1Zm0,0c13.19,11.639,13.19,30.261,0,41.9-12.415,11.639-33.365,11.639-45.78,0Zm66.73,150.53h-65.179v-8.535l-.776-3.879v-4.656l-.775-3.879v-3.88l-.776-3.879-.775-3.88-.776-3.88-.775-3.879-.776-3.1-1.552-3.879-.776-3.1-1.552-3.879-1.552-3.1-1.552-3.879-1.552-3.1-1.552-3.1-1.552-3.1-1.552-3.1-1.552-3.1-2.328-3.1-2.328-3.1-1.552-3.1-2.327-3.1-2.328-2.328-3.1-3.1-2.328-3.1-2.328-2.328-3.1-3.1-2.328-2.328-3.1-3.1,45.78-41.9,3.88,3.88,3.879,3.1,3.88,3.88,3.88,3.879,3.88,4.656,3.1,3.879,3.88,3.879,3.1,4.656,3.1,3.879,3.1,4.656,2.328,3.879,3.1,4.656,2.328,4.655,2.328,4.656,2.327,4.656,2.328,4.655,2.328,4.656,1.552,5.431,1.552,4.656,2.327,4.656.776,5.432,1.552,4.655,1.552,5.432.776,5.432.775,4.655,1.552,5.432v5.432l.776,5.432.776,5.432v16.294Zm-96.216,189.328-44.229-44.229h0l5.432-3.88,3.88-3.88,4.655-3.879,4.656-3.88,3.879-3.88,3.88-4.655,3.88-3.88,3.1-3.88,3.88-4.655,3.1-3.88,3.1-4.655,3.1-3.88,2.327-4.655,3.1-3.88,2.328-4.656,2.328-4.656,2.327-4.655,2.328-3.88,1.552-4.655,2.328-4.656,1.552-4.656,1.552-4.655.776-5.432,1.552-4.655.775-4.656,1.552-5.432.776-4.656v-5.432l.775-4.655.776-5.432v-10.863h65.179v13.967l-.776,6.208v6.983l-1.552,6.983-.776,6.207-1.552,6.983-.775,6.208-1.552,6.208-2.328,6.208-1.552,6.983-2.328,6.208-2.328,6.207-3.1,6.208-2.327,5.431-3.1,6.208-3.1,6.207-3.1,5.432-3.88,6.208-3.88,5.432-3.879,6.207-3.88,5.432-4.655,5.432-3.88,5.432-4.656,5.432-4.655,4.655-5.432,5.432-4.655,5.432-5.432,4.655-5.432,5.432-6.207,4.655-5.432,4.656Zm-260.713,76.816v-58.971h17.846l8.536-.775h8.535l8.535-.776,8.535-.775,7.759-.776,7.76-.776,7.759-.775,7.76-1.552,7.76-1.552,6.983-.776,7.759-1.552,6.983-2.328,6.983-1.552,6.983-1.552,6.207-2.327,6.208-2.328,6.983-2.328,6.207-2.327,6.208-2.328,5.432-2.328,6.207-3.1,5.432-2.328,5.432-3.1,5.432-3.1,5.432-3.1,5.431-3.1,5.432-3.879,4.656-3.1,4.655-3.879,4.655-3.88,44.229,44.229-6.208,4.655-6.207,4.655-6.207,4.655-6.983,4.656-6.208,3.88-6.983,3.879-6.983,3.88-6.983,3.88-7.759,3.88-6.983,3.1-7.76,3.1-7.759,3.1-7.76,3.1-7.759,3.1-7.76,2.327-7.76,2.328-8.535,2.328-8.535,2.327-8.535,1.552-8.535,2.328-8.535,1.552-9.312,1.552-8.535,1.552-9.311.776-9.312,1.552-9.312.776-9.311.775-9.312.776H11435.2l-9.312.775h-20.174ZM11209.4,5215.9l27.157-54.315h0l4.655,2.328,3.88,1.552,4.655,1.552,4.656,1.552,4.655,1.552,4.655,1.552,4.656,1.553,4.655,1.552,4.655,1.552,5.432.775,4.656,1.552,5.431.776,4.656,1.552,5.432.776,4.655.775,5.432,1.552,5.432.776,5.432.775,5.431.776,5.432.775,5.432.776h6.208l5.432.776,5.431.775h6.208l5.432.776h6.207l6.208.775h24.054v58.971h-27.158l-6.983-.775h-6.207l-6.983-.776h-6.207l-6.983-.775-6.208-.776-6.207-.775-6.983-.776-6.208-.776-6.207-.775-6.208-.776-6.207-1.552-6.207-.775-6.208-1.552-5.432-.776-6.207-1.552-6.208-1.552-5.432-1.552-6.207-1.552-5.432-1.552-6.207-1.553-5.432-1.552-5.432-1.552-5.432-2.327-5.432-1.553-5.432-2.327-5.432-2.328-5.431-1.552Zm0,0c-17.071-6.983-24.055-24.83-16.295-39.572s27.157-20.95,43.452-14.743Zm-124.926-102.423,58.2-26.382h0l1.552,2.328,2.328,3.1,1.552,3.1,2.327,2.328,1.553,3.1,2.327,2.328,1.552,3.1,2.328,2.328,2.328,2.327,2.327,3.1,2.328,2.328,3.1,2.328,2.328,2.327,2.328,2.328,3.1,3.1,3.1,2.328,3.1,2.328,2.328,2.327,3.1,2.328,3.88,1.552,3.1,2.328,3.1,2.327,3.88,2.328,3.1,1.552,3.88,2.328,3.88,2.327,3.88,1.553,3.879,2.327,3.88,1.552,3.88,2.328,3.88,1.552,4.655,1.552L11209.4,5215.9l-5.432-2.328-5.432-2.327-4.655-2.328-5.432-2.328-4.656-3.1-4.655-2.328-5.432-2.327-4.655-3.1-4.656-2.328-3.879-3.1-4.656-2.328-4.655-3.1-3.88-3.1-4.655-3.1-3.88-3.1-3.88-3.1-3.879-3.1-3.88-3.1-3.88-3.88-3.1-3.1-3.88-3.1-3.1-3.879-3.1-3.88-3.88-3.1-3.1-3.88-3.1-3.88-2.327-3.88-3.1-3.88-2.328-3.879-3.1-3.88-2.328-4.655-2.328-3.88Zm0,0c-8.535-14.743-1.552-32.589,13.967-39.573,16.295-7.759,36.469-1.552,44.229,13.191Zm-2.327-173.809,3.88,58.971,31.037-28.709v24.83l.775,3.88v8.535l.776,3.88.775,3.1v3.88l.776,3.879.775,3.879.776,3.88.776,3.1.775,3.88.776,3.88,1.552,3.1.775,3.88.776,3.1,1.552,3.88.776,3.1,1.552,3.1,1.552,3.88.775,3.1,1.552,3.1,1.553,3.1,1.552,3.88,1.552,3.1,1.552,3.1,1.552,3.1-58.2,26.382-2.327-3.88-2.328-4.655-1.552-3.88-2.328-3.88-1.552-3.88-2.327-4.655-1.553-3.88-1.552-4.655-1.552-3.88-1.552-4.655-1.552-4.656-1.552-3.879-.776-4.656-1.552-4.656-.775-3.879-1.552-4.656-.776-4.655-.776-4.656-.775-4.656-.776-4.655-.775-4.656-.776-4.656-.775-4.655v-4.656l-.776-4.656v-5.432l-.775-4.655v-24.83Zm-31.037,28.709c.775-16.294,15.519-28.709,34.141-28.709,17.847.775,31.813,13.967,31.813,30.261Z" transform="translate(-4420 -4426)" fill="#fff"/>
    <path id="_1-2" data-name="1" d="M5061.244,5052.932H4736.128l-98.543,162.946H4463l461.68-738.687h190.879l131.909,738.687H5087.625Zm-20.174-123.373-48.884-297.182-180.792,297.182Zm488.837-452.368h167.6l-97.767,401.933-24.054,98.543c-1.552,8.535-3.1,19.4-5.431,31.813,0,27.158,12.415,49.66,38.021,66.73,26.382,17.07,63.626,26.382,112.51,26.382q66.342,0,109.406-20.95c28.709-13.967,50.436-34.141,66.73-61.3,15.519-27.934,31.813-73.713,48.108-138.892l93.112-404.26h168.377l-96.991,418.227c-20.174,82.249-44.229,144.323-70.61,187.775s-66.73,78.369-121.045,105.526c-53.54,27.158-122.6,40.349-204.846,40.349-98.543,0-174.584-20.95-226.572-62.851q-79.145-64.014-79.145-162.945c.776-13.967,3.1-28.709,5.432-45,2.328-10.863,8.535-41.125,20.174-91.56Zm1002.5,738.687H6364.033L6506.8,4601.34H6266.265l27.158-124.149h644.8l-27.158,124.149H6675.181Zm374-289.423c0-44.228,6.983-90.008,21.726-138.892,19.4-64.4,48.108-121.045,86.9-168.377,38.8-48.108,87.68-85.353,147.427-113.286,58.971-27.934,126.477-41.9,201.742-41.9,101.647,0,183.12,28.709,245.97,85.353q93.112,84.965,93.112,225.8c0,78.369-20.174,153.635-60.522,226.572S7546.552,5131.3,7477.495,5170.1c-69.834,39.572-148.2,58.971-236.659,58.971-76.042,0-140.444-15.519-192.431-46.556-51.211-31.813-88.456-69.834-109.406-116.39Q6906.409,4996.29,6906.409,4926.455Zm166.826-3.1c0,50.436,17.07,93.112,51.211,127.253,34.141,34.917,79.145,51.987,135.012,51.987,45.78,0,89.232-13.967,131.132-40.349,41.9-27.157,76.041-68.282,103.975-123.373,27.158-55.091,41.125-108.63,41.125-161.394,0-58.2-17.847-103.975-51.987-136.564-34.917-33.365-79.145-49.66-132.685-49.66-82.249,0-148.979,34.141-200.19,103.975C7098.84,4764.286,7073.234,4840.327,7073.234,4923.352Zm1156.138,292.526H8061l171.48-738.687h332.1c59.747,0,106.3,6.983,140.444,19.4s62.074,33.365,81.473,62.075c20.174,29.485,30.261,63.626,30.261,103.975a254.473,254.473,0,0,1-24.054,108.63c-15.519,35.693-35.692,63.626-58.971,85.353a277.417,277.417,0,0,1-74.489,48.108c-27.158,10.863-62.851,18.622-108.631,24.83-26.382,3.1-76.041,4.656-148.2,4.656H8294.55Zm93.888-405.036h51.987c88.456,0,148.2-5.432,177.688-15.519,29.485-9.312,53.539-25.606,70.609-47.332,16.295-22.5,25.606-46.556,25.606-72.937,0-17.847-4.656-31.813-13.191-43.452a80.981,80.981,0,0,0-37.244-24.83c-15.519-4.655-51.212-7.759-105.527-7.759H8372.144Zm952.844,242.09H8950.988l-98.543,162.946H8677.86l461.68-738.687h190.879l131.908,738.687H9302.485Zm-20.174-123.373-48.884-297.182-180.792,297.182Zm480.3,286.319H9567.854l172.257-738.687h363.136c62.074,0,110.958,6.208,145.875,17.846s62.851,32.589,83.8,63.627c21.726,31.037,32.589,68.282,32.589,112.51,0,62.851-20.95,114.062-62.851,155.187-41.124,41.124-104.75,65.954-189.327,76.041,21.727,17.07,41.9,40.349,61.3,69.058q55.868,86.128,125.7,244.418h-180.792c-14.743-41.9-43.452-106.3-85.353-194.759-23.278-47.332-48.108-79.921-74.489-96.216q-23.279-13.967-83.8-13.967h-68.282Zm96.991-415.9h89.232c90.784,0,150.53-4.655,180.016-13.967q44.228-15.13,69.834-46.556c16.295-20.95,24.83-42.677,24.83-65.179,0-27.157-11.639-47.332-36.469-61.3-14.743-7.759-46.556-11.639-96.216-11.639H9879Zm893.1,415.9h-168.377l142.771-614.538h-240.539l27.934-124.149h644.8l-27.934,124.149h-235.883Zm367.016-238.211,160.618-6.983c2.327,45.78,10.862,76.817,26.381,92.336,24.055,26.381,69.834,39.572,135.788,39.572,55.092,0,95.439-9.312,120.27-27.158,24.054-17.846,36.469-38.8,36.469-64.4q0-32.59-30.261-55.867-20.95-16.295-116.391-53.54c-63.626-24.83-109.406-45.78-138.892-62.85a190.509,190.509,0,0,1-69.058-64.4c-16.295-27.158-24.83-58.2-24.83-93.888,0-62.075,24.83-114.062,74.489-155.187,49.66-40.349,121.821-61.3,217.262-61.3s169.929,20.174,222.692,61.3c52.763,40.349,81.473,94.664,86.9,162.17l-161.395,6.983c-3.879-35.693-17.846-62.851-42.676-81.473q-36.081-27.934-107.079-27.934c-46.556,0-79.145,6.983-99.318,21.726s-29.485,33.365-29.485,55.867c0,21.726,8.535,38.8,27.157,52.763q26.77,20.95,121.045,58.195c93.888,36.469,153.635,66.73,179.24,89.232,38.8,33.365,57.419,76.817,57.419,129.58,0,65.179-28.709,121.046-85.353,167.6-57.419,45.78-136.563,69.058-238.986,69.058-70.61,0-131.133-10.087-183.12-31.812-51.212-20.95-87.681-51.212-108.631-88.457C11101.871,5070.778,11092.56,5027.326,11093.336,4977.667Z" transform="translate(-4429.635 -4434.515)" fill="#fff"/>
  </g>
  <path id="Path_30059" data-name="Path 30059" d="M1965.684,1098.169l100.1-504.355c2.328-10.863,10.863-18.622,21.726-18.622h276.232c111.734,0,148.2,73.714,126.477,183.12-16.295,81.473-57.419,137.34-124.925,157.514,6.983,10.087,13.191,20.95,18.622,30.261,27.158,53.539,49.66,115.614,69.834,172.257,3.1,7.759,1.552,15.519-2.328,21.726-4.656,6.983-10.863,10.863-18.622,10.863h-142c-10.087,0-17.846-6.208-20.95-16.295-14.743-43.452-34.141-102.423-58.195-142-3.879-6.207-17.846-29.485-26.382-29.485h-33.365l-33.365,168.377c-1.552,11.639-10.863,19.4-21.726,19.4H1982.755c-6.983,0-13.191-3.1-17.846-9.311h0a19.471,19.471,0,0,1-17.071,9.311H1820.585c-10.863,0-19.4-7.759-21.726-19.4-6.983-31.813-11.639-64.4-16.295-97.767h-170.7l-48.884,103.975c-3.88,7.759-11.639,13.191-20.174,13.191H1420.2c-3.1,0-5.432-.776-8.535-1.552a682.681,682.681,0,0,1-125.7,11.639c-201.742,0-240.539-110.958-200.966-308.045,16.295-82.249,44.228-176.136,108.63-230.452C1254.155,572.087,1320.885,562,1395.374,562c48.884,0,100.1,4.656,146.651,20.174,6.208,2.328,10.863,6.208,13.191,13.191a24.165,24.165,0,0,1,.776,19.4L1512.54,721.842c-4.656,12.415-17.846,17.846-28.709,13.191-26.382-10.863-58.971-12.415-86.128-12.415-34.917,0-68.282-1.552-96.991,20.95-30.261,23.278-42.676,84.577-49.66,121.045-5.431,29.485-13.191,76.817-6.207,107.854,14.743,31.037,58.971,27.934,87.68,27.934,31.037.776,62.85-3.1,93.112-13.191,6.983-2.328,13.967-.776,20.174,3.88,4.656,3.88,7.759,8.535,8.535,14.743,71.386-142.771,148.2-282.439,228.124-419a20.221,20.221,0,0,1,18.622-11.639H1878c11.639,0,21.726,9.311,22.5,21.726C1914.473,765.294,1935.423,932.119,1965.684,1098.169ZM4077.77,988.762l15.519-66.73c2.328-11.639,13.191-21.726,24.054-21.726H4264.77c10.087,0,16.294,10.087,13.967,21.726l-36.469,156.738c-.776,6.207-4.656,11.639-9.312,16.294h.776a217.17,217.17,0,0,1-36.469,25.606c-13.191,7.759-27.934,14.743-43.452,21.726-16.295,6.207-31.813,11.639-48.108,14.743a235.05,235.05,0,0,1-45.78,4.656c-19.4,0-37.245-2.328-52.763-6.983-16.295-4.656-30.261-11.639-42.676-21.726-12.415-9.311-23.278-20.95-31.037-35.693-8.535-13.967-13.967-29.485-17.07-47.332a259.784,259.784,0,0,1-3.88-55.091,277.243,277.243,0,0,1,8.535-59.747,313.586,313.586,0,0,1,20.174-62.85,308.449,308.449,0,0,1,31.037-56.643h0c12.415-17.846,26.382-34.141,41.9-47.332,15.519-13.967,31.813-25.606,50.436-34.917a.76.76,0,0,1,.776-.776,215.361,215.361,0,0,1,44.228-16.295c15.519-3.1,31.813-5.432,49.66-5.432,22.5,0,42.676,3.1,58.971,8.535h.775c17.07,6.207,31.037,14.743,41.9,27.158h0c11.639,11.639,19.4,25.606,24.054,41.9q8.147,24.442,6.983,55.867c-.775,11.639-10.087,23.278-20.95,26.382h-1.552l-70.609,14.743c-10.087,1.552-17.847-4.656-17.847-15.519h0c-.776-7.759-1.552-13.967-3.88-19.4a30.964,30.964,0,0,0-8.535-14.743,44.027,44.027,0,0,0-13.967-9.311c-6.207-2.328-13.19-3.1-20.95-3.1a103.207,103.207,0,0,0-34.917,6.207,110.234,110.234,0,0,0-28.709,19.4,115.231,115.231,0,0,0-22.5,32.589c-7.759,14.743-13.191,31.037-17.846,50.436-4.656,20.95-6.983,39.573-6.208,55.091,0,13.967,3.1,26.382,7.759,34.917h0c5.432,9.311,11.639,16.295,19.4,20.95q12.8,6.983,30.261,6.983a81.477,81.477,0,0,0,18.623-2.328,62.753,62.753,0,0,0,19.4-6.207h1.552l18.622-9.311c3.1-1.552,5.432-3.1,8.535-4.656l3.88-17.07h-59.747C4081.65,1010.488,4075.442,1001.177,4077.77,988.762Zm177.688,144.323,90.008-392.621c3.1-12.415,13.191-21.726,24.054-21.726h250.626c10.863,0,17.071,9.311,13.967,21.726l-14.743,65.954c-3.1,12.415-13.967,22.5-24.054,22.5H4431.595l-9.311,42.676h150.531c10.087,0,16.294,10.087,13.967,22.5l-15.519,65.954c-2.328,12.415-13.19,22.5-24.054,22.5H4396.678l-13.967,62.074H4552.64c10.087,0,16.294,10.087,13.967,21.726l-15.519,66.73c-2.328,11.639-13.191,21.726-24.054,21.726H4269.425C4259.338,1154.812,4253.13,1144.725,4255.458,1133.086ZM2711.354,729.6l-14.743,75.265h154.41a23.2,23.2,0,0,1,17.846,8.535c3.88,5.432,5.432,12.415,3.88,20.174l-20.174,103.975c-2.328,11.639-11.639,19.4-22.5,19.4H2666.35l-34.917,174.585c-2.328,11.639-10.863,19.4-21.726,19.4H2495.645c-7.759,0-13.191-3.1-17.846-9.311-4.656-5.431-6.207-12.415-4.656-20.174L2578.67,593.813a21.76,21.76,0,0,1,21.726-18.622H2961.2a20.607,20.607,0,0,1,17.071,8.535,24.118,24.118,0,0,1,4.656,20.174l-20.95,107.079a23.179,23.179,0,0,1-22.5,18.622Zm457.024,304.165H2996.9l-48.108,103.975c-3.88,7.759-11.639,13.191-20.174,13.191H2805.242c-7.76,0-14.743-4.656-18.623-11.639-4.656-7.759-4.656-15.519-.776-23.278,86.9-180.792,181.568-356.929,281.663-529.185,4.656-7.759,11.639-11.639,19.4-11.639h176.912c11.639,0,20.95,9.311,22.5,21.726,13.967,176.136,36.469,351.5,69.058,525.306a21.932,21.932,0,0,1-4.656,19.4c-4.656,6.208-10.863,9.311-17.846,9.311H3206.4c-10.863,0-20.174-7.759-22.5-19.4C3177.689,1099.721,3173.034,1067.131,3168.378,1033.766ZM3643.248,729.6l-79.921,401.933c-2.328,11.639-11.639,19.4-21.726,19.4h-116.39c-6.983,0-12.415-3.1-17.071-9.311-4.656-5.431-6.208-12.415-4.656-20.174L3481.854,729.6h-137.34a20.607,20.607,0,0,1-17.07-8.535,24.117,24.117,0,0,1-4.656-20.174l20.95-107.079a23.18,23.18,0,0,1,22.5-18.622h444.609a23.2,23.2,0,0,1,17.846,8.535,24.117,24.117,0,0,1,4.656,20.174l-21.726,107.079c-2.328,10.863-10.863,18.622-21.726,18.622Zm139.667,249.074c62.851,0,89.232,20.95,75.265,90.784-5.431,24.83-13.967,53.539-34.141,69.058-17.846,14.743-44.228,17.07-66.73,17.07-66.73,0-87.68-26.382-72.937-96.215C3697.563,995.746,3723.169,978.675,3782.916,978.675ZM1752.3,752.879c-22.5,41.9-45,85.352-65.954,128.029h78.369C1760.062,838.232,1756.182,795.555,1752.3,752.879Zm446.937-25.606-17.846,87.68h99.319c21.726,0,31.037-29.485,34.141-47.332,2.328-10.863,10.087-40.348-5.431-40.348Zm938.877,25.606c-23.278,41.9-45,85.352-66.73,128.029h79.145C3145.876,838.232,3141.22,795.555,3138.117,752.879Z" transform="translate(-240.012 -125.926)" fill="#fff" fill-rule="evenodd"/>
</svg>
