<svg xmlns="http://www.w3.org/2000/svg" width="52.041" height="44.235" viewBox="0 0 52.041 44.235"><g transform="translate(0)"><path d="M44.235,9.173H32.092V8.306A7.815,7.815,0,0,0,24.286.5H7.806A7.815,7.815,0,0,0,0,8.306V18.714A7.815,7.815,0,0,0,7.806,26.52h.867v6.939a.867.867,0,0,0,1.481.613l7.552-7.552h2.243v.867a7.815,7.815,0,0,0,7.806,7.806H32.6l9.287,9.287a.867.867,0,0,0,1.481-.613V35.194h.867a7.815,7.815,0,0,0,7.806-7.806V16.98A7.815,7.815,0,0,0,44.235,9.173ZM17.347,24.786a.867.867,0,0,0-.613.254l-6.326,6.326V25.653a.867.867,0,0,0-.867-.867H7.806a6.078,6.078,0,0,1-6.071-6.071V8.306A6.078,6.078,0,0,1,7.806,2.235h16.48a6.078,6.078,0,0,1,6.071,6.071v.867h-2.6a7.815,7.815,0,0,0-7.806,7.806v7.806Zm32.959,2.6a6.078,6.078,0,0,1-6.071,6.071H42.5a.867.867,0,0,0-.867.867v7.447l-8.06-8.06a.867.867,0,0,0-.613-.254h-5.2a6.078,6.078,0,0,1-6.071-6.071V16.98a6.078,6.078,0,0,1,6.071-6.071h16.48a6.078,6.078,0,0,1,6.071,6.071Zm0,0" transform="translate(0 -0.5)"/><path d="M252.816,144.5H232.867a.867.867,0,1,0,0,1.735h19.949a.867.867,0,0,0,0-1.735Zm0,0" transform="translate(-206.847 -128.888)"/><path d="M252.816,192.5H232.867a.867.867,0,1,0,0,1.735h19.949a.867.867,0,0,0,0-1.735Zm0,0" transform="translate(-206.847 -171.684)"/><path d="M252.816,240.5H232.867a.867.867,0,0,0,0,1.735h19.949a.867.867,0,0,0,0-1.735Zm0,0" transform="translate(-206.847 -214.48)"/><path d="M40.867,66.235H59.082a.867.867,0,0,0,0-1.735H40.867a.867.867,0,1,0,0,1.735Zm0,0" transform="translate(-35.663 -57.561)"/><path d="M53.878,112.5H40.867a.867.867,0,1,0,0,1.735h13.01a.867.867,0,1,0,0-1.735Zm0,0" transform="translate(-35.663 -100.357)"/><path d="M53.01,160.5H40.867a.867.867,0,1,0,0,1.735H53.01a.867.867,0,1,0,0-1.735Zm0,0" transform="translate(-35.663 -143.153)"/></g></svg>