<svg xmlns="http://www.w3.org/2000/svg" width="53.574" height="53.573" viewBox="0 0 53.574 53.573"><g transform="translate(0)"><path d="M15.964,18.976a1.163,1.163,0,0,0-1.647,0L2.329,30.963V1.165A1.165,1.165,0,0,0,0,1.165v32.61a1.163,1.163,0,0,0,.719,1.076,1.144,1.144,0,0,0,.446.089,1.166,1.166,0,0,0,.823-.341L15.964,20.622A1.163,1.163,0,0,0,15.964,18.976Zm0,0"/><path d="M79.961,128.339a1.163,1.163,0,0,0-1.647,0L64.339,142.314a1.165,1.165,0,1,0,1.647,1.647l13.976-13.976A1.163,1.163,0,0,0,79.961,128.339Zm0,0" transform="translate(-54.68 -109.363)"/><path d="M143.961,128.339a1.163,1.163,0,0,0-1.647,0l-13.976,13.976a1.165,1.165,0,1,0,1.647,1.647l13.976-13.976A1.163,1.163,0,0,0,143.961,128.339Zm0,0" transform="translate(-109.363 -109.363)"/><path d="M207.961,128.339a1.163,1.163,0,0,0-1.647,0l-13.976,13.976a1.165,1.165,0,1,0,1.647,1.647l13.976-13.976A1.163,1.163,0,0,0,207.961,128.339Zm0,0" transform="translate(-164.046 -109.363)"/><path d="M271.584,128.084a1.161,1.161,0,0,0-1.269.252l-13.976,13.976a1.165,1.165,0,1,0,1.647,1.647l11.988-11.988v29.8a1.165,1.165,0,1,0,2.329,0V129.16A1.163,1.163,0,0,0,271.584,128.084Zm0,0" transform="translate(-218.729 -109.361)"/></g></svg>