<svg xmlns="http://www.w3.org/2000/svg" xmlns:xlink="http://www.w3.org/1999/xlink" width="74.53" height="52.55" viewBox="0 0 74.53 52.55">
  <defs>
    <clipPath id="clip-path">
      <rect id="Rectangle_996" data-name="Rectangle 996" width="74.53" height="52.55" fill="none"/>
    </clipPath>
  </defs>
  <g id="download-1" clip-path="url(#clip-path)">
    <path id="Path_9398" data-name="Path 9398" d="M77.24,69.49H76.7v-.28h1.38v.28h-.54v1.43h-.3Zm1.43-.28H79l.52.81.52-.81h.32v1.71H80V69.69l-.54.8h0L79,69.7v1.22h-.29Zm-5.46,5H74V72.37l1.79-3.16h-.83l-1.31,2.52-1.23-2.52h-.86l1.69,3.17Zm-7.28-2.45a2.38,2.38,0,0,0,2.61,2.53A4.51,4.51,0,0,0,70.07,74V71.74h-.76v1.82a4.081,4.081,0,0,1-.66.07,1.81,1.81,0,0,1-2-2,1.7,1.7,0,0,1,1.84-1.87,3.56,3.56,0,0,1,1.24.21l.21-.58a3.29,3.29,0,0,0-1.46-.27,2.36,2.36,0,0,0-2.61,2.59m-6.74,0a2.33,2.33,0,0,0,2.48,2.58,2.4,2.4,0,0,0,2.6-2.57,2.32,2.32,0,0,0-2.47-2.56,2.41,2.41,0,0,0-2.61,2.55m4.31,0a1.78,1.78,0,1,1-1.76-1.94,1.73,1.73,0,0,1,1.76,1.94M55.21,74.2h2.91v-.63H56V69.21h-.75Zm-7.09-2.5a2.34,2.34,0,0,0,2.48,2.58,2.4,2.4,0,0,0,2.6-2.57,2.32,2.32,0,0,0-2.47-2.56,2.41,2.41,0,0,0-2.61,2.55m4.31,0a1.78,1.78,0,1,1-1.77-1.94,1.73,1.73,0,0,1,1.77,1.94M42.06,74.19h.75V70.08l2.31,4.1h1.06v-5h-.77v4.18l-2.36-4.17h-1Zm-6.42,0h.75V72h2.55v2.19h.75v-5h-.75v2.17H36.39V69.21h-.75Zm-5.91-2.45a2.37,2.37,0,0,0,2.62,2.53A3.85,3.85,0,0,0,33.81,74l-.18-.58a4.24,4.24,0,0,1-1.16.17,1.81,1.81,0,0,1-2-2,1.69,1.69,0,0,1,1.84-1.87,3.6,3.6,0,0,1,1.25.21l.2-.58a3.34,3.34,0,0,0-1.47-.27,2.36,2.36,0,0,0-2.6,2.59M25,74.19h3.08v-.61H25.76V72h2v-.6h-2V69.82h2.17v-.61H25Zm-4.08,0h.75V69.83h1.66v-.62H19.26v.62h1.66Zm51.32-8.25H73V64h.58A2.77,2.77,0,0,0,74,64l1.35,1.93h.95l-1.55-2.11a1.41,1.41,0,0,0,.9-1.36c0-1-.71-1.51-1.7-1.51H72.24ZM73,63.45V61.57h.8c.72,0,1.07.25,1.07.94s-.49,1-1.24,1Zm-6,2.48h3.08v-.61H67.73V63.73h2v-.59h-2V61.57H69.9V61H67Zm-5.16,0h.76V63.87h2.17v-.59h-2.2V61.57H64.9V61H61.81Zm-6.63,0h.76l.67-1.74h1.89l.6,1.74h.79l-1.76-5h-1Zm1.65-2.32.78-2.15.69,2.15ZM50.31,65.7a2.88,2.88,0,0,0,1.46.32c1,0,1.84-.43,1.84-1.42,0-1.59-2.44-1.48-2.44-2.47,0-.41.33-.61.86-.61a3,3,0,0,1,1.08.2l.21-.55A2.94,2.94,0,0,0,52,60.9c-.82,0-1.56.4-1.56,1.25,0,1.65,2.41,1.37,2.41,2.49,0,.54-.54.73-1.11.73a2.92,2.92,0,0,1-1.22-.25Zm-6.42.23h.76V64.12L46.43,61H45.6l-1.31,2.52L43.06,61H42.2l1.69,3.17Zm-8-2.5A2.34,2.34,0,0,0,38.36,66,2.4,2.4,0,0,0,41,63.45a2.32,2.32,0,0,0-2.47-2.56,2.41,2.41,0,0,0-2.61,2.55m4.31,0a1.78,1.78,0,1,1-1.77-1.94,1.73,1.73,0,0,1,1.77,1.94m-8,3.83a2.18,2.18,0,0,0,1.48-2.41V61h-.76v3.91a1.76,1.76,0,0,1-1,1.85Zm-6.7-1.34h.75V61.84l2.31,4.1h1.06V61h-.77v4.18L26.49,61h-1Zm-5.55-5H22.9v.6H20.7v1.58h2v.59h-2v1.59H23v.61H19.95Z" transform="translate(-10.74 -21.73)" fill="#fff"/>
    <path id="Path_9399" data-name="Path 9399" d="M83.73,23.23a1.51,1.51,0,1,1-.44-1.06,1.45,1.45,0,0,1,.44,1.06m-.33,0a1.167,1.167,0,0,0-2-.83,1.18,1.18,0,0,0,0,1.67,1.17,1.17,0,0,0,2-.83m-.33.71H82.6l-.45-.55H82v.55h-.37v-1.5h.83a.56.56,0,0,1,.19.06.39.39,0,0,1,.15.14.44.44,0,0,1,0,.47.59.59,0,0,1-.24.17Zm-.64-1.06a.19.19,0,0,0,0-.09.15.15,0,0,0-.07-.06H82v.42h.25a.23.23,0,0,0,.11,0,.18.18,0,0,0,.06-.07.26.26,0,0,0,0-.11" transform="translate(-10.74 -21.73)" fill="#fff"/>
    <path id="Path_9400" data-name="Path 9400" d="M78.27,33.6h-3V43.8H71.12V33.6h-3v-3H78.27ZM65.52,37.79H56.93v.14c0,2.34.37,3.14,2.28,3.14,1.29,0,2.27-.14,2.33-1.54h4a3.627,3.627,0,0,1-1.72,3.51,9.83,9.83,0,0,1-4.59.76c-5.12,0-6.33-1.73-6.33-6.61,0-5,1.11-6.63,6.33-6.63,4.88,0,6.31,1.32,6.31,6.63Zm-16,10.93H21.7a8.92,8.92,0,0,1-6-2.47c-2.07-2.22-2.52-5.71-2.52-9s.45-6.81,2.52-9a8.92,8.92,0,0,1,6-2.47H49.53Zm34-20.84A9.91,9.91,0,0,0,75,23.26H21a9.91,9.91,0,0,0-8.51,4.62c-1.45,2.52-1.77,6.62-1.77,9.34s.32,6.82,1.77,9.34A9.91,9.91,0,0,0,21,51.17H75a9.91,9.91,0,0,0,8.5-4.62c1.45-2.52,1.78-6.62,1.78-9.34s-.32-6.82-1.78-9.34m-22,7.66v.14H56.93c.05-1.78.39-2.37,2.21-2.37,1.5,0,2.33.16,2.33,2.23M42.93,40.09c0-.68-.2-1.05-.63-1.24a5.08,5.08,0,0,0-1.74-.17c-5.47,0-6.37-1.22-6.37-3.83,0-4.15,2.68-4.23,6.37-4.23,2.46,0,5.74,0,5.74,3.17v.53H42.42c-.19-1-1-1.11-1.85-1.11-2.27,0-2.37.28-2.37,1.16s.13,1.21,2.36,1.26c4.5.1,6.37.36,6.37,4,0,3.78-2.89,4.36-6.37,4.36-.85,0-1.68,0-2.45-.05-2.53-.2-3.89-1.14-3.92-4h4.13c0,1.46,1.15,1.49,2.24,1.49,2,0,2.37-.12,2.37-1.26M25,33.45c1.49,0,2.29.15,2.29,2.19v.1H22.87c0-1.75.4-2.29,2.17-2.29m-6.3,3.85c0,4.89,1.22,6.65,6.37,6.65a9.88,9.88,0,0,0,4.61-.77c1.07-.62,1.71-1.69,1.74-3.59H27.4c0,1.39-1,1.54-2.29,1.54-1.88,0-2.24-.76-2.24-3.1v-.1h8.59V37.3c0-5.34-1.44-6.67-6.35-6.67-5.25,0-6.37,1.63-6.37,6.67" transform="translate(-10.74 -21.73)" fill="#fff"/>
  </g>
</svg>
