<svg xmlns="http://www.w3.org/2000/svg" width="101.845" height="33.915" viewBox="0 0 101.845 33.915"><g transform="translate(0.004)"><g transform="translate(-0.004 0.249)"><path d="M33.629.621H2.317A1.928,1.928,0,0,0,.046,2.438c-.115,2.1,0,29.539,0,29.539S0,33.966,1.634,34.023s7.938,0,7.938,0Z" transform="translate(0.004 -0.608)" fill="#ffc500"/></g><g transform="translate(23.874 6.85)"><path d="M69.013,16.74,58.35,32.42h10.9Z" transform="translate(-58.35 -16.74)" fill="#ffc500"/></g><g transform="translate(17.938 25.709)"><path d="M47.509,62.83s-2.946,4.137-3.192,4.771a6.162,6.162,0,0,0-.454,2.954l16.339.225s.634-.225.679-2.5,0-5.454,0-5.454Z" transform="translate(-43.845 -62.83)" fill="#ffc500"/></g><g transform="translate(39.12)"><path d="M95.61,33.05,101.474,0h4.444L100.23,33.226Z" transform="translate(-95.61)" fill="#ffc500"/></g><g transform="translate(52.099 0.119)"><path d="M128.566,28a12.42,12.42,0,0,0,3.949,1.837,14.885,14.885,0,0,0,5.319-.16,5.682,5.682,0,0,0,2.455-2.39,7.432,7.432,0,0,0-.888-5.319,32.905,32.905,0,0,0-4.976-4.62A15.07,15.07,0,0,1,129.81,10.4c-.487-1.8.331-6.011,1.821-7.5A8.217,8.217,0,0,1,137.65.29h39.421l-.708,4.092H165.524l-4.976,29.134H156.1L161.08,4.554,137.625,4.2a3.9,3.9,0,0,0-2.132,1.228,4.921,4.921,0,0,0-1.064,3.732,6.621,6.621,0,0,0,2.279,3.7c1.228,1.228,2.909,2.729,3.94,3.76s3.458,3.548,4.092,4.976A10.993,10.993,0,0,1,145.1,27.1a8.679,8.679,0,0,1-2.488,4.264,11.118,11.118,0,0,1-4.62,2.308,15.549,15.549,0,0,1-6.22.18,15.173,15.173,0,0,1-4.44-1.42Z" transform="translate(-127.33 -0.29)" fill="#ffc500"/></g></g></svg>