<svg xmlns="http://www.w3.org/2000/svg" width="59.036" height="53.626" viewBox="0 0 59.036 53.626"><g transform="translate(0)"><g transform="translate(53.915 35.201)"><path d="M472.367,331.877l-2.814-2.792a1.153,1.153,0,1,0-1.624,1.638l2.814,2.792a1.153,1.153,0,0,0,1.624-1.638Z" transform="translate(-467.587 -328.751)"/></g><g transform="translate(51.043 32.342)"><path d="M444.645,304.289a1.153,1.153,0,0,0-1.631,0l0,0a1.153,1.153,0,1,0,1.633,0Z" transform="translate(-442.675 -303.951)"/></g><g transform="translate(0 0)"><g transform="translate(0 0)"><path d="M43.181,61.459,54.368,50.272a4.343,4.343,0,0,0-2.1-7.306,4.347,4.347,0,0,0-3.2-6.114,4.339,4.339,0,0,0-3.385-5.641,4.348,4.348,0,0,0-6.2-5.184l-.111-.12a7.7,7.7,0,0,0-5.616-2.445H24.7a1.153,1.153,0,0,0-1.153,1.153v1.512a5.239,5.239,0,0,0,.3,1.748,4.346,4.346,0,0,0-5.793,5.379,4.346,4.346,0,0,0-3.39,5.642,4.346,4.346,0,0,0-3.2,6.111,4.346,4.346,0,0,0-2.1,7.308l2.3,2.3L.337,65.944a1.153,1.153,0,1,0,1.631,1.631L13.4,56.139a4.344,4.344,0,0,0,6.488-3.954c.058,0,.117,0,.175,0a4.342,4.342,0,0,0,4.346-4.344c0-.059,0-.117,0-.175.058,0,.116,0,.173,0a4.342,4.342,0,0,0,4.346-4.344c0-.059,0-.117,0-.175.058,0,.116,0,.173,0a4.344,4.344,0,0,0,3.361-7.1L40.114,28.4A2.039,2.039,0,1,1,43,31.289l-1.129,1.129-4.1,4.1A1.153,1.153,0,1,0,39.4,38.144l4.1-4.1a2.039,2.039,0,1,1,2.884,2.884l-1.129,1.129-2.967,2.967a1.153,1.153,0,1,0,1.631,1.631l2.967-2.967a2.039,2.039,0,1,1,2.884,2.884l-1.549,1.549L46.8,45.543a1.153,1.153,0,1,0,1.631,1.631l1.418-1.418a2.039,2.039,0,0,1,2.883,2.885L41.548,59.829a15.623,15.623,0,0,1-10.513,4.58,1.153,1.153,0,0,0-.775.339L19.925,75.121a1.153,1.153,0,1,0,1.634,1.628l7.6-7.63a10.72,10.72,0,0,0,6.511,1.675l5.95,5.95a1.153,1.153,0,1,0,1.631-1.631l-6.326-6.326a1.154,1.154,0,0,0-.91-.334l-.366.03a8.419,8.419,0,0,1-4.812-1.048l.741-.744A17.92,17.92,0,0,0,43.181,61.459ZM16.994,53.8a2.039,2.039,0,0,1-2.884,0l-3.116-3.116A2.039,2.039,0,1,1,13.878,47.8l3.116,3.116A2.042,2.042,0,0,1,16.994,53.8Zm4.515-4.515a2.042,2.042,0,0,1-2.884,0l-3.116-3.116L13.96,44.621a2.039,2.039,0,1,1,2.884-2.884L21.509,46.4h0a2.04,2.04,0,0,1,0,2.884Zm4.515-4.515a2.042,2.042,0,0,1-2.884,0l-5.794-5.794a2.039,2.039,0,0,1,2.883-2.885l2.641,2.641,3.154,3.154h0a2.04,2.04,0,0,1,0,2.884Zm4.515-4.515a2.042,2.042,0,0,1-2.884,0l-5.794-5.794,0,0-1.127-1.127a2.039,2.039,0,0,1,2.884-2.884l6.923,6.923a2.04,2.04,0,0,1,0,2.884Zm.3-5.843-3.168-3.168a5.277,5.277,0,0,0,1.1.117h.025l3.165-.015a1.153,1.153,0,0,0-.005-2.307h-.006l-3.165.015H28.78a2.929,2.929,0,0,1-2.929-2.929v-.359h7.9a5.382,5.382,0,0,1,3.928,1.71l.047.05Z" transform="translate(0 -23.462)"/></g></g></g></svg>