<svg id="Group_14041" data-name="Group 14041" xmlns="http://www.w3.org/2000/svg" width="148" height="45" viewBox="0 0 1473.794 225.744">
  <g id="Group_1" data-name="Group 1">
    <path id="Path_1" data-name="Path 1" d="M144.686,285.431l120.238-85.347,36.6,28.366-70.458,54.165,41.583,37.418L349.7,258.64l38.871,31.818L272.646,389.62Z" transform="translate(-144.686 -196.539)" fill="#fff"/>
    <path id="Path_2" data-name="Path 2" d="M265.76,574.5,139.746,472.02v34.453L268.625,607.949l-1.016-31.885Z" transform="translate(-139.728 -383.109)" fill="#fff"/>
    <path id="Path_3" data-name="Path 3" d="M413.18,275.167l111.893-86.128,132.571,97.537L543,383.113l-44.991-37.958,71.323-61.242-37.248-32.731-76.706,62.284Z" transform="translate(-326.988 -189.039)" fill="#fff"/>
    <path id="Path_4" data-name="Path 4" d="M677.591,675.868l44.836,37,3.17,32.474L677.591,710.65Z" transform="translate(-506.531 -519.598)" fill="#fff"/>
    <path id="Path_5" data-name="Path 5" d="M817.263,588.677l114.32-95.431V520.94L820.277,621.278Z" transform="translate(-601.365 -395.595)" fill="#fff"/>
    <path id="Path_6" data-name="Path 6" d="M723.314,744.04l1.942,1.633-2.778-32.6L677.6,676.325v2.246l43.325,35.543Z" transform="translate(-506.538 -519.954)" fill="#fff"/>
    <path id="Path_7" data-name="Path 7" d="M586.155,710.591V675.846l-43.223,36.936.947,31.595Z" transform="translate(-415.096 -519.583)" fill="#fff"/>
    <path id="Path_8" data-name="Path 8" d="M477.523,284.7l1.38,1.089-70.35,54.517,42.135,38.267,76.9-62.225,36.876,32.574-71.422,61.415-1.157-1.145,70.042-60.27-34.339-30.68-76.9,62.325L406.379,340.31Z" transform="translate(-322.377 -253.996)" fill="#fff"/>
    <path id="Path_9" data-name="Path 9" d="M314.4,530.527l1.188,1.021-42.809,36.663L145.029,464.187l1.244-.959,126.5,103.283Z" transform="translate(-144.919 -375.213)" fill="#fff"/>
    <path id="Path_10" data-name="Path 10" d="M483.665,288l-70.327,54.553L455.431,380.5l76.652-61.936,37.2,32.588-71.266,61.364L542.99,449.2l114.391-95.292-1.887-1.445-112.5,94.394-42.9-34.335,71.54-61.364L532.083,316.41l-76.652,61.853-40.213-35.708,69.191-53.824Z" transform="translate(-327.1 -256.235)" fill="#fff"/>
    <path id="Path_11" data-name="Path 11" d="M144.686,467.918v-1.572l127.744,104,43.318-36.782v2.3L272.43,572.123Z" transform="translate(-144.686 -377.331)" fill="#fff"/>
  </g>
  <text id="TotalScopeEXT" transform="translate(358.794 167.852)" fill="#fff" font-size="154" font-family="HelveticaNeue-Bold, Helvetica Neue" font-weight="700"><tspan x="0" y="0">TotalScopeEXT</tspan></text>
</svg>
