<svg id="Group_5960" data-name="Group 5960" xmlns="http://www.w3.org/2000/svg" width="120.966" height="47.865" viewBox="0 0 120.966 47.865">
  <g id="Group_5958" data-name="Group 5958" transform="translate(0 4.996)">
    <text id="VIRTUpharma" transform="translate(38.966 23.419)" fill="#fff" font-size="14" font-family="Seravek-Bold, Seravek" font-weight="700"><tspan x="0" y="0" letter-spacing="0.03em">VIRTU</tspan><tspan y="0" font-size="12" font-family="Seravek" font-weight="400">pharma</tspan></text>
    <path id="Path_12858" data-name="Path 12858" d="M-1377.879,1799.234l6.164-7.087Z" transform="translate(1392.536 -1772.339)" fill="#fff"/>
    <text id="Future_of_Lab_Work" data-name="Future of Lab Work" transform="translate(71.106 34.924)" fill="#fff" font-size="4" font-family="Seravek" letter-spacing="0.03em"><tspan x="0" y="0">Future of Lab Work</tspan></text>
    <g id="Group_4952" data-name="Group 4952" transform="translate(0 0)">
      <g id="Group_4950" data-name="Group 4950">
        <g id="Group_4948" data-name="Group 4948">
          <path id="Path_12747" data-name="Path 12747" d="M253.543,125.362c-.013-.032-.03-.076-.043-.109-1.943-.146-4.132-.3-9.506-.584,0,.032.007.076.008.108,2.343.124,6.266.332,9.54.584Z" transform="translate(-221.447 -115.23)" fill="#fff"/>
          <path id="Path_12748" data-name="Path 12748" d="M224.031,304.2c-.03,0-.059,0-.089,0Z" transform="translate(-205.413 -264.916)" fill="#fff"/>
          <path id="Path_12751" data-name="Path 12751" d="M255.706,222.038c.014-.025.034-.057.049-.081a41.226,41.226,0,0,0-8.115-3.988c-.009.027-.023.064-.033.089,4.681,2.026,5.939,2.571,8.1,3.98Z" transform="translate(-224.5 -193.02)" fill="#fff"/>
          <path id="Path_12755" data-name="Path 12755" d="M210.849,93.655c.016-.017.037-.04.054-.056-3.569-3.4-4.312-4.107-5.165-5.637l-.052.037c.983,1.744,2.262,3,5.164,5.656Z" transform="translate(-190.226 -84.625)" fill="#fff"/>
          <path id="Path_12756" data-name="Path 12756" d="M189.067,115.659c0-.032,0-.074.008-.1-4.3-.7-6.269-1.018-9.316-1.646-.014.03-.033.069-.048.1,3.126.64,4.95.937,9.356,1.654Z" transform="translate(-168.766 -106.257)" fill="#fff"/>
          <path id="Path_12757" data-name="Path 12757" d="M245.219,180.08c.026.009.061.024.085.035a66.98,66.98,0,0,0,2.726-6.431.811.811,0,0,1-.115-.049c-.829,2.188-1.286,3.394-2.712,6.441l.015,0Z" transform="translate(-222.805 -156.056)" fill="#fff"/>
          <path id="Path_12758" data-name="Path 12758" d="M245.093,134.421c.024-.012.056-.028.081-.039-.764-1.629-1.147-2.446-3.2-6.12-.021.01-.051.024-.073.033,2.611,4.936,2.611,4.936,3.19,6.126Z" transform="translate(-220.072 -118.225)" fill="#fff"/>
          <path id="Path_12759" data-name="Path 12759" d="M174.836,133.61c.009.016.02.037.029.053,3.409-2.315,6.893-4.519,10.3-6.832-.021-.027-.05-.064-.069-.092-3.423,2.287-6.948,4.421-10.271,6.859Z" transform="translate(-164.732 -116.956)" fill="#fff"/>
          <path id="Path_12760" data-name="Path 12760" d="M175.5,169.367c0,.023,0,.053,0,.075,1.7.021,1.7.021,13.9-.191,0-.039-.006-.09-.007-.128-4.63.08-9.26.148-13.89.235v.01Z" transform="translate(-165.144 -152.295)" fill="#fff"/>
          <path id="Path_12768" data-name="Path 12768" d="M168.915,238.5l.036-.057c-3.888-2.294-7.955-4.271-11.767-6.7l-.01.066c1.341.893,1.66,1.1,3.48,2.142,2.732,1.557,5.527,3,8.262,4.549Z" transform="translate(-150.233 -204.505)" fill="#fff"/>
          <path id="Path_12769" data-name="Path 12769" d="M231.158,229.3l.046,0c.862-3.089,1.816-7.721,1.922-8.239a.9.9,0,0,1-.12-.016c-.446,2.171-.741,3.606-1.859,8.25h.012Z" transform="translate(-211.276 -195.588)" fill="#fff"/>
          <path id="Path_12770" data-name="Path 12770" d="M185.145,179.824c.018-.033.14-.138.161-.171-8-4.809-8.152-4.808-10.938-6.793-.017.035-.069.193-.089.227,2.657,1.868,2.74,1.815,10.865,6.737Z" transform="translate(-164.282 -155.425)" fill="#fff"/>
          <path id="Path_12771" data-name="Path 12771" d="M156.76,218.923c.008.021.017.051.025.073,9.005-1.336,9.005-1.336,13.655-1.956,0-.037-.008-.086-.009-.124-6.253.826-10.027,1.324-13.676,1.992l.005.014Z" transform="translate(-149.836 -192.142)" fill="#fff"/>
          <path id="Path_12778" data-name="Path 12778" d="M123.764,174.947c.005.029.011.069.015.1a42.463,42.463,0,0,1,7.262-3.014.944.944,0,0,1-.018-.126,39.9,39.9,0,0,0-7.262,3.027Z" transform="translate(-123.046 -154.614)" fill="#fff"/>
          <path id="Path_12779" data-name="Path 12779" d="M153.97,183.57l.047.023a35.08,35.08,0,0,1,2.572-8.393c-.03-.014-.071-.035-.1-.052a32.05,32.05,0,0,0-2.532,8.417l.012.005Z" transform="translate(-147.767 -157.317)" fill="#fff"/>
          <path id="Path_12780" data-name="Path 12780" d="M170.9,125.339l.083-.012a31.485,31.485,0,0,1,.81-8.175c-.027,0-.064.009-.091.011a29.645,29.645,0,0,0-.8,8.176Z" transform="translate(-161.726 -108.962)" fill="#fff"/>
          <path id="Path_12781" data-name="Path 12781" d="M143.257,142.647a.8.8,0,0,1,.064-.111,20.774,20.774,0,0,1-4.925-5.1c-.03.045-.039.057-.07.1a19.519,19.519,0,0,0,4.93,5.115Z" transform="translate(-135.19 -125.874)" fill="#fff"/>
          <path id="Path_12785" data-name="Path 12785" d="M127.966,200.158c.007-.021.018-.048.026-.069a28.063,28.063,0,0,1-4.493-5.323.81.81,0,0,1-.032.088,25.131,25.131,0,0,0,4.5,5.3Z" transform="translate(-122.802 -173.674)" fill="#fff"/>
          <path id="Path_12792" data-name="Path 12792" d="M133.9,109.737v.012l.081-.1,0-.012Z" transform="translate(-131.5 -102.7)" fill="#fff"/>
          <path id="Path_12811" data-name="Path 12811" d="M220.341,67.889a2.051,2.051,0,0,0-.224.012c.253-.013.253-.013.357-.015l-.133,0Z" transform="translate(-202.256 -67.886)" fill="#fff"/>
          <path id="Path_12815" data-name="Path 12815" d="M136.378,104.122l-.485.547c.1-.11.1-.11.6-.666Z" transform="translate(-133.162 -97.999)" fill="#fff"/>
          <path id="Path_12824" data-name="Path 12824" d="M300.935,125.441c.277.657.8.826.917.521.121-.325-.305-1.155-.781-1.177-.241,0-.3.273-.135.655Z" transform="translate(-268.807 -115.327)" fill="#fff"/>
          <path id="Path_12829" data-name="Path 12829" d="M224.475,304.2h0Z" transform="translate(-205.852 -264.918)" fill="#fff"/>
          <path id="Path_12830" data-name="Path 12830" d="M259.07,166.517a1.775,1.775,0,0,0,2.977,1.255,1.815,1.815,0,0,0-1.355-3,1.556,1.556,0,0,0-1.621,1.745Z" transform="translate(-235.094 -149.619)" fill="#fff"/>
          <path id="Path_12852" data-name="Path 12852" d="M259.065,166.12a1.247,1.247,0,0,0,2.113.969,1.422,1.422,0,0,0-.962-2.316,1.165,1.165,0,0,0-1.152,1.347Z" transform="translate(-254 -138.884)" fill="#fff"/>
          <path id="Path_12832" data-name="Path 12832" d="M239.025,212.912a.748.748,0,1,0,.847-.756l-.062,0a.756.756,0,0,0-.785.758Z" transform="translate(-217.777 -188.171)" fill="#fff"/>
          <path id="Path_12872" data-name="Path 12872" d="M239.025,212.912a.748.748,0,1,0,.847-.756l-.062,0a.756.756,0,0,0-.785.758Z" transform="translate(-207.7 -183.56)" fill="#fff"/>
          <path id="Path_12873" data-name="Path 12873" d="M239.025,212.912a.748.748,0,1,0,.847-.756l-.062,0a.756.756,0,0,0-.785.758Z" transform="translate(-207.358 -202.861)" fill="#fff"/>
          <path id="Path_12833" data-name="Path 12833" d="M236.007,122.341a1.459,1.459,0,0,0,2.468.815,1.434,1.434,0,0,0-1.234-2.209h-.006A1.165,1.165,0,0,0,236.007,122.341Z" transform="translate(-215.975 -112.796)" fill="#fff"/>
          <path id="Path_12836" data-name="Path 12836" d="M227.446,271.2a.517.517,0,0,0,.912.3.473.473,0,0,0-.332-.837.536.536,0,0,0-.58.538Z" transform="translate(-208.264 -236.953)" fill="#fff"/>
          <path id="Path_12837" data-name="Path 12837" d="M202.213,84.373c-.142.329.147.423.412.326.364-.134.582-.632.327-.751a.306.306,0,0,0-.125-.025.751.751,0,0,0-.614.45Z" transform="translate(-187.473 -81.257)" fill="#fff"/>
          <path id="Path_12839" data-name="Path 12839" d="M167.427,167.113a.647.647,0,0,0,1.081.587c.384-.353.418-1.34-.365-1.386a.755.755,0,0,0-.716.8Z" transform="translate(-158.866 -149.952)" fill="#fff"/>
          <path id="Path_12862" data-name="Path 12862" d="M167.427,167.113a.647.647,0,0,0,1.081.587c.384-.353.418-1.34-.365-1.386a.755.755,0,0,0-.716.8Z" transform="translate(-157.674 -159.346)" fill="#fff"/>
          <path id="Path_12863" data-name="Path 12863" d="M167.427,167.113c-.026.758.524.947.822.587s.318-1.34-.277-1.386c-.249,0-.526.255-.544.8Z" transform="translate(-164.498 -155.096)" fill="#fff"/>
          <path id="Path_12842" data-name="Path 12842" d="M150.469,226.341c.223.633.857.79,1.03.384.152-.356-.122-1.18-.709-1.194-.409.024-.453.437-.321.812Z" transform="translate(-144.622 -199.325)" fill="#fff"/>
          <path id="Path_12848" data-name="Path 12848" d="M119.465,187.818c.04.7.382.906.584.675.287-.328.179-1.5-.245-1.511C119.538,187,119.441,187.416,119.465,187.818Z" transform="translate(-119.462 -167.185)" fill="#fff"/>
          <path id="Path_12866" data-name="Path 12866" d="M157.1,64.772l5.379-5.807.222.309-5.372,5.865Z" transform="translate(-130.267 -48.893)" fill="#fff"/>
        </g>
      </g>
    </g>
    <path id="Path_12859" data-name="Path 12859" d="M-1099.676,1836.213l.688.287,2.666,5.349-.652.229Z" transform="translate(1121.2 -1826.3)" fill="#fff"/>
    <path id="Path_12860" data-name="Path 12860" d="M-1093.209,1876.738h.272l-2.538,6.26h-.469Z" transform="translate(1117.935 -1858.708)" fill="#fff"/>
    <path id="Path_12861" data-name="Path 12861" d="M-1171.844,1874.175v.318l14.68-.318v-.529Z" transform="translate(1181.383 -1857.169)" fill="#fff"/>
    <path id="Path_12864" data-name="Path 12864" d="M-1185.888,2181.849l1.818,1.9,3.055,2.534v.379l-2.418-1.983-2.7-2.826Z" transform="translate(1189.644 -2169.437)" fill="#fff"/>
    <path id="Path_12865" data-name="Path 12865" d="M-1118.045,2127.7l2.332,2.577,2.482,2.751v.424l-2.81-2.941-2.277-2.81Z" transform="translate(1133.412 -2124.532)" fill="#fff"/>
    <path id="Path_12867" data-name="Path 12867" d="M-1075.446,2253.569l9.132,4.3-.191.367-9.221-4.325Z" transform="translate(1098.094 -2228.907)" fill="#fff"/>
    <path id="Path_12868" data-name="Path 12868" d="M-1050.842,2214.739l5.366,10.817h-.23l-5.435-10.557Z" transform="translate(1077.709 -2196.709)" fill="#fff"/>
    <path id="Path_12869" data-name="Path 12869" d="M-1074.39,2163.3l9.453.691v.227l-9.453-.545Z" transform="translate(1096.988 -2154.056)" fill="#fff"/>
    <path id="Path_12870" data-name="Path 12870" d="M-1164.666,2270.322l11.857,6.642v.25l-12.169-6.542Z" transform="translate(1172.159 -2242.805)" fill="#fff"/>
    <path id="Path_12871" data-name="Path 12871" d="M-1089.622,2285.993l11.469-4.606v.372l-11.692,4.528Z" transform="translate(1109.802 -2251.973)" fill="#fff"/>
  </g>
  <path id="Subtraction_1" data-name="Subtraction 1" d="M11.152,47.865A11.42,11.42,0,0,1,.706,41.027,5.544,5.544,0,0,0,3.585,40,8.442,8.442,0,0,0,11.2,44.837c.071,0,.142,0,.213,0a8.7,8.7,0,0,0,8.446-8.744,1.542,1.542,0,0,1,1.5-1.551h.038a1.488,1.488,0,0,1,1.491,1.477A11.8,11.8,0,0,1,11.444,47.863ZM21.135,16.8a1.487,1.487,0,0,1-1.492-1.477L19.6,11.357A8.417,8.417,0,0,0,11.2,3.029c-.071,0-.142,0-.213,0A8.562,8.562,0,0,0,5.869,4.877,8.79,8.79,0,0,0,2.874,9.3c-.143-.094-.3-.185-.453-.269A5.475,5.475,0,0,0,0,8.387,11.715,11.715,0,0,1,1.584,5.1a11.893,11.893,0,0,1,2.485-2.63A11.6,11.6,0,0,1,10.951,0q.146,0,.29,0A11.393,11.393,0,0,1,22.63,11.282l.041,3.967a1.541,1.541,0,0,1-1.5,1.551Z" transform="translate(18.881 0)" fill="#fff"/>
</svg>
