<svg xmlns="http://www.w3.org/2000/svg" width="85" height="80" viewBox="0 0 630.762 604.945">
  <g id="Shape_225_1_" transform="translate(-18.546 -3.102)">
    <g id="Polygon_1_copy" transform="translate(18.546 3.102)">
      <g id="Group_14037" data-name="Group 14037">
        <path id="Path_29888" data-name="Path 29888" d="M595.08,218.585c0-70.242,44.207-112.409,44.207-112.409L535.665,5.751S434.1,74.042,333.932,3.1C233.761,74.042,132.2,5.751,132.2,5.751L28.578,106.176S72.826,148.35,72.826,218.585c0,112.437-82.261,133.845-44.248,246.275,44.248,97.7,156.13,93.684,156.13,93.684s101.52,3.354,149.224,49.5c47.663-46.15,149.224-49.5,149.224-49.5s111.93,4.018,156.13-93.684C677.258,352.43,595.08,331.021,595.08,218.585Z" transform="translate(-18.546 -3.102)" fill="#fff"/>
      </g>
    </g>
    <g id="_x39_9_2_" transform="translate(159.891 178.984)">
      <g id="Group_14038" data-name="Group 14038" transform="translate(0)">
        <path id="Path_29889" data-name="Path 29889" d="M114.347,28.8C70.736,28.8,39.2,61.892,39.2,102.95c0,39.71,31.538,72.809,73.835,72.809a66.123,66.123,0,0,0,28.841-6.262C126.462,205.88,93.219,241.312,64.7,263.789l1.711,1.656h47.944c33.557-22.825,80.228-84.375,80.228-142.318C194.568,56.594,152.949,28.8,114.347,28.8Zm0,108.214c-19.787,0-33.564-14.209-33.564-34.064,0-19.54,12.792-35.426,33.564-35.426,19.855,0,38.608,14.229,39.279,53.966C141.868,133.071,131.814,137.014,114.347,137.014ZM293.234,28.8c-43.652,0-75.19,33.092-75.19,74.15,0,39.71,31.538,72.809,73.842,72.809a66.3,66.3,0,0,0,28.876-6.262c-15.454,36.384-48.7,71.816-77.209,94.292l1.7,1.656h47.985c33.516-22.825,80.194-84.375,80.194-142.318C373.428,56.594,331.842,28.8,293.234,28.8Zm0,108.214c-19.821,0-33.564-14.209-33.564-34.064,0-19.54,12.751-35.426,33.564-35.426,19.78,0,38.608,14.229,39.238,53.966C320.762,133.071,310.666,137.014,293.234,137.014Z" transform="translate(-39.198 -28.8)" fill="#333f48"/>
      </g>
    </g>
  </g>
</svg>
